<svg width="208" height="52" viewBox="0 0 208 52" fill="none" xmlns="http://www.w3.org/2000/svg">
<g clip-path="url(#clip0_1189_30504)">
<path d="M80.523 40.0589L77.94 45.0359H74.52L86.238 22.3379L93.555 45.0359H90.279L88.74 40.0589H80.523ZM81.882 37.3409H87.867L85.59 29.8079L81.882 37.3409Z" fill="#00A15D"/>
<path d="M101.088 23.8496L98.4779 45.0356H95.3369L97.9469 23.8496H101.088Z" fill="#00A15D"/>
<path d="M119.448 23.8496L119.088 26.7746H111.303L110.628 32.2646H118.413L118.08 34.9826H110.304L109.422 42.1196H117.198L116.829 45.0446H105.921L108.531 23.8586H119.439L119.448 23.8496Z" fill="#00A15D"/>
<path d="M129.051 33.5435L127.332 35.2625C126.531 34.5425 125.784 34.1825 125.091 34.1825C124.623 34.1825 124.236 34.3085 123.93 34.5695C123.624 34.8305 123.471 35.1545 123.471 35.5415C123.471 35.9285 123.597 36.2345 123.858 36.4865C124.11 36.7475 124.65 37.1075 125.46 37.5575C126.621 38.2055 127.395 38.7995 127.791 39.3395C128.214 39.8705 128.421 40.5635 128.421 41.4095C128.421 42.6335 127.998 43.6145 127.143 44.3615C126.27 45.0905 125.145 45.4595 123.75 45.4595C121.86 45.4595 120.285 44.6045 119.043 42.8945L121.032 41.5085C121.842 42.4895 122.715 42.9755 123.642 42.9755C124.164 42.9755 124.578 42.8405 124.902 42.5615C125.217 42.2915 125.379 41.9315 125.379 41.4905C125.379 41.1035 125.244 40.7975 124.983 40.5545C124.857 40.4375 124.632 40.2665 124.308 40.0595C123.984 39.8525 123.552 39.6005 123.003 39.3035C122.031 38.7635 121.365 38.2415 120.987 37.7285C120.609 37.1885 120.429 36.5315 120.429 35.7485C120.429 34.5785 120.861 33.6065 121.716 32.8415C122.58 32.0765 123.669 31.6895 124.992 31.6895C126.459 31.6895 127.8 32.3105 129.042 33.5435H129.051Z" fill="#00A15D"/>
<path d="M139.689 33.5435L137.97 35.2625C137.169 34.5425 136.422 34.1825 135.729 34.1825C135.261 34.1825 134.874 34.3085 134.568 34.5695C134.262 34.8305 134.109 35.1545 134.109 35.5415C134.109 35.9285 134.235 36.2345 134.496 36.4865C134.748 36.7475 135.288 37.1075 136.098 37.5575C137.259 38.2055 138.033 38.7995 138.429 39.3395C138.852 39.8705 139.059 40.5635 139.059 41.4095C139.059 42.6335 138.636 43.6145 137.781 44.3615C136.908 45.0905 135.783 45.4595 134.388 45.4595C132.498 45.4595 130.923 44.6045 129.681 42.8945L131.67 41.5085C132.48 42.4895 133.353 42.9755 134.28 42.9755C134.802 42.9755 135.216 42.8405 135.54 42.5615C135.855 42.2915 136.017 41.9315 136.017 41.4905C136.017 41.1035 135.882 40.7975 135.621 40.5545C135.495 40.4375 135.27 40.2665 134.946 40.0595C134.622 39.8525 134.19 39.6005 133.641 39.3035C132.669 38.7635 132.003 38.2415 131.625 37.7285C131.247 37.1885 131.067 36.5315 131.067 35.7485C131.067 34.5785 131.499 33.6065 132.354 32.8415C133.218 32.0765 134.307 31.6895 135.63 31.6895C137.097 31.6895 138.438 32.3105 139.68 33.5435H139.689Z" fill="#00A15D"/>
<path d="M155.322 32.1119L153.729 45.0359H150.696L150.876 43.6409C149.58 44.7749 148.23 45.3419 146.844 45.3419C145.134 45.3419 143.739 44.7659 142.659 43.5959C141.579 42.4349 141.039 40.9319 141.039 39.0779C141.039 36.9449 141.66 35.1989 142.893 33.8399C144.144 32.4809 145.755 31.7969 147.708 31.7969C148.635 31.7969 149.418 31.9499 150.066 32.2469C150.723 32.5529 151.398 33.0749 152.082 33.8129L152.289 32.1119H155.322ZM151.632 38.2049C151.632 37.0619 151.299 36.1349 150.642 35.4239C149.985 34.7039 149.13 34.3349 148.086 34.3349C146.952 34.3349 145.998 34.7759 145.233 35.6669C144.468 36.5669 144.081 37.6649 144.081 38.9609C144.081 40.0949 144.405 41.0219 145.044 41.7419C145.683 42.4619 146.511 42.8219 147.51 42.8219C148.626 42.8219 149.589 42.3719 150.408 41.4629C151.218 40.5359 151.632 39.4469 151.632 38.1959V38.2049Z" fill="#00A15D"/>
<path d="M171.576 32.1113L159.876 52.4333H156.42L161.622 43.4333L156.996 32.1113H160.236L163.431 40.3733L168.111 32.1113H171.585H171.576Z" fill="#00A15D"/>
<path d="M183.483 35.181H191.961C191.754 37.584 191.178 39.555 190.233 41.094C188.46 43.992 185.823 45.441 182.331 45.441C179.388 45.441 176.958 44.451 175.059 42.462C173.16 40.473 172.206 37.944 172.206 34.857C172.206 33.183 172.53 31.554 173.178 29.961C173.817 28.404 174.717 27.108 175.869 26.064C177.795 24.3 180.189 23.418 183.042 23.418C186.534 23.418 189.432 24.84 191.727 27.684L189.684 29.772C187.956 27.504 185.724 26.37 182.988 26.37C180.729 26.37 178.893 27.153 177.489 28.719C176.067 30.303 175.365 32.328 175.365 34.794C175.365 37.062 176.031 38.916 177.354 40.347C178.677 41.778 180.405 42.498 182.529 42.498C184.032 42.498 185.31 42.084 186.372 41.265C187.425 40.446 188.1 39.312 188.406 37.89H183.15L183.492 35.172L183.483 35.181Z" fill="#00A15D"/>
<path d="M207.756 38.4469C207.756 40.4269 207.072 42.0829 205.695 43.4239C204.336 44.7649 202.653 45.4399 200.646 45.4399C198.639 45.4399 196.839 44.8009 195.516 43.5319C194.184 42.2539 193.509 40.6339 193.509 38.6719C193.509 36.7099 194.202 34.9999 195.579 33.6769C196.965 32.3449 198.711 31.6699 200.79 31.6699C202.869 31.6699 204.507 32.2999 205.803 33.5599C207.099 34.8019 207.756 36.4309 207.756 38.4289V38.4469ZM204.696 38.3029C204.696 37.0609 204.336 36.0799 203.616 35.3509C202.896 34.6039 201.942 34.2259 200.772 34.2259C199.602 34.2259 198.549 34.6399 197.757 35.4769C196.965 36.3229 196.56 37.3759 196.56 38.6449C196.56 39.9139 196.938 40.9579 197.685 41.7319C198.432 42.5239 199.404 42.9289 200.592 42.9289C201.78 42.9289 202.761 42.4969 203.526 41.6239C204.3 40.7599 204.696 39.6529 204.696 38.3029Z" fill="#00A15D"/>
<path d="M36.0448 30.3301H41.2648V45.0541H36.0448V43.4161C34.9378 44.8111 33.4348 45.5131 31.5358 45.5131C30.4648 45.5131 29.4748 45.3151 28.5838 44.9281C27.6928 44.5411 26.9008 43.9831 26.2348 43.2811C25.5598 42.5701 25.0468 41.7421 24.6688 40.7881C24.2908 39.8341 24.1108 38.7901 24.1108 37.6561C24.1108 36.6031 24.2908 35.6041 24.6598 34.6591C25.0198 33.7141 25.5328 32.8861 26.1808 32.1751C26.8288 31.4641 27.6028 30.9061 28.5028 30.4921C29.4028 30.0781 30.3928 29.8711 31.4908 29.8711C33.3268 29.8711 34.8478 30.5101 36.0538 31.7971V30.3301H36.0448ZM29.5018 37.6471C29.5018 38.1241 29.5918 38.5741 29.7628 38.9791C29.9338 39.3931 30.1678 39.7531 30.4648 40.0591C30.7618 40.3651 31.1128 40.6081 31.5268 40.7791C31.9408 40.9501 32.3818 41.0401 32.8588 41.0401C33.3358 41.0401 33.7498 40.9501 34.1638 40.7791C34.5778 40.6081 34.9288 40.3651 35.2258 40.0591C35.5228 39.7531 35.7568 39.4021 35.9458 38.9971C36.1258 38.5921 36.2158 38.1691 36.2158 37.7011C36.2158 37.2331 36.1258 36.8101 35.9458 36.3961C35.7658 35.9821 35.5228 35.6221 35.2258 35.3161C34.9288 35.0101 34.5778 34.7671 34.1638 34.5961C33.7498 34.4251 33.3178 34.3351 32.8588 34.3351C32.3998 34.3351 31.9318 34.4251 31.5268 34.5961C31.1218 34.7671 30.7618 35.0101 30.4648 35.3161C30.1678 35.6221 29.9338 35.9731 29.7628 36.3601C29.5918 36.7561 29.5018 37.1791 29.5018 37.6381V37.6471Z" fill="#00A15D"/>
<path d="M44.9639 30.3306H50.1569V32.1936C50.8679 31.3296 51.5789 30.7536 52.3079 30.4566C53.0369 30.1596 53.8829 30.0156 54.8639 30.0156C55.8989 30.0156 56.7809 30.1866 57.5189 30.5196C58.2569 30.8526 58.8779 31.3296 59.3999 31.9416C59.8229 32.4366 60.1109 32.9946 60.2639 33.6066C60.4169 34.2186 60.4889 34.9206 60.4889 35.7036V45.0636H55.2959V37.6296C55.2959 36.9006 55.2419 36.3156 55.1429 35.8656C55.0349 35.4156 54.8459 35.0556 54.5849 34.7856C54.3599 34.5516 54.0989 34.3896 53.8109 34.2996C53.5229 34.2006 53.2169 34.1556 52.8929 34.1556C52.0109 34.1556 51.3359 34.4166 50.8679 34.9476C50.3999 35.4696 50.1659 36.2256 50.1659 37.1976V45.0636H44.9729V30.3396L44.9639 30.3306Z" fill="#00A15D"/>
<path d="M63.7739 24.6703C63.7739 24.2653 63.8459 23.8873 63.9989 23.5363C64.1519 23.1853 64.3589 22.8703 64.6289 22.6003C64.8989 22.3303 65.2049 22.1233 65.5649 21.9703C65.9159 21.8173 66.2939 21.7363 66.6989 21.7363C67.1039 21.7363 67.4819 21.8173 67.8329 21.9703C68.1839 22.1233 68.4989 22.3303 68.7689 22.6003C69.0389 22.8703 69.2459 23.1763 69.3989 23.5363C69.5519 23.8873 69.6239 24.2653 69.6239 24.6703C69.6239 25.0753 69.5519 25.4533 69.3989 25.8043C69.2459 26.1553 69.0389 26.4703 68.7689 26.7403C68.4989 27.0103 68.1929 27.2173 67.8329 27.3703C67.4819 27.5233 67.1039 27.5953 66.6989 27.5953C66.2939 27.5953 65.9159 27.5233 65.5649 27.3703C65.2139 27.2173 64.8989 27.0103 64.6289 26.7403C64.3589 26.4703 64.1519 26.1643 63.9989 25.8043C63.8459 25.4533 63.7739 25.0753 63.7739 24.6703ZM69.3179 30.3313V45.0553H64.1249V30.3313H69.3179Z" fill="#00A15D"/>
<path d="M0.125977 23.418V45.063H5.75098V31.833L16.137 45.063H21.735L5.75098 23.418H0.125977Z" fill="#00A15D"/>
<path d="M16.1102 23.418L12.9512 28.188H16.1102V34.803L21.7352 42.363V23.418H16.1102Z" fill="#00A15D"/>
<path d="M6.273 2.59338C6.219 2.93538 6.156 3.24137 6.093 3.54737H10.755V10.4414C10.755 11.1794 10.575 11.5214 10.053 11.7374C9.549 11.9444 8.793 11.9534 7.776 11.9534C7.713 11.5754 7.488 11.0264 7.29 10.6754C7.902 10.7114 8.703 10.7114 8.892 10.7024C9.117 10.7024 9.18 10.6394 9.18 10.4324V4.93337H6.75L8.019 5.18538C7.839 5.65338 7.659 6.11237 7.488 6.51737H8.415V7.68738H6.273V8.51538H8.703V9.73038H6.273V11.6114H4.851V9.73038H2.502V8.51538H4.851V7.68738H2.772V6.51737H3.753C3.636 6.13937 3.447 5.62638 3.258 5.23938L4.455 4.94237C4.68 5.37437 4.923 5.95038 5.031 6.32838L4.356 6.51737H6.21C6.399 6.02237 6.588 5.40137 6.696 4.93337H2.007V11.9534H0.486V3.54737H4.599C4.653 3.24137 4.698 2.93538 4.743 2.59338H0V1.18037H4.887C4.914 0.802375 4.941 0.442375 4.95 0.109375L6.624 0.262375C6.588 0.559375 6.534 0.874375 6.498 1.18037H11.223V2.59338H6.273Z" fill="#00A15D"/>
<path d="M24.8129 5.12109V6.75909H13.1309V5.12109H24.8129Z" fill="#00A15D"/>
<path d="M30.6269 0.641406C30.2939 1.53241 29.8799 2.43241 29.4029 3.28741V11.9904H27.8819V5.63641C27.6119 5.95141 27.3509 6.27541 27.0899 6.55441C26.9459 6.18541 26.5139 5.32141 26.2529 4.94341C27.4049 3.80041 28.5119 2.00041 29.1509 0.191406L30.6269 0.650406V0.641406ZM34.6499 3.63841V4.97041H37.9439V6.33841H34.6499V7.76941H38.1059V9.16441H34.6499V11.9814H33.1019V3.63841H32.6159C32.1119 4.57441 31.5269 5.43841 30.9509 6.10441C30.7079 5.82541 30.1139 5.29441 29.7899 5.05141C30.9059 3.90841 31.9139 2.08141 32.4809 0.263406L33.9389 0.632406C33.7589 1.16341 33.5609 1.68541 33.3179 2.20741H38.2499V3.64741H34.6409L34.6499 3.63841Z" fill="#00A15D"/>
<path d="M49.5092 3.73619C48.8612 5.56319 47.9972 7.04819 46.8902 8.28119C48.1952 9.29819 49.7972 10.0362 51.6872 10.4772C51.3452 10.8102 50.8952 11.4672 50.6702 11.8902C48.6722 11.3592 47.0342 10.5222 45.7022 9.39719C44.3072 10.5402 42.6062 11.3772 40.5542 11.9622C40.3922 11.6022 39.9422 10.8912 39.6362 10.5492C41.6162 10.0542 43.2542 9.33419 44.5772 8.29919C43.4342 7.03919 42.5612 5.51819 41.8682 3.72719H39.8702V2.25119H45.2342C45.0902 1.72919 44.8112 1.01819 44.5232 0.460187L46.1342 -0.0078125C46.4672 0.577187 46.8452 1.38719 46.9982 1.90919L45.9092 2.25119H51.4352V3.72719H49.4912L49.5092 3.73619ZM43.4522 3.73619C44.0012 5.06819 44.7572 6.24719 45.7382 7.25519C46.6112 6.29219 47.3132 5.13119 47.8082 3.73619H43.4522Z" fill="#00A15D"/>
<path d="M57.6537 6.87653C57.1677 7.02053 56.6907 7.14653 56.1957 7.27253V10.2965C56.1957 11.0345 56.0517 11.4035 55.6197 11.6195C55.2057 11.8625 54.5937 11.8985 53.7027 11.8985C53.6487 11.5025 53.4597 10.9085 53.2707 10.5305C53.7747 10.5395 54.2967 10.5395 54.4677 10.5395C54.6477 10.5395 54.7107 10.4765 54.7107 10.2965V7.65053L53.3877 7.99253L52.9917 6.54353C53.4867 6.44453 54.0717 6.30053 54.7107 6.16553V3.94253H53.1627V2.54753H54.7107V0.144531H56.1957V2.54753H57.5277V3.94253H56.1957V5.81453C56.6277 5.69753 57.0597 5.59853 57.4827 5.48153L57.6627 6.87653H57.6537ZM60.9387 8.99153C60.9477 9.43253 61.0377 10.0445 61.1187 10.3775C58.9767 11.3045 58.5537 11.5475 58.3017 11.7725C58.2117 11.3675 57.9597 10.7015 57.7167 10.3775C57.9417 10.2335 58.0857 10.0085 58.0857 9.52253V0.405531H59.5347V4.08653H60.9027V5.49953H59.5347V9.52253L60.9477 8.99153H60.9387ZM63.4857 10.3415C63.6747 10.3415 63.7287 9.99953 63.7647 8.80253C64.0707 9.05453 64.5927 9.30653 64.9797 9.39653C64.8357 11.0345 64.5117 11.6735 63.5937 11.6735H62.6037C61.5327 11.6735 61.2447 11.2325 61.2447 9.67553V0.405531H62.6127V4.08653H64.3677V5.49953H62.6127V9.67553C62.6127 10.2515 62.6487 10.3325 62.8647 10.3325H63.4767L63.4857 10.3415Z" fill="#00A15D"/>
<path d="M68.3637 4.37425V11.9972H66.9507V0.53125H71.8557V4.36525H68.3637V4.37425ZM68.3637 1.50325V2.01625H70.4337V1.50325H68.3637ZM70.4337 3.42025V2.86225H68.3637V3.42025H70.4337ZM77.6967 10.3682C77.6967 11.0433 77.5797 11.3942 77.1747 11.6282C76.7787 11.8532 76.2117 11.8802 75.4197 11.8802C75.3927 11.6372 75.3027 11.2952 75.2037 11.0072C75.0237 11.2142 74.7717 11.2862 74.4297 11.2862H73.6287C72.6207 11.2862 72.4227 10.9442 72.4227 9.92725V8.88325H71.7657C71.5857 10.1252 71.0907 10.9622 69.4707 11.5022C69.3267 11.1962 69.0117 10.7282 68.7597 10.4942C70.0467 10.1792 70.4067 9.65725 70.5417 8.88325H69.8667V6.87625C69.7047 6.97525 69.5517 7.06525 69.3807 7.15525C69.1737 6.93025 68.7687 6.60625 68.5167 6.44425C69.3897 6.00325 70.3617 5.28325 70.7937 4.62625L71.9637 4.98625C71.5947 5.50825 71.0727 6.00325 70.5057 6.43525H74.1867C73.6827 6.01225 73.0527 5.58025 72.5217 5.25625L73.3137 4.64425C74.1867 5.16625 75.3207 5.96725 75.8967 6.53425L75.0597 7.20925C74.9607 7.09225 74.8347 6.96625 74.6817 6.84025V8.88325H73.6917V9.92725C73.6917 10.1972 73.7007 10.2332 73.8717 10.2332H74.2947C74.4747 10.2332 74.5107 10.1163 74.5467 9.34225C74.7717 9.52225 75.2847 9.70225 75.5997 9.76525C75.5637 10.1073 75.5277 10.3862 75.4467 10.5752C75.7257 10.5842 75.9687 10.5842 76.0677 10.5752C76.2207 10.5752 76.2747 10.5212 76.2747 10.3593V4.39225H72.7197V0.54925H77.7237V10.3682H77.6967ZM71.0277 8.01925H73.4127V7.28125H71.0277V8.01925ZM74.1237 1.51225V2.01625H76.2477V1.51225H74.1237ZM76.2477 3.42925V2.87125H74.1237V3.42925H76.2477Z" fill="#00A15D"/>
</g>
<defs>
<clipPath id="clip0_1189_30504">
<rect width="208" height="52" fill="white"/>
</clipPath>
</defs>
</svg>
