<svg width="33" height="33" viewBox="0 0 33 33" fill="none" xmlns="http://www.w3.org/2000/svg">
<path d="M11.3083 21.68C10.8557 21.2274 11.0917 21.355 10 21.0628C9.50473 20.93 9.06932 20.6748 8.67558 20.3691L6.3126 26.1627C6.08396 26.7236 6.51104 27.333 7.11623 27.3101L9.86045 27.2054L11.7479 29.1991C12.1646 29.6387 12.8958 29.5017 13.1244 28.9408L15.8353 22.294C15.2708 22.6086 14.6442 22.793 13.9963 22.793C12.9807 22.793 12.0266 22.3977 11.3083 21.68ZM26.1872 26.1627L23.8242 20.3691C23.4305 20.6753 22.9951 20.93 22.4998 21.0628C21.4024 21.3566 21.643 21.2284 21.1915 21.68C20.4733 22.3977 19.5186 22.793 18.503 22.793C17.8551 22.793 17.2285 22.6081 16.664 22.294L19.3748 28.9408C19.6035 29.5017 20.3352 29.6387 20.7514 29.1991L22.6394 27.2054L25.3836 27.3101C25.9888 27.333 26.4158 26.7231 26.1872 26.1627ZM19.9477 20.5014C20.7436 19.6915 20.8347 19.7613 21.968 19.4524C22.6914 19.255 23.2571 18.6795 23.4508 17.9431C23.8404 16.464 23.7393 16.6426 24.8023 15.5603C25.332 15.0213 25.5388 14.2353 25.345 13.4989C24.956 12.0208 24.9555 12.2271 25.345 10.7474C25.5388 10.011 25.332 9.22503 24.8023 8.68598C23.7393 7.60371 23.8404 7.78183 23.4508 6.30322C23.2571 5.56677 22.6914 4.99126 21.968 4.79387C20.516 4.39752 20.691 4.50117 19.6269 3.41838C19.0972 2.87932 18.3249 2.66839 17.6014 2.86578C16.1499 3.26161 16.3525 3.26213 14.8984 2.86578C14.1749 2.66839 13.4026 2.8788 12.8729 3.41838C11.8099 4.50065 11.9849 4.39752 10.5323 4.79387C9.80889 4.99126 9.24327 5.56677 9.04953 6.30322C8.66047 7.78183 8.76099 7.60371 7.69799 8.68598C7.16831 9.22503 6.96103 10.011 7.15529 10.7474C7.54435 12.2245 7.54487 12.0182 7.15529 13.4984C6.96155 14.2348 7.16831 15.0208 7.69799 15.5603C8.76099 16.6426 8.65995 16.464 9.04953 17.9431C9.24327 18.6795 9.80889 19.255 10.5323 19.4524C11.6979 19.7701 11.7849 19.7201 12.5521 20.5014C13.2411 21.2029 14.3145 21.3284 15.1426 20.8045C15.4738 20.5943 15.8579 20.4826 16.2502 20.4826C16.6424 20.4826 17.0265 20.5943 17.3577 20.8045C18.1853 21.3284 19.2587 21.2029 19.9477 20.5014ZM11.3365 11.9578C11.3365 9.19587 13.5364 6.95685 16.2499 6.95685C18.9634 6.95685 21.1633 9.19587 21.1633 11.9578C21.1633 14.7197 18.9634 16.9587 16.2499 16.9587C13.5364 16.9587 11.3365 14.7197 11.3365 11.9578Z" fill="#007141"/>
<path d="M19.9478 20.4975C20.7437 19.6876 20.8348 19.7574 21.9681 19.4485C22.6915 19.2511 23.2572 18.6756 23.4509 17.9392C23.8405 16.46 23.7394 16.6387 24.8024 15.5564C25.3321 15.0174 25.5389 14.2314 25.3451 13.495C24.9561 12.0169 24.9556 12.2231 25.3451 10.7435C25.5389 10.007 25.3321 9.22113 24.8024 8.68207C23.7394 7.5998 23.8405 7.77793 23.4509 6.29931C23.2572 5.56287 22.6915 4.98736 21.9681 4.78996C20.5161 4.39362 20.6911 4.49726 19.627 3.41447C19.0973 2.87542 18.325 2.66448 17.6015 2.86188C16.15 3.2577 16.3526 3.25822 14.8985 2.86188C14.175 2.66448 13.4027 2.8749 12.873 3.41447C11.81 4.49674 11.985 4.39362 10.5324 4.78996C9.80898 4.98736 9.24337 5.56287 9.04962 6.29931C8.66057 7.77793 8.76109 7.5998 7.69809 8.68207C7.16841 9.22113 6.96112 10.007 7.15539 10.7435C7.54445 12.2205 7.54497 12.0143 7.15539 13.4945C6.96164 14.2309 7.16841 15.0168 7.69809 15.5564C8.76109 16.6387 8.66005 16.46 9.04962 17.9392C9.24337 18.6756 9.80898 19.2511 10.5324 19.4485C11.698 19.7662 11.785 19.7162 12.5522 20.4975C13.2412 21.199 14.3146 21.3245 15.1427 20.8006C15.4739 20.5904 15.858 20.4787 16.2503 20.4787C16.6425 20.4787 17.0266 20.5904 17.3578 20.8006C18.1854 21.3245 19.2588 21.199 19.9478 20.4975ZM11.3366 11.9539C11.3366 9.19196 13.5365 6.95294 16.25 6.95294C18.9635 6.95294 21.1634 9.19196 21.1634 11.9539C21.1634 14.7158 18.9635 16.9548 16.25 16.9548C13.5365 16.9548 11.3366 14.7158 11.3366 11.9539Z" fill="#E3CE00"/>
</svg>
