<svg width="40" height="40" viewBox="0 0 40 40" fill="none" xmlns="http://www.w3.org/2000/svg">
<path d="M27 9.5C28.933 9.5 30.5 11.067 30.5 13V27C30.5 28.933 28.933 30.5 27 30.5H13C11.067 30.5 9.5 28.933 9.5 27V13C9.5 11.067 11.067 9.5 13 9.5H27ZM24.2334 15.3008C23.8177 15.2473 23.4047 15.4198 23.1504 15.7529L18.7402 21.5869L16.8379 19.1602C16.5815 18.831 16.1691 18.6634 15.7559 18.7207C15.3426 18.7781 14.9909 19.0519 14.834 19.4385C14.6773 19.8249 14.739 20.2656 14.9951 20.5947L17.8418 24.2236C18.0644 24.5052 18.4047 24.6689 18.7637 24.667C19.1245 24.666 19.4644 24.4977 19.6846 24.2119L25.0166 17.2119V17.1768C25.2709 16.8433 25.3277 16.3996 25.166 16.0127C25.0044 15.6259 24.6491 15.3544 24.2334 15.3008Z" fill="#00A15D"/>
</svg>
