<svg width="491" height="94" viewBox="0 0 491 94" fill="none" xmlns="http://www.w3.org/2000/svg">
<g filter="url(#filter0_dd_1632_9190)">
<mask id="path-1-outside-1_1632_9190" maskUnits="userSpaceOnUse" x="45.5" y="11" width="119" height="65" fill="black">
<rect fill="white" x="45.5" y="11" width="119" height="65"/>
<path d="M52.47 20.99H101.53V28.415H52.47V20.99ZM64.955 45.52H88.77V51.625H64.955V45.52ZM63.8 54.155H90.09V60.48H63.8V54.155ZM73.04 48.545H80.575V67.355H73.04V48.545ZM54.01 31.605H93.885V38.92H62.04V69.06H54.01V31.605ZM91.74 31.605H99.99V61.415C99.99 63.2117 99.7333 64.5867 99.22 65.54C98.7433 66.53 97.8817 67.3 96.635 67.85C95.3883 68.4 93.9217 68.73 92.235 68.84C90.585 68.95 88.66 69.005 86.46 69.005C86.2767 68.015 85.9283 66.8783 85.415 65.595C84.9017 64.3117 84.3883 63.23 83.875 62.35C84.645 62.3867 85.47 62.4233 86.35 62.46C87.2667 62.4967 88.11 62.515 88.88 62.515C89.65 62.4783 90.1633 62.46 90.42 62.46C90.9333 62.46 91.2817 62.3867 91.465 62.24C91.6483 62.0567 91.74 61.7633 91.74 61.36V31.605ZM66.66 40.185L73.04 38.37C73.6267 39.2133 74.1767 40.1667 74.69 41.23C75.24 42.2933 75.6617 43.2283 75.955 44.035L69.3 46.235C69.08 45.3917 68.7133 44.4017 68.2 43.265C67.6867 42.1283 67.1733 41.1017 66.66 40.185ZM81.455 38.59L88.165 40.405C87.4317 41.6517 86.7167 42.8433 86.02 43.98C85.36 45.08 84.7367 46.0333 84.15 46.84L78.485 45.19C78.8517 44.5667 79.2183 43.87 79.585 43.1C79.9517 42.33 80.3 41.56 80.63 40.79C80.96 39.9833 81.235 39.25 81.455 38.59ZM72.765 17.525H81.51V36.83H72.765V17.525ZM106.425 38.205H157.685V46.95H106.425V38.205Z"/>
</mask>
<path d="M52.47 20.99H101.53V28.415H52.47V20.99ZM64.955 45.52H88.77V51.625H64.955V45.52ZM63.8 54.155H90.09V60.48H63.8V54.155ZM73.04 48.545H80.575V67.355H73.04V48.545ZM54.01 31.605H93.885V38.92H62.04V69.06H54.01V31.605ZM91.74 31.605H99.99V61.415C99.99 63.2117 99.7333 64.5867 99.22 65.54C98.7433 66.53 97.8817 67.3 96.635 67.85C95.3883 68.4 93.9217 68.73 92.235 68.84C90.585 68.95 88.66 69.005 86.46 69.005C86.2767 68.015 85.9283 66.8783 85.415 65.595C84.9017 64.3117 84.3883 63.23 83.875 62.35C84.645 62.3867 85.47 62.4233 86.35 62.46C87.2667 62.4967 88.11 62.515 88.88 62.515C89.65 62.4783 90.1633 62.46 90.42 62.46C90.9333 62.46 91.2817 62.3867 91.465 62.24C91.6483 62.0567 91.74 61.7633 91.74 61.36V31.605ZM66.66 40.185L73.04 38.37C73.6267 39.2133 74.1767 40.1667 74.69 41.23C75.24 42.2933 75.6617 43.2283 75.955 44.035L69.3 46.235C69.08 45.3917 68.7133 44.4017 68.2 43.265C67.6867 42.1283 67.1733 41.1017 66.66 40.185ZM81.455 38.59L88.165 40.405C87.4317 41.6517 86.7167 42.8433 86.02 43.98C85.36 45.08 84.7367 46.0333 84.15 46.84L78.485 45.19C78.8517 44.5667 79.2183 43.87 79.585 43.1C79.9517 42.33 80.3 41.56 80.63 40.79C80.96 39.9833 81.235 39.25 81.455 38.59ZM72.765 17.525H81.51V36.83H72.765V17.525ZM106.425 38.205H157.685V46.95H106.425V38.205Z" fill="url(#paint0_linear_1632_9190)"/>
<path d="M52.47 20.99V14.99C49.1563 14.99 46.47 17.6763 46.47 20.99H52.47ZM101.53 20.99H107.53C107.53 17.6763 104.844 14.99 101.53 14.99V20.99ZM101.53 28.415V34.415C104.844 34.415 107.53 31.7287 107.53 28.415H101.53ZM52.47 28.415H46.47C46.47 31.7287 49.1563 34.415 52.47 34.415V28.415ZM64.955 45.52V39.52C61.6413 39.52 58.955 42.2063 58.955 45.52H64.955ZM88.77 45.52H94.77C94.77 42.2063 92.0837 39.52 88.77 39.52V45.52ZM88.77 51.625V57.625C92.0837 57.625 94.77 54.9387 94.77 51.625H88.77ZM64.955 51.625H58.955C58.955 54.9387 61.6413 57.625 64.955 57.625V51.625ZM63.8 54.155V48.155C60.4863 48.155 57.8 50.8413 57.8 54.155H63.8ZM90.09 54.155H96.09C96.09 50.8413 93.4037 48.155 90.09 48.155V54.155ZM90.09 60.48V66.48C93.4037 66.48 96.09 63.7937 96.09 60.48H90.09ZM63.8 60.48H57.8C57.8 63.7937 60.4863 66.48 63.8 66.48V60.48ZM73.04 48.545V42.545C69.7263 42.545 67.04 45.2313 67.04 48.545H73.04ZM80.575 48.545H86.575C86.575 45.2313 83.8887 42.545 80.575 42.545V48.545ZM80.575 67.355V73.355C83.8887 73.355 86.575 70.6687 86.575 67.355H80.575ZM73.04 67.355H67.04C67.04 70.6687 69.7263 73.355 73.04 73.355V67.355ZM54.01 31.605V25.605C50.6963 25.605 48.01 28.2913 48.01 31.605H54.01ZM93.885 31.605H99.885C99.885 28.2913 97.1987 25.605 93.885 25.605V31.605ZM93.885 38.92V44.92C97.1987 44.92 99.885 42.2337 99.885 38.92H93.885ZM62.04 38.92V32.92C58.7263 32.92 56.04 35.6063 56.04 38.92H62.04ZM62.04 69.06V75.06C65.3537 75.06 68.04 72.3737 68.04 69.06H62.04ZM54.01 69.06H48.01C48.01 72.3737 50.6963 75.06 54.01 75.06V69.06ZM91.74 31.605V25.605C88.4263 25.605 85.74 28.2913 85.74 31.605H91.74ZM99.99 31.605H105.99C105.99 28.2913 103.304 25.605 99.99 25.605V31.605ZM99.22 65.54L93.9372 62.6954C93.8943 62.775 93.8532 62.8556 93.814 62.9371L99.22 65.54ZM96.635 67.85L99.0568 73.3395L99.0568 73.3395L96.635 67.85ZM92.235 68.84L91.8445 62.8527L91.8359 62.8533L92.235 68.84ZM86.46 69.005L80.5603 70.0975C81.087 72.9415 83.5677 75.005 86.46 75.005V69.005ZM85.415 65.595L90.9859 63.3667L85.415 65.595ZM83.875 62.35L84.1604 56.3568C81.9634 56.2522 79.8852 57.358 78.7447 59.2387C77.6042 61.1194 77.5841 63.4734 78.6923 65.3732L83.875 62.35ZM86.35 62.46L86.1002 68.4548L86.1102 68.4552L86.35 62.46ZM88.88 62.515V68.515C88.9752 68.515 89.0703 68.5127 89.1654 68.5082L88.88 62.515ZM91.465 62.24L95.2132 66.9252C95.386 66.7869 95.5511 66.6392 95.7076 66.4826L91.465 62.24ZM66.66 40.185L65.0182 34.414C63.2529 34.9162 61.8146 36.1987 61.1141 37.8951C60.4137 39.5916 60.5282 41.5153 61.425 43.1166L66.66 40.185ZM73.04 38.37L77.9654 34.9436C76.5018 32.8397 73.8634 31.8977 71.3982 32.599L73.04 38.37ZM74.69 41.23L69.2867 43.8385C69.3107 43.8882 69.3353 43.9375 69.3607 43.9865L74.69 41.23ZM75.955 44.035L77.8382 49.7318C79.3783 49.2227 80.6466 48.1118 81.3541 46.6522C82.0616 45.1927 82.1481 43.5089 81.5938 41.9845L75.955 44.035ZM69.3 46.235L63.4943 47.7495C63.9128 49.3539 64.9766 50.7135 66.4331 51.5057C67.8896 52.298 69.609 52.4522 71.1832 51.9318L69.3 46.235ZM68.2 43.265L62.7318 45.7345L62.7318 45.7345L68.2 43.265ZM81.455 38.59L83.0217 32.7981C79.9524 31.9679 76.7684 33.6762 75.7629 36.6926L81.455 38.59ZM88.165 40.405L93.3366 43.4471C94.2854 41.8341 94.4273 39.8707 93.7203 38.138C93.0132 36.4053 91.5381 35.1018 89.7317 34.6131L88.165 40.405ZM86.02 43.98L80.9044 40.8446C80.8945 40.8607 80.8848 40.8768 80.875 40.893L86.02 43.98ZM84.15 46.84L82.4722 52.6006C84.9017 53.3083 87.5141 52.4155 89.0024 50.369L84.15 46.84ZM78.485 45.19L73.3134 42.1479C72.3748 43.7434 72.2253 45.6829 72.9082 47.4034C73.5911 49.124 75.0299 50.433 76.8071 50.9506L78.485 45.19ZM79.585 43.1L85.0022 45.6796L85.0022 45.6796L79.585 43.1ZM80.63 40.79L86.1449 43.1535C86.1579 43.123 86.1707 43.0925 86.1833 43.0618L80.63 40.79ZM72.765 17.525V11.525C69.4513 11.525 66.765 14.2113 66.765 17.525H72.765ZM81.51 17.525H87.51C87.51 14.2113 84.8237 11.525 81.51 11.525V17.525ZM81.51 36.83V42.83C84.8237 42.83 87.51 40.1437 87.51 36.83H81.51ZM72.765 36.83H66.765C66.765 40.1437 69.4513 42.83 72.765 42.83V36.83ZM52.47 20.99V26.99H101.53V20.99V14.99H52.47V20.99ZM101.53 20.99H95.53V28.415H101.53H107.53V20.99H101.53ZM101.53 28.415V22.415H52.47V28.415V34.415H101.53V28.415ZM52.47 28.415H58.47V20.99H52.47H46.47V28.415H52.47ZM64.955 45.52V51.52H88.77V45.52V39.52H64.955V45.52ZM88.77 45.52H82.77V51.625H88.77H94.77V45.52H88.77ZM88.77 51.625V45.625H64.955V51.625V57.625H88.77V51.625ZM64.955 51.625H70.955V45.52H64.955H58.955V51.625H64.955ZM63.8 54.155V60.155H90.09V54.155V48.155H63.8V54.155ZM90.09 54.155H84.09V60.48H90.09H96.09V54.155H90.09ZM90.09 60.48V54.48H63.8V60.48V66.48H90.09V60.48ZM63.8 60.48H69.8V54.155H63.8H57.8V60.48H63.8ZM73.04 48.545V54.545H80.575V48.545V42.545H73.04V48.545ZM80.575 48.545H74.575V67.355H80.575H86.575V48.545H80.575ZM80.575 67.355V61.355H73.04V67.355V73.355H80.575V67.355ZM73.04 67.355H79.04V48.545H73.04H67.04V67.355H73.04ZM54.01 31.605V37.605H93.885V31.605V25.605H54.01V31.605ZM93.885 31.605H87.885V38.92H93.885H99.885V31.605H93.885ZM93.885 38.92V32.92H62.04V38.92V44.92H93.885V38.92ZM62.04 38.92H56.04V69.06H62.04H68.04V38.92H62.04ZM62.04 69.06V63.06H54.01V69.06V75.06H62.04V69.06ZM54.01 69.06H60.01V31.605H54.01H48.01V69.06H54.01ZM91.74 31.605V37.605H99.99V31.605V25.605H91.74V31.605ZM99.99 31.605H93.99V61.415H99.99H105.99V31.605H99.99ZM99.99 61.415H93.99C93.99 62.0423 93.944 62.4537 93.8994 62.6928C93.8534 62.9388 93.8285 62.8972 93.9372 62.6954L99.22 65.54L104.503 68.3846C105.701 66.1599 105.99 63.6261 105.99 61.415H99.99ZM99.22 65.54L93.814 62.9371C93.9351 62.6856 94.0923 62.4986 94.2183 62.3861C94.3317 62.2847 94.3615 62.2951 94.2132 62.3605L96.635 67.85L99.0568 73.3395C101.285 72.3563 103.392 70.7067 104.626 68.1429L99.22 65.54ZM96.635 67.85L94.2132 62.3605C93.7429 62.568 92.9924 62.7779 91.8445 62.8527L92.235 68.84L92.6255 74.8273C94.8509 74.6821 97.0338 74.232 99.0568 73.3395L96.635 67.85ZM92.235 68.84L91.8359 62.8533C90.3538 62.9521 88.5673 63.005 86.46 63.005V69.005V75.005C88.7527 75.005 90.8162 74.9479 92.6341 74.8267L92.235 68.84ZM86.46 69.005L92.3597 67.9125C92.0834 66.4207 91.5958 64.8916 90.9859 63.3667L85.415 65.595L79.8441 67.8233C80.2608 68.8651 80.4699 69.6093 80.5603 70.0975L86.46 69.005ZM85.415 65.595L90.9859 63.3667C90.3987 61.8988 89.7616 60.5335 89.0577 59.3268L83.875 62.35L78.6923 65.3732C79.0151 65.9265 79.4046 66.7245 79.8441 67.8233L85.415 65.595ZM83.875 62.35L83.5896 68.3432C84.373 68.3805 85.21 68.4177 86.1002 68.4548L86.35 62.46L86.5998 56.4652C85.73 56.429 84.917 56.3928 84.1604 56.3568L83.875 62.35ZM86.35 62.46L86.1102 68.4552C87.0922 68.4945 88.0167 68.515 88.88 68.515V62.515V56.515C88.2033 56.515 87.4412 56.4988 86.5898 56.4648L86.35 62.46ZM88.88 62.515L89.1654 68.5082C89.5371 68.4905 89.8323 68.4779 90.0567 68.4699C90.1685 68.4659 90.256 68.4633 90.3222 68.4617C90.3918 68.4601 90.4206 68.46 90.42 68.46V62.46V56.46C89.9967 56.46 89.3407 56.4863 88.5946 56.5218L88.88 62.515ZM90.42 62.46V68.46C90.9267 68.46 91.5868 68.4269 92.3023 68.2763C92.9625 68.1373 94.1075 67.8098 95.2132 66.9252L91.465 62.24L87.7168 57.5548C88.6392 56.8169 89.5183 56.5994 89.8302 56.5337C90.0275 56.4922 90.1784 56.4753 90.2653 56.4679C90.3545 56.4603 90.4089 56.46 90.42 56.46V62.46ZM91.465 62.24L95.7076 66.4826C97.5058 64.6845 97.74 62.4937 97.74 61.36H91.74H85.74C85.74 61.033 85.7909 59.4289 87.2224 57.9974L91.465 62.24ZM91.74 61.36H97.74V31.605H91.74H85.74V61.36H91.74ZM66.66 40.185L68.3018 45.956L74.6818 44.141L73.04 38.37L71.3982 32.599L65.0182 34.414L66.66 40.185ZM73.04 38.37L68.1146 41.7964C68.4963 42.3451 68.891 43.0188 69.2867 43.8385L74.69 41.23L80.0933 38.6215C79.4624 37.3145 78.757 36.0815 77.9654 34.9436L73.04 38.37ZM74.69 41.23L69.3607 43.9865C69.8348 44.9032 70.1375 45.5939 70.3162 46.0855L75.955 44.035L81.5938 41.9845C81.1858 40.8628 80.6452 39.6835 80.0193 38.4735L74.69 41.23ZM75.955 44.035L74.0718 38.3382L67.4168 40.5382L69.3 46.235L71.1832 51.9318L77.8382 49.7318L75.955 44.035ZM69.3 46.235L75.1057 44.7205C74.7726 43.4435 74.2667 42.1208 73.6682 40.7955L68.2 43.265L62.7318 45.7345C63.1599 46.6826 63.3874 47.3398 63.4943 47.7495L69.3 46.235ZM68.2 43.265L73.6682 40.7955C73.0965 39.5296 72.5065 38.3454 71.895 37.2534L66.66 40.185L61.425 43.1166C61.8401 43.858 62.2768 44.7271 62.7318 45.7345L68.2 43.265ZM81.455 38.59L79.8884 44.3819L86.5984 46.1969L88.165 40.405L89.7317 34.6131L83.0217 32.7981L81.455 38.59ZM88.165 40.405L82.9934 37.3629C82.2769 38.5809 81.5806 39.7413 80.9044 40.8446L86.02 43.98L91.1356 47.1154C91.8527 45.9453 92.5864 44.7224 93.3366 43.4471L88.165 40.405ZM86.02 43.98L80.875 40.893C80.2818 41.8818 79.7558 42.6809 79.2976 43.311L84.15 46.84L89.0024 50.369C89.7175 49.3858 90.4382 48.2782 91.165 47.067L86.02 43.98ZM84.15 46.84L85.8279 41.0794L80.1629 39.4294L78.485 45.19L76.8071 50.9506L82.4722 52.6006L84.15 46.84ZM78.485 45.19L83.6566 48.2321C84.1258 47.4345 84.5733 46.5802 85.0022 45.6796L79.585 43.1L74.1678 40.5204C73.8634 41.1598 73.5775 41.6989 73.3134 42.1479L78.485 45.19ZM79.585 43.1L85.0022 45.6796C85.4022 44.8395 85.7832 43.9975 86.1449 43.1535L80.63 40.79L75.1151 38.4265C74.8168 39.1225 74.5011 39.8205 74.1678 40.5204L79.585 43.1ZM80.63 40.79L86.1833 43.0618C86.5517 42.1611 86.8761 41.3005 87.1471 40.4874L81.455 38.59L75.7629 36.6926C75.5939 37.1995 75.3683 37.8055 75.0767 38.5182L80.63 40.79ZM72.765 17.525V23.525H81.51V17.525V11.525H72.765V17.525ZM81.51 17.525H75.51V36.83H81.51H87.51V17.525H81.51ZM81.51 36.83V30.83H72.765V36.83V42.83H81.51V36.83ZM72.765 36.83H78.765V17.525H72.765H66.765V36.83H72.765ZM106.425 38.205V32.205C103.111 32.205 100.425 34.8913 100.425 38.205H106.425ZM157.685 38.205H163.685C163.685 34.8913 160.999 32.205 157.685 32.205V38.205ZM157.685 46.95V52.95C160.999 52.95 163.685 50.2637 163.685 46.95H157.685ZM106.425 46.95H100.425C100.425 50.2637 103.111 52.95 106.425 52.95V46.95ZM106.425 38.205V44.205H157.685V38.205V32.205H106.425V38.205ZM157.685 38.205H151.685V46.95H157.685H163.685V38.205H157.685ZM157.685 46.95V40.95H106.425V46.95V52.95H157.685V46.95ZM106.425 46.95H112.425V38.205H106.425H100.425V46.95H106.425Z" fill="white" mask="url(#path-1-outside-1_1632_9190)"/>
</g>
<g filter="url(#filter1_dd_1632_9190)">
<mask id="path-3-outside-2_1632_9190" maskUnits="userSpaceOnUse" x="168.5" y="16" width="312" height="67" fill="black">
<rect fill="white" x="168.5" y="16" width="312" height="67"/>
<path d="M175.06 64L187.765 23.025H199.535L212.24 64H201.9L196.785 43.54C196.235 41.4867 195.685 39.305 195.135 36.995C194.622 34.685 194.09 32.485 193.54 30.395H193.32C192.843 32.5217 192.33 34.74 191.78 37.05C191.23 39.3233 190.698 41.4867 190.185 43.54L185.07 64H175.06ZM183.695 54.595V47.005H203.495V54.595H183.695ZM216.539 64V23.025H226.384V64H216.539ZM248.335 64V23.025H274.295V31.22H258.18V38.81H271.875V47.06H258.18V55.75H274.9V64H248.335ZM291.559 64.77C289.542 64.77 287.434 64.3667 285.234 63.56C283.034 62.7533 281.127 61.69 279.514 60.37L283.859 54.265C285.289 55.3283 286.646 56.1533 287.929 56.74C289.249 57.29 290.532 57.565 291.779 57.565C293.062 57.565 293.997 57.345 294.584 56.905C295.171 56.465 295.464 55.86 295.464 55.09C295.464 54.4667 295.171 53.935 294.584 53.495C293.997 53.055 293.227 52.6517 292.274 52.285C291.321 51.8817 290.312 51.4783 289.249 51.075C288.002 50.5617 286.756 49.92 285.509 49.15C284.299 48.38 283.291 47.4083 282.484 46.235C281.677 45.025 281.274 43.5583 281.274 41.835C281.274 39.855 281.769 38.1317 282.759 36.665C283.786 35.1617 285.197 34.0067 286.994 33.2C288.827 32.3567 290.954 31.935 293.374 31.935C295.831 31.935 297.976 32.3567 299.809 33.2C301.642 34.0067 303.219 34.9233 304.539 35.95L300.194 41.78C299.057 40.9733 297.939 40.3317 296.839 39.855C295.776 39.3783 294.731 39.14 293.704 39.14C292.567 39.14 291.724 39.3417 291.174 39.745C290.661 40.1117 290.404 40.6617 290.404 41.395C290.404 42.0183 290.661 42.5317 291.174 42.935C291.724 43.3383 292.457 43.705 293.374 44.035C294.291 44.365 295.281 44.7317 296.344 45.135C297.334 45.5017 298.306 45.9417 299.259 46.455C300.249 46.9317 301.147 47.5367 301.954 48.27C302.761 49.0033 303.402 49.8833 303.879 50.91C304.356 51.9 304.594 53.11 304.594 54.54C304.594 56.4467 304.099 58.1883 303.109 59.765C302.119 61.305 300.652 62.5333 298.709 63.45C296.802 64.33 294.419 64.77 291.559 64.77ZM319.596 64.77C317.579 64.77 315.471 64.3667 313.271 63.56C311.071 62.7533 309.164 61.69 307.551 60.37L311.896 54.265C313.326 55.3283 314.683 56.1533 315.966 56.74C317.286 57.29 318.569 57.565 319.816 57.565C321.099 57.565 322.034 57.345 322.621 56.905C323.208 56.465 323.501 55.86 323.501 55.09C323.501 54.4667 323.208 53.935 322.621 53.495C322.034 53.055 321.264 52.6517 320.311 52.285C319.358 51.8817 318.349 51.4783 317.286 51.075C316.039 50.5617 314.793 49.92 313.546 49.15C312.336 48.38 311.328 47.4083 310.521 46.235C309.714 45.025 309.311 43.5583 309.311 41.835C309.311 39.855 309.806 38.1317 310.796 36.665C311.823 35.1617 313.234 34.0067 315.031 33.2C316.864 32.3567 318.991 31.935 321.411 31.935C323.868 31.935 326.013 32.3567 327.846 33.2C329.679 34.0067 331.256 34.9233 332.576 35.95L328.231 41.78C327.094 40.9733 325.976 40.3317 324.876 39.855C323.813 39.3783 322.768 39.14 321.741 39.14C320.604 39.14 319.761 39.3417 319.211 39.745C318.698 40.1117 318.441 40.6617 318.441 41.395C318.441 42.0183 318.698 42.5317 319.211 42.935C319.761 43.3383 320.494 43.705 321.411 44.035C322.328 44.365 323.318 44.7317 324.381 45.135C325.371 45.5017 326.343 45.9417 327.296 46.455C328.286 46.9317 329.184 47.5367 329.991 48.27C330.798 49.0033 331.439 49.8833 331.916 50.91C332.393 51.9 332.631 53.11 332.631 54.54C332.631 56.4467 332.136 58.1883 331.146 59.765C330.156 61.305 328.689 62.5333 326.746 63.45C324.839 64.33 322.456 64.77 319.596 64.77ZM346.203 64.77C344.297 64.77 342.647 64.3483 341.253 63.505C339.86 62.625 338.778 61.47 338.008 60.04C337.275 58.5733 336.908 56.9783 336.908 55.255C336.908 51.955 338.283 49.3883 341.033 47.555C343.783 45.685 348.202 44.42 354.288 43.76C354.215 42.9167 354.013 42.2017 353.683 41.615C353.353 40.9917 352.84 40.5333 352.143 40.24C351.483 39.91 350.622 39.745 349.558 39.745C348.312 39.745 347.028 39.9833 345.708 40.46C344.388 40.9367 342.94 41.615 341.363 42.495L337.953 36.06C339.347 35.2167 340.758 34.5017 342.188 33.915C343.655 33.2917 345.158 32.815 346.698 32.485C348.238 32.1183 349.815 31.935 351.428 31.935C354.142 31.935 356.433 32.4483 358.303 33.475C360.173 34.5017 361.603 36.0783 362.593 38.205C363.583 40.295 364.078 42.9717 364.078 46.235V64H356.103L355.443 60.865H355.168C353.885 62.0017 352.492 62.9367 350.988 63.67C349.522 64.4033 347.927 64.77 346.203 64.77ZM349.558 57.18C350.548 57.18 351.41 56.96 352.143 56.52C352.877 56.08 353.592 55.475 354.288 54.705V49.7C352.272 49.9567 350.658 50.3233 349.448 50.8C348.275 51.2767 347.432 51.8267 346.918 52.45C346.442 53.0733 346.203 53.7517 346.203 54.485C346.203 55.4017 346.497 56.08 347.083 56.52C347.707 56.96 348.532 57.18 349.558 57.18ZM375.543 76.045C374.516 76.045 373.654 75.99 372.958 75.88C372.261 75.77 371.583 75.6233 370.923 75.44L372.683 68.015C372.976 68.0517 373.306 68.125 373.673 68.235C374.039 68.345 374.406 68.4 374.773 68.4C376.276 68.4 377.431 68.0517 378.238 67.355C379.044 66.6583 379.631 65.76 379.998 64.66L380.438 63.065L368.448 32.705H378.293L382.473 45.685C382.949 47.115 383.371 48.5633 383.738 50.03C384.104 51.4967 384.489 53 384.893 54.54H385.168C385.461 53.0367 385.773 51.5517 386.103 50.085C386.469 48.6183 386.836 47.1517 387.203 45.685L390.833 32.705H400.183L389.403 64.055C388.413 66.7317 387.313 68.95 386.103 70.71C384.893 72.5067 383.444 73.845 381.758 74.725C380.108 75.605 378.036 76.045 375.543 76.045ZM424.026 64.77C420.249 64.77 416.821 63.9817 413.741 62.405C410.698 60.8283 408.259 58.4817 406.426 55.365C404.629 52.2483 403.731 48.38 403.731 43.76C403.731 40.35 404.263 37.325 405.326 34.685C406.389 32.0083 407.838 29.7533 409.671 27.92C411.541 26.0867 413.686 24.6933 416.106 23.74C418.526 22.7867 421.111 22.31 423.861 22.31C426.868 22.31 429.453 22.86 431.616 23.96C433.779 25.0233 435.558 26.2517 436.951 27.645L431.781 33.915C430.754 32.9983 429.654 32.2467 428.481 31.66C427.344 31.0367 425.914 30.725 424.191 30.725C422.174 30.725 420.378 31.2383 418.801 32.265C417.261 33.255 416.033 34.7033 415.116 36.61C414.236 38.48 413.796 40.7533 413.796 43.43C413.796 46.1433 414.199 48.4717 415.006 50.415C415.849 52.3217 417.096 53.7883 418.746 54.815C420.433 55.805 422.541 56.3 425.071 56.3C425.804 56.3 426.519 56.2083 427.216 56.025C427.913 55.8417 428.481 55.585 428.921 55.255V48.655H422.431V40.625H437.666V59.765C436.236 61.1217 434.311 62.295 431.891 63.285C429.508 64.275 426.886 64.77 424.026 64.77ZM458.753 64.77C456.113 64.77 453.62 64.1283 451.273 62.845C448.926 61.525 447.02 59.6367 445.553 57.18C444.123 54.7233 443.408 51.7717 443.408 48.325C443.408 44.8783 444.123 41.945 445.553 39.525C447.02 37.0683 448.926 35.1983 451.273 33.915C453.62 32.595 456.113 31.935 458.753 31.935C460.733 31.935 462.64 32.3017 464.473 33.035C466.306 33.7683 467.938 34.85 469.368 36.28C470.798 37.6733 471.935 39.3783 472.778 41.395C473.621 43.4117 474.043 45.7217 474.043 48.325C474.043 51.7717 473.31 54.7233 471.843 57.18C470.413 59.6367 468.525 61.525 466.178 62.845C463.868 64.1283 461.393 64.77 458.753 64.77ZM458.753 56.85C459.963 56.85 460.953 56.5017 461.723 55.805C462.53 55.1083 463.116 54.1183 463.483 52.835C463.85 51.5517 464.033 50.0483 464.033 48.325C464.033 46.6017 463.85 45.1167 463.483 43.87C463.116 42.5867 462.53 41.5967 461.723 40.9C460.953 40.2033 459.963 39.855 458.753 39.855C457.543 39.855 456.535 40.2033 455.728 40.9C454.958 41.5967 454.371 42.5867 453.968 43.87C453.601 45.1167 453.418 46.6017 453.418 48.325C453.418 50.0483 453.601 51.5517 453.968 52.835C454.371 54.1183 454.958 55.1083 455.728 55.805C456.535 56.5017 457.543 56.85 458.753 56.85Z"/>
</mask>
<path d="M175.06 64L187.765 23.025H199.535L212.24 64H201.9L196.785 43.54C196.235 41.4867 195.685 39.305 195.135 36.995C194.622 34.685 194.09 32.485 193.54 30.395H193.32C192.843 32.5217 192.33 34.74 191.78 37.05C191.23 39.3233 190.698 41.4867 190.185 43.54L185.07 64H175.06ZM183.695 54.595V47.005H203.495V54.595H183.695ZM216.539 64V23.025H226.384V64H216.539ZM248.335 64V23.025H274.295V31.22H258.18V38.81H271.875V47.06H258.18V55.75H274.9V64H248.335ZM291.559 64.77C289.542 64.77 287.434 64.3667 285.234 63.56C283.034 62.7533 281.127 61.69 279.514 60.37L283.859 54.265C285.289 55.3283 286.646 56.1533 287.929 56.74C289.249 57.29 290.532 57.565 291.779 57.565C293.062 57.565 293.997 57.345 294.584 56.905C295.171 56.465 295.464 55.86 295.464 55.09C295.464 54.4667 295.171 53.935 294.584 53.495C293.997 53.055 293.227 52.6517 292.274 52.285C291.321 51.8817 290.312 51.4783 289.249 51.075C288.002 50.5617 286.756 49.92 285.509 49.15C284.299 48.38 283.291 47.4083 282.484 46.235C281.677 45.025 281.274 43.5583 281.274 41.835C281.274 39.855 281.769 38.1317 282.759 36.665C283.786 35.1617 285.197 34.0067 286.994 33.2C288.827 32.3567 290.954 31.935 293.374 31.935C295.831 31.935 297.976 32.3567 299.809 33.2C301.642 34.0067 303.219 34.9233 304.539 35.95L300.194 41.78C299.057 40.9733 297.939 40.3317 296.839 39.855C295.776 39.3783 294.731 39.14 293.704 39.14C292.567 39.14 291.724 39.3417 291.174 39.745C290.661 40.1117 290.404 40.6617 290.404 41.395C290.404 42.0183 290.661 42.5317 291.174 42.935C291.724 43.3383 292.457 43.705 293.374 44.035C294.291 44.365 295.281 44.7317 296.344 45.135C297.334 45.5017 298.306 45.9417 299.259 46.455C300.249 46.9317 301.147 47.5367 301.954 48.27C302.761 49.0033 303.402 49.8833 303.879 50.91C304.356 51.9 304.594 53.11 304.594 54.54C304.594 56.4467 304.099 58.1883 303.109 59.765C302.119 61.305 300.652 62.5333 298.709 63.45C296.802 64.33 294.419 64.77 291.559 64.77ZM319.596 64.77C317.579 64.77 315.471 64.3667 313.271 63.56C311.071 62.7533 309.164 61.69 307.551 60.37L311.896 54.265C313.326 55.3283 314.683 56.1533 315.966 56.74C317.286 57.29 318.569 57.565 319.816 57.565C321.099 57.565 322.034 57.345 322.621 56.905C323.208 56.465 323.501 55.86 323.501 55.09C323.501 54.4667 323.208 53.935 322.621 53.495C322.034 53.055 321.264 52.6517 320.311 52.285C319.358 51.8817 318.349 51.4783 317.286 51.075C316.039 50.5617 314.793 49.92 313.546 49.15C312.336 48.38 311.328 47.4083 310.521 46.235C309.714 45.025 309.311 43.5583 309.311 41.835C309.311 39.855 309.806 38.1317 310.796 36.665C311.823 35.1617 313.234 34.0067 315.031 33.2C316.864 32.3567 318.991 31.935 321.411 31.935C323.868 31.935 326.013 32.3567 327.846 33.2C329.679 34.0067 331.256 34.9233 332.576 35.95L328.231 41.78C327.094 40.9733 325.976 40.3317 324.876 39.855C323.813 39.3783 322.768 39.14 321.741 39.14C320.604 39.14 319.761 39.3417 319.211 39.745C318.698 40.1117 318.441 40.6617 318.441 41.395C318.441 42.0183 318.698 42.5317 319.211 42.935C319.761 43.3383 320.494 43.705 321.411 44.035C322.328 44.365 323.318 44.7317 324.381 45.135C325.371 45.5017 326.343 45.9417 327.296 46.455C328.286 46.9317 329.184 47.5367 329.991 48.27C330.798 49.0033 331.439 49.8833 331.916 50.91C332.393 51.9 332.631 53.11 332.631 54.54C332.631 56.4467 332.136 58.1883 331.146 59.765C330.156 61.305 328.689 62.5333 326.746 63.45C324.839 64.33 322.456 64.77 319.596 64.77ZM346.203 64.77C344.297 64.77 342.647 64.3483 341.253 63.505C339.86 62.625 338.778 61.47 338.008 60.04C337.275 58.5733 336.908 56.9783 336.908 55.255C336.908 51.955 338.283 49.3883 341.033 47.555C343.783 45.685 348.202 44.42 354.288 43.76C354.215 42.9167 354.013 42.2017 353.683 41.615C353.353 40.9917 352.84 40.5333 352.143 40.24C351.483 39.91 350.622 39.745 349.558 39.745C348.312 39.745 347.028 39.9833 345.708 40.46C344.388 40.9367 342.94 41.615 341.363 42.495L337.953 36.06C339.347 35.2167 340.758 34.5017 342.188 33.915C343.655 33.2917 345.158 32.815 346.698 32.485C348.238 32.1183 349.815 31.935 351.428 31.935C354.142 31.935 356.433 32.4483 358.303 33.475C360.173 34.5017 361.603 36.0783 362.593 38.205C363.583 40.295 364.078 42.9717 364.078 46.235V64H356.103L355.443 60.865H355.168C353.885 62.0017 352.492 62.9367 350.988 63.67C349.522 64.4033 347.927 64.77 346.203 64.77ZM349.558 57.18C350.548 57.18 351.41 56.96 352.143 56.52C352.877 56.08 353.592 55.475 354.288 54.705V49.7C352.272 49.9567 350.658 50.3233 349.448 50.8C348.275 51.2767 347.432 51.8267 346.918 52.45C346.442 53.0733 346.203 53.7517 346.203 54.485C346.203 55.4017 346.497 56.08 347.083 56.52C347.707 56.96 348.532 57.18 349.558 57.18ZM375.543 76.045C374.516 76.045 373.654 75.99 372.958 75.88C372.261 75.77 371.583 75.6233 370.923 75.44L372.683 68.015C372.976 68.0517 373.306 68.125 373.673 68.235C374.039 68.345 374.406 68.4 374.773 68.4C376.276 68.4 377.431 68.0517 378.238 67.355C379.044 66.6583 379.631 65.76 379.998 64.66L380.438 63.065L368.448 32.705H378.293L382.473 45.685C382.949 47.115 383.371 48.5633 383.738 50.03C384.104 51.4967 384.489 53 384.893 54.54H385.168C385.461 53.0367 385.773 51.5517 386.103 50.085C386.469 48.6183 386.836 47.1517 387.203 45.685L390.833 32.705H400.183L389.403 64.055C388.413 66.7317 387.313 68.95 386.103 70.71C384.893 72.5067 383.444 73.845 381.758 74.725C380.108 75.605 378.036 76.045 375.543 76.045ZM424.026 64.77C420.249 64.77 416.821 63.9817 413.741 62.405C410.698 60.8283 408.259 58.4817 406.426 55.365C404.629 52.2483 403.731 48.38 403.731 43.76C403.731 40.35 404.263 37.325 405.326 34.685C406.389 32.0083 407.838 29.7533 409.671 27.92C411.541 26.0867 413.686 24.6933 416.106 23.74C418.526 22.7867 421.111 22.31 423.861 22.31C426.868 22.31 429.453 22.86 431.616 23.96C433.779 25.0233 435.558 26.2517 436.951 27.645L431.781 33.915C430.754 32.9983 429.654 32.2467 428.481 31.66C427.344 31.0367 425.914 30.725 424.191 30.725C422.174 30.725 420.378 31.2383 418.801 32.265C417.261 33.255 416.033 34.7033 415.116 36.61C414.236 38.48 413.796 40.7533 413.796 43.43C413.796 46.1433 414.199 48.4717 415.006 50.415C415.849 52.3217 417.096 53.7883 418.746 54.815C420.433 55.805 422.541 56.3 425.071 56.3C425.804 56.3 426.519 56.2083 427.216 56.025C427.913 55.8417 428.481 55.585 428.921 55.255V48.655H422.431V40.625H437.666V59.765C436.236 61.1217 434.311 62.295 431.891 63.285C429.508 64.275 426.886 64.77 424.026 64.77ZM458.753 64.77C456.113 64.77 453.62 64.1283 451.273 62.845C448.926 61.525 447.02 59.6367 445.553 57.18C444.123 54.7233 443.408 51.7717 443.408 48.325C443.408 44.8783 444.123 41.945 445.553 39.525C447.02 37.0683 448.926 35.1983 451.273 33.915C453.62 32.595 456.113 31.935 458.753 31.935C460.733 31.935 462.64 32.3017 464.473 33.035C466.306 33.7683 467.938 34.85 469.368 36.28C470.798 37.6733 471.935 39.3783 472.778 41.395C473.621 43.4117 474.043 45.7217 474.043 48.325C474.043 51.7717 473.31 54.7233 471.843 57.18C470.413 59.6367 468.525 61.525 466.178 62.845C463.868 64.1283 461.393 64.77 458.753 64.77ZM458.753 56.85C459.963 56.85 460.953 56.5017 461.723 55.805C462.53 55.1083 463.116 54.1183 463.483 52.835C463.85 51.5517 464.033 50.0483 464.033 48.325C464.033 46.6017 463.85 45.1167 463.483 43.87C463.116 42.5867 462.53 41.5967 461.723 40.9C460.953 40.2033 459.963 39.855 458.753 39.855C457.543 39.855 456.535 40.2033 455.728 40.9C454.958 41.5967 454.371 42.5867 453.968 43.87C453.601 45.1167 453.418 46.6017 453.418 48.325C453.418 50.0483 453.601 51.5517 453.968 52.835C454.371 54.1183 454.958 55.1083 455.728 55.805C456.535 56.5017 457.543 56.85 458.753 56.85Z" fill="url(#paint1_linear_1632_9190)"/>
<path d="M175.06 64L169.329 62.2231C168.765 64.0439 169.099 66.0247 170.23 67.5594C171.361 69.0941 173.154 70 175.06 70V64ZM187.765 23.025V17.025C185.136 17.025 182.813 18.7368 182.034 21.2481L187.765 23.025ZM199.535 23.025L205.266 21.2481C204.487 18.7368 202.164 17.025 199.535 17.025V23.025ZM212.24 64V70C214.146 70 215.939 69.0941 217.07 67.5594C218.201 66.0247 218.535 64.0439 217.971 62.2231L212.24 64ZM201.9 64L196.079 65.4552C196.747 68.1262 199.147 70 201.9 70V64ZM196.785 43.54L202.606 42.0848C202.598 42.0523 202.589 42.0199 202.581 41.9876L196.785 43.54ZM195.135 36.995L189.278 38.2966C189.284 38.326 189.291 38.3554 189.298 38.3847L195.135 36.995ZM193.54 30.395L199.342 28.868C198.649 26.2322 196.266 24.395 193.54 24.395V30.395ZM193.32 30.395V24.395C190.512 24.395 188.079 26.3426 187.465 29.0827L193.32 30.395ZM191.78 37.05L197.612 38.4609C197.613 38.4538 197.615 38.4468 197.617 38.4397L191.78 37.05ZM190.185 43.54L196.006 44.9952L196.006 44.9952L190.185 43.54ZM185.07 64V70C187.823 70 190.223 68.1262 190.891 65.4552L185.07 64ZM183.695 54.595H177.695C177.695 57.9087 180.381 60.595 183.695 60.595V54.595ZM183.695 47.005V41.005C180.381 41.005 177.695 43.6913 177.695 47.005H183.695ZM203.495 47.005H209.495C209.495 43.6913 206.809 41.005 203.495 41.005V47.005ZM203.495 54.595V60.595C206.809 60.595 209.495 57.9087 209.495 54.595H203.495ZM175.06 64L180.791 65.7769L193.496 24.8019L187.765 23.025L182.034 21.2481L169.329 62.2231L175.06 64ZM187.765 23.025V29.025H199.535V23.025V17.025H187.765V23.025ZM199.535 23.025L193.804 24.8019L206.509 65.7769L212.24 64L217.971 62.2231L205.266 21.2481L199.535 23.025ZM212.24 64V58H201.9V64V70H212.24V64ZM201.9 64L207.721 62.5448L202.606 42.0848L196.785 43.54L190.964 44.9952L196.079 65.4552L201.9 64ZM196.785 43.54L202.581 41.9876C202.047 39.9941 201.51 37.867 200.972 35.6053L195.135 36.995L189.298 38.3847C189.86 40.743 190.423 42.9792 190.989 45.0924L196.785 43.54ZM195.135 36.995L200.992 35.6934C200.464 33.3149 199.914 31.0394 199.342 28.868L193.54 30.395L187.738 31.922C188.266 33.9306 188.78 36.0551 189.278 38.2966L195.135 36.995ZM193.54 30.395V24.395H193.32V30.395V36.395H193.54V30.395ZM193.32 30.395L187.465 29.0827C186.995 31.1814 186.488 33.3738 185.943 35.6603L191.78 37.05L197.617 38.4397C198.172 36.1062 198.692 33.862 199.175 31.7073L193.32 30.395ZM191.78 37.05L185.948 35.6391C185.401 37.8992 184.873 40.0476 184.364 42.0848L190.185 43.54L196.006 44.9952C196.523 42.9257 197.059 40.7475 197.612 38.4609L191.78 37.05ZM190.185 43.54L184.364 42.0848L179.249 62.5448L185.07 64L190.891 65.4552L196.006 44.9952L190.185 43.54ZM185.07 64V58H175.06V64V70H185.07V64ZM183.695 54.595H189.695V47.005H183.695H177.695V54.595H183.695ZM183.695 47.005V53.005H203.495V47.005V41.005H183.695V47.005ZM203.495 47.005H197.495V54.595H203.495H209.495V47.005H203.495ZM203.495 54.595V48.595H183.695V54.595V60.595H203.495V54.595ZM216.539 64H210.539C210.539 67.3137 213.225 70 216.539 70V64ZM216.539 23.025V17.025C213.225 17.025 210.539 19.7113 210.539 23.025H216.539ZM226.384 23.025H232.384C232.384 19.7113 229.697 17.025 226.384 17.025V23.025ZM226.384 64V70C229.697 70 232.384 67.3137 232.384 64H226.384ZM216.539 64H222.539V23.025H216.539H210.539V64H216.539ZM216.539 23.025V29.025H226.384V23.025V17.025H216.539V23.025ZM226.384 23.025H220.384V64H226.384H232.384V23.025H226.384ZM226.384 64V58H216.539V64V70H226.384V64ZM248.335 64H242.335C242.335 67.3137 245.022 70 248.335 70V64ZM248.335 23.025V17.025C245.022 17.025 242.335 19.7113 242.335 23.025H248.335ZM274.295 23.025H280.295C280.295 19.7113 277.609 17.025 274.295 17.025V23.025ZM274.295 31.22V37.22C277.609 37.22 280.295 34.5337 280.295 31.22H274.295ZM258.18 31.22V25.22C254.867 25.22 252.18 27.9063 252.18 31.22H258.18ZM258.18 38.81H252.18C252.18 42.1237 254.867 44.81 258.18 44.81V38.81ZM271.875 38.81H277.875C277.875 35.4963 275.189 32.81 271.875 32.81V38.81ZM271.875 47.06V53.06C275.189 53.06 277.875 50.3737 277.875 47.06H271.875ZM258.18 47.06V41.06C254.867 41.06 252.18 43.7463 252.18 47.06H258.18ZM258.18 55.75H252.18C252.18 59.0637 254.867 61.75 258.18 61.75V55.75ZM274.9 55.75H280.9C280.9 52.4363 278.214 49.75 274.9 49.75V55.75ZM274.9 64V70C278.214 70 280.9 67.3137 280.9 64H274.9ZM248.335 64H254.335V23.025H248.335H242.335V64H248.335ZM248.335 23.025V29.025H274.295V23.025V17.025H248.335V23.025ZM274.295 23.025H268.295V31.22H274.295H280.295V23.025H274.295ZM274.295 31.22V25.22H258.18V31.22V37.22H274.295V31.22ZM258.18 31.22H252.18V38.81H258.18H264.18V31.22H258.18ZM258.18 38.81V44.81H271.875V38.81V32.81H258.18V38.81ZM271.875 38.81H265.875V47.06H271.875H277.875V38.81H271.875ZM271.875 47.06V41.06H258.18V47.06V53.06H271.875V47.06ZM258.18 47.06H252.18V55.75H258.18H264.18V47.06H258.18ZM258.18 55.75V61.75H274.9V55.75V49.75H258.18V55.75ZM274.9 55.75H268.9V64H274.9H280.9V55.75H274.9ZM274.9 64V58H248.335V64V70H274.9V64ZM279.514 60.37L274.626 56.8909C272.795 59.4633 273.271 63.0144 275.715 65.0137L279.514 60.37ZM283.859 54.265L287.439 49.4502C286.145 48.4878 284.518 48.087 282.924 48.3383C281.331 48.5896 279.906 49.4718 278.971 50.7859L283.859 54.265ZM287.929 56.74L285.434 62.1968C285.496 62.2251 285.559 62.2523 285.621 62.2785L287.929 56.74ZM294.584 56.905L290.984 52.105L290.984 52.105L294.584 56.905ZM294.584 53.495L298.184 48.695L298.184 48.695L294.584 53.495ZM292.274 52.285L289.936 57.8108C289.997 57.8366 290.058 57.8613 290.12 57.8851L292.274 52.285ZM289.249 51.075L286.965 56.6231C287.016 56.6444 287.069 56.6651 287.121 56.685L289.249 51.075ZM285.509 49.15L282.288 54.212C282.31 54.2264 282.333 54.2407 282.356 54.2548L285.509 49.15ZM282.484 46.235L277.492 49.5632C277.508 49.587 277.524 49.6106 277.54 49.6342L282.484 46.235ZM282.759 36.665L277.804 33.2812C277.798 33.2902 277.792 33.2992 277.786 33.3082L282.759 36.665ZM286.994 33.2L289.452 38.6736C289.468 38.6661 289.485 38.6586 289.501 38.6509L286.994 33.2ZM299.809 33.2L297.302 38.6509C297.332 38.6648 297.362 38.6785 297.393 38.6919L299.809 33.2ZM304.539 35.95L309.35 39.5355C311.301 36.917 310.8 33.2188 308.223 31.2139L304.539 35.95ZM300.194 41.78L296.722 46.673C299.38 48.5593 303.057 47.9788 305.005 45.3655L300.194 41.78ZM296.839 39.855L294.385 45.3301C294.408 45.3403 294.43 45.3504 294.453 45.3603L296.839 39.855ZM291.174 39.745L294.661 44.6274C294.682 44.6129 294.702 44.5982 294.722 44.5834L291.174 39.745ZM291.174 42.935L287.467 47.6529C287.519 47.694 287.572 47.7341 287.626 47.7734L291.174 42.935ZM296.344 45.135L294.216 50.745C294.231 50.7505 294.245 50.756 294.26 50.7615L296.344 45.135ZM299.259 46.455L296.414 51.7378C296.494 51.7807 296.575 51.8218 296.656 51.861L299.259 46.455ZM301.954 48.27L305.99 43.8304L305.99 43.8304L301.954 48.27ZM303.879 50.91L298.437 53.4367C298.449 53.4622 298.461 53.4876 298.473 53.5129L303.879 50.91ZM303.109 59.765L308.156 63.0095C308.168 62.9916 308.179 62.9736 308.19 62.9556L303.109 59.765ZM298.709 63.45L301.223 68.8978C301.239 68.8908 301.254 68.8837 301.269 68.8766L298.709 63.45ZM291.559 64.77V58.77C290.351 58.77 288.943 58.5294 287.3 57.9267L285.234 63.56L283.168 69.1933C285.925 70.2039 288.734 70.77 291.559 70.77V64.77ZM285.234 63.56L287.3 57.9267C285.651 57.3224 284.348 56.5727 283.313 55.7263L279.514 60.37L275.715 65.0137C277.907 66.8073 280.417 68.1842 283.168 69.1933L285.234 63.56ZM279.514 60.37L284.402 63.8491L288.747 57.7441L283.859 54.265L278.971 50.7859L274.626 56.8909L279.514 60.37ZM283.859 54.265L280.279 59.0798C281.963 60.3323 283.683 61.3962 285.434 62.1968L287.929 56.74L290.424 51.2832C289.608 50.9105 288.615 50.3243 287.439 49.4502L283.859 54.265ZM287.929 56.74L285.621 62.2785C287.566 63.0887 289.632 63.565 291.779 63.565V57.565V51.565C291.432 51.565 290.932 51.4913 290.237 51.2015L287.929 56.74ZM291.779 57.565V63.565C293.493 63.565 296.031 63.3197 298.184 61.705L294.584 56.905L290.984 52.105C291.524 51.7 291.968 51.5831 292.069 51.5595C292.173 51.5349 292.102 51.565 291.779 51.565V57.565ZM294.584 56.905L298.184 61.705C300.368 60.0672 301.464 57.6381 301.464 55.09H295.464H289.464C289.464 54.7001 289.542 54.1279 289.845 53.5036C290.153 52.8695 290.583 52.4056 290.984 52.105L294.584 56.905ZM295.464 55.09H301.464C301.464 52.2305 299.98 50.0419 298.184 48.695L294.584 53.495L290.984 58.295C290.736 58.1092 290.33 57.738 289.991 57.1222C289.634 56.4762 289.464 55.764 289.464 55.09H295.464ZM294.584 53.495L298.184 48.695C297.019 47.8214 295.712 47.1787 294.428 46.6849L292.274 52.285L290.12 57.8851C290.418 57.9995 290.634 58.0995 290.782 58.1775C290.933 58.2562 290.99 58.2998 290.984 58.295L294.584 53.495ZM292.274 52.285L294.612 46.7592C293.583 46.3238 292.504 45.8925 291.377 45.465L289.249 51.075L287.121 56.685C288.121 57.0642 289.059 57.4395 289.936 57.8108L292.274 52.285ZM289.249 51.075L291.534 45.5269C290.613 45.1477 289.655 44.6587 288.662 44.0452L285.509 49.15L282.356 54.2548C283.856 55.1813 285.392 55.9756 286.965 56.6231L289.249 51.075ZM285.509 49.15L288.73 44.088C288.195 43.7477 287.775 43.3398 287.428 42.8358L282.484 46.235L277.54 49.6342C278.807 51.4769 280.403 53.0123 282.288 54.212L285.509 49.15ZM282.484 46.235L287.476 42.9068C287.441 42.8531 287.274 42.5971 287.274 41.835H281.274H275.274C275.274 44.5196 275.914 47.1969 277.492 49.5632L282.484 46.235ZM281.274 41.835H287.274C287.274 40.9036 287.49 40.3812 287.732 40.0218L282.759 36.665L277.786 33.3082C276.049 35.8821 275.274 38.8064 275.274 41.835H281.274ZM282.759 36.665L287.714 40.0488C288.066 39.5335 288.578 39.0657 289.452 38.6736L286.994 33.2L284.536 27.7264C281.816 28.9477 279.506 30.7898 277.804 33.2812L282.759 36.665ZM286.994 33.2L289.501 38.6509C290.408 38.2342 291.65 37.935 293.374 37.935V31.935V25.935C290.258 25.935 287.247 26.4792 284.487 27.7491L286.994 33.2ZM293.374 31.935V37.935C295.149 37.935 296.407 38.2392 297.302 38.6509L299.809 33.2L302.316 27.7491C299.545 26.4741 296.512 25.935 293.374 25.935V31.935ZM299.809 33.2L297.393 38.6919C298.86 39.3375 299.993 40.0152 300.855 40.6861L304.539 35.95L308.223 31.2139C306.445 29.8314 304.425 28.6758 302.225 27.7081L299.809 33.2ZM304.539 35.95L299.728 32.3645L295.383 38.1945L300.194 41.78L305.005 45.3655L309.35 39.5355L304.539 35.95ZM300.194 41.78L303.667 36.887C302.243 35.877 300.763 35.0163 299.225 34.3497L296.839 39.855L294.453 45.3603C295.115 45.647 295.871 46.0697 296.722 46.673L300.194 41.78ZM296.839 39.855L299.293 34.3799C297.562 33.6039 295.684 33.14 293.704 33.14V39.14V45.14C293.778 45.14 293.989 45.1527 294.385 45.3301L296.839 39.855ZM293.704 39.14V33.14C292.063 33.14 289.69 33.3932 287.626 34.9066L291.174 39.745L294.722 44.5834C294.204 44.9634 293.767 45.0903 293.614 45.1267C293.463 45.1629 293.469 45.14 293.704 45.14V39.14ZM291.174 39.745L287.687 34.8626C285.324 36.55 284.404 39.0846 284.404 41.395H290.404H296.404C296.404 41.7256 296.345 42.3023 296.034 42.9698C295.707 43.669 295.211 44.2346 294.661 44.6274L291.174 39.745ZM290.404 41.395H284.404C284.404 43.9583 285.585 46.1745 287.467 47.6529L291.174 42.935L294.881 38.2171C295.225 38.4874 295.644 38.9261 295.963 39.5642C296.286 40.2108 296.404 40.8569 296.404 41.395H290.404ZM291.174 42.935L287.626 47.7734C288.791 48.6282 290.095 49.2314 291.342 49.6803L293.374 44.035L295.406 38.3897C295.13 38.2903 294.94 38.2062 294.82 38.1459C294.697 38.0847 294.676 38.0629 294.722 38.0966L291.174 42.935ZM293.374 44.035L291.342 49.6803C292.222 49.9971 293.179 50.3518 294.216 50.745L296.344 45.135L298.472 39.525C297.382 39.1116 296.36 38.7329 295.406 38.3897L293.374 44.035ZM296.344 45.135L294.26 50.7615C294.982 51.029 295.7 51.3532 296.414 51.7378L299.259 46.455L302.104 41.1722C300.911 40.5301 299.686 39.9744 298.428 39.5085L296.344 45.135ZM299.259 46.455L296.656 51.861C297.128 52.0884 297.543 52.369 297.918 52.7096L301.954 48.27L305.99 43.8304C304.751 42.7043 303.37 41.7749 301.862 41.049L299.259 46.455ZM301.954 48.27L297.918 52.7096C298.111 52.8847 298.284 53.1066 298.437 53.4367L303.879 50.91L309.321 48.3833C308.521 46.6601 307.411 45.122 305.99 43.8304L301.954 48.27ZM303.879 50.91L298.473 53.5129C298.459 53.4845 298.594 53.75 298.594 54.54H304.594H310.594C310.594 52.47 310.252 50.3155 309.285 48.3071L303.879 50.91ZM304.594 54.54H298.594C298.594 55.3467 298.402 55.9777 298.028 56.5744L303.109 59.765L308.19 62.9556C309.796 60.3989 310.594 57.5467 310.594 54.54H304.594ZM303.109 59.765L298.062 56.5205C297.779 56.9604 297.255 57.502 296.149 58.0234L298.709 63.45L301.269 68.8766C304.05 67.5647 306.459 65.6496 308.156 63.0095L303.109 59.765ZM298.709 63.45L296.195 58.0022C295.307 58.4118 293.847 58.77 291.559 58.77V64.77V70.77C294.991 70.77 298.297 70.2482 301.223 68.8978L298.709 63.45ZM307.551 60.37L302.663 56.8909C300.832 59.4633 301.308 63.0144 303.752 65.0137L307.551 60.37ZM311.896 54.265L315.476 49.4502C314.182 48.4878 312.555 48.087 310.961 48.3383C309.368 48.5896 307.943 49.4718 307.008 50.7859L311.896 54.265ZM315.966 56.74L313.472 62.1968C313.533 62.2251 313.596 62.2523 313.658 62.2785L315.966 56.74ZM322.621 56.905L319.021 52.105L319.021 52.105L322.621 56.905ZM322.621 53.495L326.221 48.695L326.221 48.695L322.621 53.495ZM320.311 52.285L317.973 57.8108C318.034 57.8366 318.096 57.8613 318.157 57.8851L320.311 52.285ZM317.286 51.075L315.002 56.6231C315.054 56.6444 315.106 56.6651 315.158 56.685L317.286 51.075ZM313.546 49.15L310.325 54.212C310.348 54.2264 310.37 54.2407 310.393 54.2548L313.546 49.15ZM310.521 46.235L305.529 49.5632C305.545 49.587 305.561 49.6106 305.577 49.6342L310.521 46.235ZM310.796 36.665L305.841 33.2812C305.835 33.2902 305.829 33.2992 305.823 33.3082L310.796 36.665ZM315.031 33.2L317.489 38.6736C317.505 38.6661 317.522 38.6586 317.539 38.6509L315.031 33.2ZM327.846 33.2L325.339 38.6509C325.369 38.6648 325.399 38.6785 325.43 38.6919L327.846 33.2ZM332.576 35.95L337.387 39.5355C339.338 36.917 338.837 33.2188 336.26 31.2139L332.576 35.95ZM328.231 41.78L324.759 46.673C327.417 48.5593 331.094 47.9788 333.042 45.3655L328.231 41.78ZM324.876 39.855L322.422 45.3301C322.445 45.3403 322.468 45.3504 322.49 45.3603L324.876 39.855ZM319.211 39.745L322.699 44.6274C322.719 44.6129 322.739 44.5982 322.759 44.5834L319.211 39.745ZM319.211 42.935L315.504 47.6529C315.556 47.694 315.609 47.7341 315.663 47.7734L319.211 42.935ZM324.381 45.135L322.253 50.745C322.268 50.7505 322.283 50.756 322.297 50.7615L324.381 45.135ZM327.296 46.455L324.452 51.7378C324.531 51.7807 324.612 51.8218 324.693 51.861L327.296 46.455ZM329.991 48.27L334.027 43.8304L334.027 43.8304L329.991 48.27ZM331.916 50.91L326.474 53.4367C326.486 53.4622 326.498 53.4876 326.51 53.5129L331.916 50.91ZM331.146 59.765L336.193 63.0095C336.205 62.9916 336.216 62.9736 336.227 62.9556L331.146 59.765ZM326.746 63.45L329.26 68.8978C329.276 68.8908 329.291 68.8837 329.306 68.8766L326.746 63.45ZM319.596 64.77V58.77C318.388 58.77 316.98 58.5294 315.337 57.9267L313.271 63.56L311.206 69.1933C313.962 70.2039 316.771 70.77 319.596 70.77V64.77ZM313.271 63.56L315.337 57.9267C313.689 57.3224 312.385 56.5727 311.351 55.7263L307.551 60.37L303.752 65.0137C305.944 66.8073 308.454 68.1842 311.206 69.1933L313.271 63.56ZM307.551 60.37L312.439 63.8491L316.784 57.7441L311.896 54.265L307.008 50.7859L302.663 56.8909L307.551 60.37ZM311.896 54.265L308.316 59.0798C310 60.3323 311.72 61.3962 313.472 62.1968L315.966 56.74L318.461 51.2832C317.645 50.9105 316.652 50.3243 315.476 49.4502L311.896 54.265ZM315.966 56.74L313.658 62.2785C315.603 63.0887 317.669 63.565 319.816 63.565V57.565V51.565C319.47 51.565 318.969 51.4913 318.274 51.2015L315.966 56.74ZM319.816 57.565V63.565C321.53 63.565 324.068 63.3197 326.221 61.705L322.621 56.905L319.021 52.105C319.561 51.7 320.005 51.5831 320.106 51.5595C320.21 51.5349 320.139 51.565 319.816 51.565V57.565ZM322.621 56.905L326.221 61.705C328.405 60.0672 329.501 57.6381 329.501 55.09H323.501H317.501C317.501 54.7001 317.58 54.1279 317.882 53.5036C318.19 52.8695 318.62 52.4056 319.021 52.105L322.621 56.905ZM323.501 55.09H329.501C329.501 52.2305 328.017 50.0419 326.221 48.695L322.621 53.495L319.021 58.295C318.773 58.1092 318.367 57.738 318.028 57.1222C317.671 56.4762 317.501 55.764 317.501 55.09H323.501ZM322.621 53.495L326.221 48.695C325.056 47.8214 323.749 47.1787 322.465 46.6849L320.311 52.285L318.157 57.8851C318.455 57.9995 318.671 58.0995 318.82 58.1775C318.97 58.2562 319.028 58.2998 319.021 58.295L322.621 53.495ZM320.311 52.285L322.649 46.7592C321.62 46.3238 320.541 45.8925 319.414 45.465L317.286 51.075L315.158 56.685C316.158 57.0642 317.096 57.4395 317.973 57.8108L320.311 52.285ZM317.286 51.075L319.571 45.5269C318.65 45.1477 317.692 44.6587 316.699 44.0452L313.546 49.15L310.393 54.2548C311.893 55.1813 313.429 55.9756 315.002 56.6231L317.286 51.075ZM313.546 49.15L316.767 44.088C316.233 43.7477 315.812 43.3398 315.465 42.8358L310.521 46.235L305.577 49.6342C306.844 51.4769 308.44 53.0123 310.325 54.212L313.546 49.15ZM310.521 46.235L315.513 42.9068C315.478 42.8531 315.311 42.5971 315.311 41.835H309.311H303.311C303.311 44.5196 303.951 47.1969 305.529 49.5632L310.521 46.235ZM309.311 41.835H315.311C315.311 40.9036 315.527 40.3812 315.769 40.0218L310.796 36.665L305.823 33.3082C304.086 35.8821 303.311 38.8064 303.311 41.835H309.311ZM310.796 36.665L315.751 40.0488C316.103 39.5335 316.615 39.0657 317.489 38.6736L315.031 33.2L312.574 27.7264C309.853 28.9477 307.543 30.7898 305.841 33.2812L310.796 36.665ZM315.031 33.2L317.539 38.6509C318.445 38.2342 319.687 37.935 321.411 37.935V31.935V25.935C318.295 25.935 315.284 26.4792 312.524 27.7491L315.031 33.2ZM321.411 31.935V37.935C323.187 37.935 324.444 38.2392 325.339 38.6509L327.846 33.2L330.354 27.7491C327.582 26.4741 324.549 25.935 321.411 25.935V31.935ZM327.846 33.2L325.43 38.6919C326.897 39.3375 328.03 40.0152 328.892 40.6861L332.576 35.95L336.26 31.2139C334.482 29.8314 332.462 28.6758 330.263 27.7081L327.846 33.2ZM332.576 35.95L327.765 32.3645L323.42 38.1945L328.231 41.78L333.042 45.3655L337.387 39.5355L332.576 35.95ZM328.231 41.78L331.704 36.887C330.28 35.877 328.8 35.0163 327.262 34.3497L324.876 39.855L322.49 45.3603C323.152 45.647 323.909 46.0697 324.759 46.673L328.231 41.78ZM324.876 39.855L327.33 34.3799C325.599 33.6039 323.721 33.14 321.741 33.14V39.14V45.14C321.815 45.14 322.026 45.1527 322.422 45.3301L324.876 39.855ZM321.741 39.14V33.14C320.101 33.14 317.727 33.3932 315.663 34.9066L319.211 39.745L322.759 44.5834C322.241 44.9634 321.804 45.0903 321.652 45.1267C321.5 45.1629 321.506 45.14 321.741 45.14V39.14ZM319.211 39.745L315.724 34.8626C313.361 36.55 312.441 39.0846 312.441 41.395H318.441H324.441C324.441 41.7256 324.382 42.3023 324.071 42.9698C323.744 43.669 323.248 44.2346 322.699 44.6274L319.211 39.745ZM318.441 41.395H312.441C312.441 43.9583 313.623 46.1745 315.504 47.6529L319.211 42.935L322.918 38.2171C323.262 38.4874 323.681 38.9261 324 39.5642C324.324 40.2108 324.441 40.8569 324.441 41.395H318.441ZM319.211 42.935L315.663 47.7734C316.829 48.6282 318.132 49.2314 319.379 49.6803L321.411 44.035L323.443 38.3897C323.167 38.2903 322.977 38.2062 322.857 38.1459C322.735 38.0847 322.713 38.0629 322.759 38.0966L319.211 42.935ZM321.411 44.035L319.379 49.6803C320.259 49.9971 321.217 50.3518 322.253 50.745L324.381 45.135L326.509 39.525C325.419 39.1116 324.397 38.7329 323.443 38.3897L321.411 44.035ZM324.381 45.135L322.297 50.7615C323.019 51.029 323.737 51.3532 324.452 51.7378L327.296 46.455L330.141 41.1722C328.948 40.5301 327.723 39.9744 326.465 39.5085L324.381 45.135ZM327.296 46.455L324.693 51.861C325.166 52.0884 325.58 52.369 325.955 52.7096L329.991 48.27L334.027 43.8304C332.789 42.7043 331.407 41.7749 329.899 41.049L327.296 46.455ZM329.991 48.27L325.955 52.7096C326.148 52.8847 326.321 53.1066 326.474 53.4367L331.916 50.91L337.358 48.3833C336.558 46.6601 335.448 45.122 334.027 43.8304L329.991 48.27ZM331.916 50.91L326.51 53.5129C326.496 53.4845 326.631 53.75 326.631 54.54H332.631H338.631C338.631 52.47 338.289 50.3155 337.322 48.3071L331.916 50.91ZM332.631 54.54H326.631C326.631 55.3467 326.439 55.9777 326.065 56.5744L331.146 59.765L336.227 62.9556C337.833 60.3989 338.631 57.5467 338.631 54.54H332.631ZM331.146 59.765L326.099 56.5205C325.816 56.9604 325.292 57.502 324.186 58.0234L326.746 63.45L329.306 68.8766C332.087 67.5647 334.496 65.6496 336.193 63.0095L331.146 59.765ZM326.746 63.45L324.232 58.0022C323.344 58.4118 321.885 58.77 319.596 58.77V64.77V70.77C323.028 70.77 326.335 70.2482 329.26 68.8978L326.746 63.45ZM341.253 63.505L338.049 68.5779C338.081 68.5983 338.114 68.6183 338.146 68.638L341.253 63.505ZM338.008 60.04L332.642 62.7233C332.669 62.7775 332.697 62.8313 332.725 62.8846L338.008 60.04ZM341.033 47.555L344.361 52.5473C344.377 52.5371 344.392 52.5269 344.407 52.5166L341.033 47.555ZM354.288 43.76L354.935 49.725C358.18 49.3732 360.548 46.4919 360.266 43.2402L354.288 43.76ZM353.683 41.615L348.381 44.4223C348.404 44.4674 348.429 44.5121 348.454 44.5566L353.683 41.615ZM352.143 40.24L349.46 45.6066C349.576 45.6648 349.695 45.7193 349.815 45.7698L352.143 40.24ZM345.708 40.46L343.67 34.8167L343.67 34.8167L345.708 40.46ZM341.363 42.495L336.062 45.3044C336.817 46.7305 338.116 47.792 339.664 48.2492C341.211 48.7064 342.878 48.5208 344.287 47.7342L341.363 42.495ZM337.953 36.06L334.846 30.927C332.125 32.5741 331.162 36.0587 332.652 38.8694L337.953 36.06ZM342.188 33.915L344.466 39.466C344.489 39.4565 344.512 39.4468 344.535 39.437L342.188 33.915ZM346.698 32.485L347.955 38.3518C348 38.3423 348.044 38.3323 348.088 38.3218L346.698 32.485ZM362.593 38.205L357.154 40.7372C357.159 40.7493 357.165 40.7614 357.171 40.7735L362.593 38.205ZM364.078 64V70C367.392 70 370.078 67.3137 370.078 64H364.078ZM356.103 64L350.232 65.2361C350.816 68.0125 353.266 70 356.103 70V64ZM355.443 60.865L361.315 59.6289C360.73 56.8525 358.281 54.865 355.443 54.865V60.865ZM355.168 60.865V54.865C353.702 54.865 352.287 55.4016 351.19 56.3735L355.168 60.865ZM350.988 63.67L348.358 58.2774C348.34 58.286 348.322 58.2947 348.305 58.3034L350.988 63.67ZM352.143 56.52L349.056 51.375L349.056 51.375L352.143 56.52ZM354.288 54.705L358.737 58.7305C359.736 57.6273 360.288 56.1927 360.288 54.705H354.288ZM354.288 49.7H360.288C360.288 47.9767 359.547 46.3365 358.254 45.1975C356.961 44.0584 355.24 43.5304 353.531 43.748L354.288 49.7ZM349.448 50.8L347.249 45.2175C347.229 45.2253 347.21 45.2332 347.19 45.2412L349.448 50.8ZM346.918 52.45L342.287 48.6358C342.241 48.6915 342.196 48.748 342.152 48.8053L346.918 52.45ZM347.083 56.52L343.483 61.32C343.529 61.3546 343.576 61.3885 343.623 61.4218L347.083 56.52ZM346.203 64.77V58.77C345.203 58.77 344.667 58.5575 344.36 58.372L341.253 63.505L338.146 68.638C340.627 70.1391 343.391 70.77 346.203 70.77V64.77ZM341.253 63.505L344.457 58.4321C343.924 58.0951 343.564 57.7022 343.291 57.1954L338.008 60.04L332.725 62.8846C333.993 65.2378 335.796 67.1549 338.049 68.5779L341.253 63.505ZM338.008 60.04L343.375 57.3567C343.079 56.7658 342.908 56.0957 342.908 55.255H336.908H330.908C330.908 57.861 331.47 60.3809 332.642 62.7233L338.008 60.04ZM336.908 55.255H342.908C342.908 53.9649 343.278 53.2699 344.361 52.5473L341.033 47.555L337.705 42.5627C333.289 45.5067 330.908 49.9451 330.908 55.255H336.908ZM341.033 47.555L344.407 52.5166C345.916 51.4906 349.133 50.3542 354.935 49.725L354.288 43.76L353.641 37.795C347.271 38.4858 341.651 39.8794 337.659 42.5934L341.033 47.555ZM354.288 43.76L360.266 43.2402C360.137 41.758 359.755 40.1707 358.913 38.6734L353.683 41.615L348.454 44.5566C348.272 44.2326 348.293 44.0753 348.311 44.2798L354.288 43.76ZM353.683 41.615L358.986 38.8077C357.96 36.8698 356.346 35.4993 354.472 34.7102L352.143 40.24L349.815 45.7698C349.613 45.6847 349.338 45.5325 349.055 45.2794C348.767 45.0225 348.54 44.7239 348.381 44.4223L353.683 41.615ZM352.143 40.24L354.827 34.8734C353.048 33.9844 351.171 33.745 349.558 33.745V39.745V45.745C349.67 45.745 349.751 45.7494 349.806 45.754C349.86 45.7587 349.881 45.7631 349.874 45.7617C349.863 45.7597 349.704 45.7286 349.46 45.6066L352.143 40.24ZM349.558 39.745V33.745C347.535 33.745 345.562 34.1334 343.67 34.8167L345.708 40.46L347.746 46.1033C348.494 45.8332 349.088 45.745 349.558 45.745V39.745ZM345.708 40.46L343.67 34.8167C341.972 35.4299 340.224 36.2597 338.439 37.2558L341.363 42.495L344.287 47.7342C345.656 46.9703 346.804 46.4434 347.746 46.1033L345.708 40.46ZM341.363 42.495L346.665 39.6856L343.255 33.2506L337.953 36.06L332.652 38.8694L336.062 45.3044L341.363 42.495ZM337.953 36.06L341.06 41.193C342.202 40.5017 343.337 39.9289 344.466 39.466L342.188 33.915L339.911 28.364C338.179 29.0745 336.491 29.9317 334.846 30.927L337.953 36.06ZM342.188 33.915L344.535 39.437C345.655 38.9612 346.793 38.6009 347.955 38.3518L346.698 32.485L345.441 26.6182C343.523 27.0291 341.655 27.6221 339.841 28.393L342.188 33.915ZM346.698 32.485L348.088 38.3218C349.164 38.0656 350.274 37.935 351.428 37.935V31.935V25.935C349.356 25.935 347.312 26.171 345.309 26.6482L346.698 32.485ZM351.428 31.935V37.935C353.401 37.935 354.639 38.3083 355.416 38.7345L358.303 33.475L361.191 28.2155C358.227 26.5884 354.883 25.935 351.428 25.935V31.935ZM358.303 33.475L355.416 38.7345C356.055 39.0852 356.646 39.6466 357.154 40.7372L362.593 38.205L368.033 35.6728C366.56 32.5101 364.292 29.9181 361.191 28.2155L358.303 33.475ZM362.593 38.205L357.171 40.7735C357.657 41.8009 358.078 43.5191 358.078 46.235H364.078H370.078C370.078 42.4242 369.509 38.7891 368.016 35.6365L362.593 38.205ZM364.078 46.235H358.078V64H364.078H370.078V46.235H364.078ZM364.078 64V58H356.103V64V70H364.078V64ZM356.103 64L361.975 62.7639L361.315 59.6289L355.443 60.865L349.572 62.1011L350.232 65.2361L356.103 64ZM355.443 60.865V54.865H355.168V60.865V66.865H355.443V60.865ZM355.168 60.865L351.19 56.3735C350.303 57.1592 349.361 57.788 348.358 58.2774L350.988 63.67L353.619 69.0626C355.622 68.0854 357.467 66.8441 359.146 65.3565L355.168 60.865ZM350.988 63.67L348.305 58.3034C347.714 58.5989 347.044 58.77 346.203 58.77V64.77V70.77C348.809 70.77 351.329 70.2078 353.672 69.0366L350.988 63.67ZM349.558 57.18V63.18C351.462 63.18 353.426 62.7477 355.23 61.665L352.143 56.52L349.056 51.375C349.208 51.2839 349.352 51.2297 349.463 51.2015C349.568 51.1746 349.608 51.18 349.558 51.18V57.18ZM352.143 56.52L355.23 61.665C356.565 60.864 357.726 59.8483 358.737 58.7305L354.288 54.705L349.839 50.6795C349.457 51.1017 349.188 51.296 349.056 51.375L352.143 56.52ZM354.288 54.705H360.288V49.7H354.288H348.288V54.705H354.288ZM354.288 49.7L353.531 43.748C351.264 44.0365 349.106 44.4861 347.249 45.2175L349.448 50.8L351.647 56.3824C352.211 56.1605 353.279 55.8768 355.046 55.652L354.288 49.7ZM349.448 50.8L347.19 45.2412C345.568 45.9002 343.695 46.9257 342.287 48.6358L346.918 52.45L351.55 56.2642C351.441 56.3959 351.348 56.484 351.29 56.5344C351.232 56.5846 351.202 56.6031 351.213 56.5957C351.225 56.5884 351.268 56.5611 351.352 56.5182C351.436 56.4755 351.552 56.4214 351.707 56.3588L349.448 50.8ZM346.918 52.45L342.152 48.8053C340.935 50.397 340.203 52.3391 340.203 54.485H346.203H352.203C352.203 54.782 352.153 55.1024 352.043 55.4152C351.934 55.7234 351.795 55.9506 351.684 56.0947L346.918 52.45ZM346.203 54.485H340.203C340.203 56.7665 341.011 59.4657 343.483 61.32L347.083 56.52L350.683 51.72C351.232 52.1316 351.666 52.6884 351.93 53.2998C352.177 53.87 352.203 54.3153 352.203 54.485H346.203ZM347.083 56.52L343.623 61.4218C345.555 62.7858 347.713 63.18 349.558 63.18V57.18V51.18C349.35 51.18 349.858 51.1342 350.543 51.6182L347.083 56.52ZM372.958 75.88L373.894 69.9534L373.894 69.9534L372.958 75.88ZM370.923 75.44L365.085 74.0561C364.341 77.1937 366.21 80.3581 369.317 81.2211L370.923 75.44ZM372.683 68.015L373.427 62.0613C370.388 61.6815 367.551 63.6512 366.845 66.6311L372.683 68.015ZM373.673 68.235L371.949 73.982L371.949 73.982L373.673 68.235ZM378.238 67.355L374.316 62.8141L374.316 62.8141L378.238 67.355ZM379.998 64.66L385.69 66.5574C385.723 66.4576 385.754 66.357 385.782 66.2556L379.998 64.66ZM380.438 63.065L386.222 64.6606C386.568 63.4056 386.497 62.072 386.018 60.8611L380.438 63.065ZM368.448 32.705V26.705C366.461 26.705 364.604 27.688 363.487 29.3304C362.37 30.9727 362.138 33.0615 362.867 34.9089L368.448 32.705ZM378.293 32.705L384.004 30.8658C383.205 28.3861 380.898 26.705 378.293 26.705V32.705ZM382.473 45.685L376.762 47.5242C376.768 47.5436 376.774 47.563 376.781 47.5824L382.473 45.685ZM383.738 50.03L389.559 48.5748L389.559 48.5748L383.738 50.03ZM384.893 54.54L379.089 56.0602C379.78 58.6994 382.164 60.54 384.893 60.54V54.54ZM385.168 54.54V60.54C388.038 60.54 390.507 58.5066 391.057 55.6891L385.168 54.54ZM386.103 50.085L380.282 48.6298C380.27 48.6757 380.259 48.7217 380.249 48.7679L386.103 50.085ZM387.203 45.685L381.424 44.069C381.41 44.1224 381.395 44.176 381.382 44.2298L387.203 45.685ZM390.833 32.705V26.705C388.141 26.705 385.779 28.4971 385.054 31.089L390.833 32.705ZM400.183 32.705L405.857 34.656C406.487 32.8227 406.193 30.7978 405.067 29.2198C403.941 27.6417 402.121 26.705 400.183 26.705V32.705ZM389.403 64.055L395.03 66.1364C395.046 66.0931 395.062 66.0497 395.077 66.006L389.403 64.055ZM386.103 70.71L381.158 67.3108C381.148 67.3266 381.137 67.3425 381.126 67.3584L386.103 70.71ZM381.758 74.725L378.982 69.4055C378.966 69.4139 378.95 69.4223 378.934 69.4309L381.758 74.725ZM375.543 76.045V70.045C374.702 70.045 374.176 69.998 373.894 69.9534L372.958 75.88L372.022 81.8066C373.133 81.982 374.33 82.045 375.543 82.045V76.045ZM372.958 75.88L373.894 69.9534C373.416 69.878 372.962 69.7792 372.529 69.6589L370.923 75.44L369.317 81.2211C370.204 81.4674 371.106 81.662 372.022 81.8066L372.958 75.88ZM370.923 75.44L376.761 76.8239L378.521 69.3989L372.683 68.015L366.845 66.6311L365.085 74.0561L370.923 75.44ZM372.683 68.015L371.939 73.9687C371.905 73.9645 371.881 73.9606 371.867 73.9581C371.853 73.9555 371.846 73.9541 371.849 73.9546C371.851 73.9551 371.861 73.9573 371.878 73.9618C371.895 73.9663 371.918 73.9729 371.949 73.982L373.673 68.235L375.397 62.488C374.798 62.3084 374.132 62.1495 373.427 62.0613L372.683 68.015ZM373.673 68.235L371.949 73.982C372.85 74.2523 373.797 74.4 374.773 74.4V68.4V62.4C375.015 62.4 375.229 62.4377 375.397 62.488L373.673 68.235ZM374.773 68.4V74.4C377.13 74.4 379.889 73.8565 382.159 71.8959L378.238 67.355L374.316 62.8141C374.629 62.5439 374.912 62.4312 375.034 62.3943C375.137 62.3633 375.075 62.4 374.773 62.4V68.4ZM378.238 67.355L382.159 71.8959C383.855 70.432 385.013 68.5888 385.69 66.5574L379.998 64.66L374.306 62.7626C374.288 62.8145 374.274 62.8469 374.266 62.8637C374.258 62.8803 374.255 62.8839 374.259 62.878C374.263 62.872 374.271 62.8609 374.283 62.8473C374.295 62.8337 374.306 62.8223 374.316 62.8141L378.238 67.355ZM379.998 64.66L385.782 66.2556L386.222 64.6606L380.438 63.065L374.654 61.4694L374.214 63.0644L379.998 64.66ZM380.438 63.065L386.018 60.8611L374.028 30.5011L368.448 32.705L362.867 34.9089L374.857 65.2689L380.438 63.065ZM368.448 32.705V38.705H378.293V32.705V26.705H368.448V32.705ZM378.293 32.705L372.582 34.5442L376.762 47.5242L382.473 45.685L388.184 43.8458L384.004 30.8658L378.293 32.705ZM382.473 45.685L376.781 47.5824C377.209 48.8663 377.587 50.1671 377.917 51.4852L383.738 50.03L389.559 48.5748C389.155 46.9596 388.69 45.3637 388.165 43.7876L382.473 45.685ZM383.738 50.03L377.917 51.4852C378.289 52.9747 378.68 54.4997 379.089 56.0602L384.893 54.54L390.697 53.0198C390.299 51.5003 389.92 50.0187 389.559 48.5748L383.738 50.03ZM384.893 54.54V60.54H385.168V54.54V48.54H384.893V54.54ZM385.168 54.54L391.057 55.6891C391.339 54.2408 391.639 52.8119 391.956 51.4021L386.103 50.085L380.249 48.7679C379.906 50.2915 379.583 51.8325 379.279 53.3909L385.168 54.54ZM386.103 50.085L391.924 51.5402C392.29 50.0735 392.657 48.6069 393.024 47.1402L387.203 45.685L381.382 44.2298C381.015 45.6965 380.649 47.1631 380.282 48.6298L386.103 50.085ZM387.203 45.685L392.981 47.301L396.611 34.321L390.833 32.705L385.054 31.089L381.424 44.069L387.203 45.685ZM390.833 32.705V38.705H400.183V32.705V26.705H390.833V32.705ZM400.183 32.705L394.509 30.754L383.729 62.104L389.403 64.055L395.077 66.006L405.857 34.656L400.183 32.705ZM389.403 64.055L383.775 61.9736C382.904 64.3298 382.011 66.0707 381.158 67.3108L386.103 70.71L391.047 74.1092C392.614 71.8293 393.922 69.1335 395.03 66.1364L389.403 64.055ZM386.103 70.71L381.126 67.3584C380.396 68.4423 379.666 69.0486 378.982 69.4055L381.758 74.725L384.533 80.0445C387.222 78.6414 389.389 76.5711 391.079 74.0616L386.103 70.71ZM381.758 74.725L378.934 69.4309C378.394 69.7188 377.367 70.045 375.543 70.045V76.045V82.045C378.706 82.045 381.821 81.4912 384.581 80.0191L381.758 74.725ZM413.741 62.405L410.981 67.7325C410.99 67.737 410.998 67.7414 411.007 67.7459L413.741 62.405ZM406.426 55.365L401.228 58.3616C401.237 58.3768 401.246 58.392 401.254 58.4071L406.426 55.365ZM405.326 34.685L410.892 36.9267C410.895 36.9178 410.899 36.909 410.902 36.9002L405.326 34.685ZM409.671 27.92L405.471 23.6356C405.457 23.6494 405.442 23.6634 405.428 23.6774L409.671 27.92ZM416.106 23.74L413.907 18.1575L413.907 18.1575L416.106 23.74ZM431.616 23.96L428.897 29.3083C428.921 29.3206 428.945 29.3327 428.969 29.3447L431.616 23.96ZM436.951 27.645L441.58 31.4621C443.547 29.0771 443.38 25.5882 441.194 23.4024L436.951 27.645ZM431.781 33.915L427.785 38.3906C429.003 39.4777 430.61 40.0218 432.238 39.8976C433.865 39.7733 435.372 38.9914 436.41 37.7321L431.781 33.915ZM428.481 31.66L425.596 36.9209C425.663 36.9574 425.73 36.9926 425.798 37.0266L428.481 31.66ZM418.801 32.265L422.046 37.3121C422.055 37.3057 422.065 37.2994 422.075 37.293L418.801 32.265ZM415.116 36.61L409.709 34.0102C409.701 34.0252 409.694 34.0402 409.687 34.0552L415.116 36.61ZM415.006 50.415L409.465 52.7153C409.482 52.7577 409.5 52.8 409.519 52.842L415.006 50.415ZM418.746 54.815L415.576 59.9093C415.62 59.9366 415.664 59.9633 415.709 59.9895L418.746 54.815ZM427.216 56.025L425.689 50.2226L425.689 50.2226L427.216 56.025ZM428.921 55.255L432.521 60.055C434.032 58.9219 434.921 57.1435 434.921 55.255H428.921ZM428.921 48.655H434.921C434.921 45.3413 432.235 42.655 428.921 42.655V48.655ZM422.431 48.655H416.431C416.431 51.9687 419.117 54.655 422.431 54.655V48.655ZM422.431 40.625V34.625C419.117 34.625 416.431 37.3113 416.431 40.625H422.431ZM437.666 40.625H443.666C443.666 37.3113 440.98 34.625 437.666 34.625V40.625ZM437.666 59.765L441.796 64.1178C442.99 62.9849 443.666 61.4111 443.666 59.765H437.666ZM431.891 63.285L429.619 57.7317C429.609 57.7358 429.599 57.7399 429.589 57.744L431.891 63.285ZM424.026 64.77V58.77C421.111 58.77 418.633 58.1689 416.475 57.0641L413.741 62.405L411.007 67.7459C415.009 69.7944 419.387 70.77 424.026 70.77V64.77ZM413.741 62.405L416.501 57.0775C414.517 56.0496 412.891 54.522 411.598 52.3229L406.426 55.365L401.254 58.4071C403.628 62.4414 406.879 65.6071 410.981 67.7325L413.741 62.405ZM406.426 55.365L411.624 52.3684C410.482 50.387 409.731 47.6209 409.731 43.76H403.731H397.731C397.731 49.1391 398.777 54.1097 401.228 58.3616L406.426 55.365ZM403.731 43.76H409.731C409.731 40.9694 410.166 38.7281 410.892 36.9267L405.326 34.685L399.761 32.4433C398.359 35.9219 397.731 39.7306 397.731 43.76H403.731ZM405.326 34.685L410.902 36.9002C411.697 34.8986 412.719 33.357 413.914 32.1626L409.671 27.92L405.428 23.6774C402.956 26.1496 401.082 29.1181 399.75 32.4698L405.326 34.685ZM409.671 27.92L413.872 32.2044C415.172 30.9294 416.638 29.9793 418.305 29.3224L416.106 23.74L413.907 18.1575C410.734 19.4073 407.91 21.2439 405.471 23.6356L409.671 27.92ZM416.106 23.74L418.305 29.3224C419.985 28.6606 421.82 28.31 423.861 28.31V22.31V16.31C420.402 16.31 417.067 16.9128 413.907 18.1575L416.106 23.74ZM423.861 22.31V28.31C426.144 28.31 427.753 28.7269 428.897 29.3083L431.616 23.96L434.336 18.6117C431.152 16.9931 427.591 16.31 423.861 16.31V22.31ZM431.616 23.96L428.969 29.3447C430.669 30.1801 431.871 31.0507 432.708 31.8876L436.951 27.645L441.194 23.4024C439.244 21.4527 436.89 19.8666 434.263 18.5753L431.616 23.96ZM436.951 27.645L432.322 23.8279L427.152 30.0979L431.781 33.915L436.41 37.7321L441.58 31.4621L436.951 27.645ZM431.781 33.915L435.777 29.4394C434.374 28.1863 432.836 27.1291 431.164 26.2934L428.481 31.66L425.798 37.0266C426.473 37.3643 427.135 37.8103 427.785 38.3906L431.781 33.915ZM428.481 31.66L431.366 26.3991C429.102 25.1573 426.603 24.725 424.191 24.725V30.725V36.725C425.226 36.725 425.587 36.9161 425.596 36.9209L428.481 31.66ZM424.191 30.725V24.725C421.099 24.725 418.149 25.5299 415.527 27.237L418.801 32.265L422.075 37.293C422.607 36.9467 423.249 36.725 424.191 36.725V30.725ZM418.801 32.265L415.557 27.2179C412.946 28.8964 411.03 31.2619 409.709 34.0102L415.116 36.61L420.524 39.2098C421.036 38.1447 421.577 37.6136 422.046 37.3121L418.801 32.265ZM415.116 36.61L409.687 34.0552C408.337 36.9238 407.796 40.1208 407.796 43.43H413.796H419.796C419.796 41.3859 420.135 40.0362 420.545 39.1648L415.116 36.61ZM413.796 43.43H407.796C407.796 46.7143 408.281 49.865 409.465 52.7153L415.006 50.415L420.548 48.1147C420.117 47.0784 419.796 45.5724 419.796 43.43H413.796ZM415.006 50.415L409.519 52.842C410.812 55.7659 412.828 58.1993 415.576 59.9093L418.746 54.815L421.916 49.7207C421.364 49.3774 420.887 48.8774 420.493 47.988L415.006 50.415ZM418.746 54.815L415.709 59.9895C418.549 61.6566 421.78 62.3 425.071 62.3V56.3V50.3C423.302 50.3 422.316 49.9534 421.783 49.6405L418.746 54.815ZM425.071 56.3V62.3C426.31 62.3 427.539 62.1443 428.743 61.8274L427.216 56.025L425.689 50.2226C425.5 50.2724 425.298 50.3 425.071 50.3V56.3ZM427.216 56.025L428.743 61.8274C429.968 61.505 431.302 60.9695 432.521 60.055L428.921 55.255L425.321 50.455C425.495 50.3243 425.632 50.2556 425.695 50.2268C425.758 50.1985 425.763 50.2031 425.689 50.2226L427.216 56.025ZM428.921 55.255H434.921V48.655H428.921H422.921V55.255H428.921ZM428.921 48.655V42.655H422.431V48.655V54.655H428.921V48.655ZM422.431 48.655H428.431V40.625H422.431H416.431V48.655H422.431ZM422.431 40.625V46.625H437.666V40.625V34.625H422.431V40.625ZM437.666 40.625H431.666V59.765H437.666H443.666V40.625H437.666ZM437.666 59.765L433.537 55.4122C432.79 56.12 431.563 56.9365 429.619 57.7317L431.891 63.285L434.163 68.8383C437.059 67.6535 439.682 66.1233 441.796 64.1178L437.666 59.765ZM431.891 63.285L429.589 57.744C428.011 58.3998 426.182 58.77 424.026 58.77V64.77V70.77C427.59 70.77 431.005 70.1502 434.193 68.826L431.891 63.285ZM451.273 62.845L448.331 68.0745C448.352 68.0862 448.373 68.0978 448.394 68.1092L451.273 62.845ZM445.553 57.18L440.368 60.1984C440.379 60.2176 440.39 60.2366 440.401 60.2557L445.553 57.18ZM445.553 39.525L440.401 36.4493C440.397 36.4571 440.392 36.4649 440.387 36.4726L445.553 39.525ZM451.273 33.915L454.152 39.1792C454.173 39.1678 454.194 39.1562 454.215 39.1445L451.273 33.915ZM464.473 33.035L462.245 38.6059L462.245 38.6059L464.473 33.035ZM469.368 36.28L465.125 40.5226C465.144 40.541 465.162 40.5593 465.181 40.5774L469.368 36.28ZM471.843 57.18L466.691 54.1043C466.68 54.1234 466.669 54.1424 466.658 54.1616L471.843 57.18ZM466.178 62.845L469.092 68.0899C469.101 68.0848 469.11 68.0796 469.12 68.0745L466.178 62.845ZM461.723 55.805L457.801 51.2641C457.766 51.2942 457.732 51.3248 457.698 51.3558L461.723 55.805ZM463.483 52.835L469.252 54.4833L469.252 54.4833L463.483 52.835ZM463.483 43.87L457.714 45.5183C457.718 45.5332 457.722 45.5481 457.727 45.563L463.483 43.87ZM461.723 40.9L457.698 45.3492C457.732 45.3802 457.766 45.4108 457.801 45.4409L461.723 40.9ZM455.728 40.9L451.806 36.3591C451.771 36.3892 451.737 36.4198 451.703 36.4508L455.728 40.9ZM453.968 43.87L448.244 42.071C448.233 42.1063 448.222 42.1416 448.212 42.177L453.968 43.87ZM453.968 52.835L448.199 54.4833C448.213 54.5337 448.228 54.5839 448.244 54.634L453.968 52.835ZM455.728 55.805L451.703 60.2542C451.737 60.2852 451.771 60.3158 451.806 60.3459L455.728 55.805ZM458.753 64.77V58.77C457.133 58.77 455.628 58.388 454.152 57.5808L451.273 62.845L448.394 68.1092C451.611 69.8687 455.093 70.77 458.753 70.77V64.77ZM451.273 62.845L454.215 57.6155C452.837 56.8408 451.67 55.721 450.705 54.1043L445.553 57.18L440.401 60.2557C442.369 63.5523 445.015 66.2092 448.331 68.0745L451.273 62.845ZM445.553 57.18L450.738 54.1616C449.945 52.7981 449.408 50.9362 449.408 48.325H443.408H437.408C437.408 52.6071 438.301 56.6486 440.368 60.1984L445.553 57.18ZM443.408 48.325H449.408C449.408 45.7102 449.946 43.8848 450.719 42.5774L445.553 39.525L440.387 36.4726C438.3 40.0052 437.408 44.0465 437.408 48.325H443.408ZM445.553 39.525L450.705 42.6007C451.662 40.9968 452.81 39.913 454.152 39.1792L451.273 33.915L448.394 28.6508C445.042 30.4837 442.377 33.1399 440.401 36.4493L445.553 39.525ZM451.273 33.915L454.215 39.1445C455.682 38.3191 457.165 37.935 458.753 37.935V31.935V25.935C455.061 25.935 451.558 26.8709 448.331 28.6855L451.273 33.915ZM458.753 31.935V37.935C459.972 37.935 461.122 38.1568 462.245 38.6059L464.473 33.035L466.701 27.4641C464.157 26.4465 461.494 25.935 458.753 25.935V31.935ZM464.473 33.035L462.245 38.6059C463.305 39.03 464.256 39.653 465.125 40.5226L469.368 36.28L473.611 32.0374C471.62 30.047 469.308 28.5066 466.701 27.4641L464.473 33.035ZM469.368 36.28L465.181 40.5774C465.98 41.3559 466.681 42.3669 467.243 43.7098L472.778 41.395L478.313 39.0802C477.188 36.3898 475.616 33.9908 473.555 31.9826L469.368 36.28ZM472.778 41.395L467.243 43.7098C467.727 44.8674 468.043 46.3675 468.043 48.325H474.043H480.043C480.043 45.0758 479.516 41.956 478.313 39.0802L472.778 41.395ZM474.043 48.325H468.043C468.043 50.9109 467.499 52.7514 466.691 54.1043L471.843 57.18L476.995 60.2557C479.12 56.6952 480.043 52.6324 480.043 48.325H474.043ZM471.843 57.18L466.658 54.1616C465.734 55.7481 464.599 56.8491 463.236 57.6155L466.178 62.845L469.12 68.0745C472.45 66.2009 475.092 63.5252 477.028 60.1984L471.843 57.18ZM466.178 62.845L463.264 57.6001C461.845 58.3887 460.372 58.77 458.753 58.77V64.77V70.77C462.414 70.77 465.891 69.868 469.092 68.0899L466.178 62.845ZM458.753 56.85V62.85C461.189 62.85 463.696 62.1116 465.748 60.2542L461.723 55.805L457.698 51.3558C457.91 51.1637 458.163 51.0163 458.412 50.9289C458.646 50.8464 458.782 50.85 458.753 50.85V56.85ZM461.723 55.805L465.645 60.3459C467.535 58.7134 468.645 56.607 469.252 54.4833L463.483 52.835L457.714 51.1867C457.65 51.4109 457.6 51.4922 457.606 51.4812C457.61 51.4748 457.627 51.4473 457.661 51.4062C457.695 51.3647 457.742 51.3153 457.801 51.2641L461.723 55.805ZM463.483 52.835L469.252 54.4833C469.809 52.5345 470.033 50.4529 470.033 48.325H464.033H458.033C458.033 49.6437 457.89 50.5688 457.714 51.1867L463.483 52.835ZM464.033 48.325H470.033C470.033 46.2032 469.81 44.119 469.239 42.177L463.483 43.87L457.727 45.563C457.889 46.1143 458.033 47.0001 458.033 48.325H464.033ZM463.483 43.87L469.252 42.2217C468.645 40.098 467.535 37.9916 465.645 36.3591L461.723 40.9L457.801 45.4409C457.742 45.3897 457.695 45.3403 457.661 45.2988C457.627 45.2577 457.61 45.2302 457.606 45.2238C457.6 45.2128 457.65 45.2941 457.714 45.5183L463.483 43.87ZM461.723 40.9L465.748 36.4508C463.696 34.5934 461.189 33.855 458.753 33.855V39.855V45.855C458.782 45.855 458.646 45.8586 458.412 45.7761C458.163 45.6887 457.91 45.5413 457.698 45.3492L461.723 40.9ZM458.753 39.855V33.855C456.31 33.855 453.85 34.5939 451.806 36.3591L455.728 40.9L459.65 45.4409C459.476 45.591 459.264 45.7131 459.048 45.7874C458.844 45.858 458.726 45.855 458.753 45.855V39.855ZM455.728 40.9L451.703 36.4508C449.939 38.046 448.875 40.0633 448.244 42.071L453.968 43.87L459.692 45.669C459.868 45.1101 459.977 45.1474 459.753 45.3492L455.728 40.9ZM453.968 43.87L448.212 42.177C447.641 44.119 447.418 46.2032 447.418 48.325H453.418H459.418C459.418 47.0001 459.562 46.1143 459.724 45.563L453.968 43.87ZM453.418 48.325H447.418C447.418 50.4529 447.642 52.5345 448.199 54.4833L453.968 52.835L459.737 51.1867C459.561 50.5688 459.418 49.6437 459.418 48.325H453.418ZM453.968 52.835L448.244 54.634C448.875 56.6417 449.939 58.659 451.703 60.2542L455.728 55.805L459.753 51.3558C459.977 51.5576 459.868 51.5949 459.692 51.036L453.968 52.835ZM455.728 55.805L451.806 60.3459C453.85 62.1111 456.31 62.85 458.753 62.85V56.85V50.85C458.726 50.85 458.844 50.847 459.048 50.9176C459.264 50.9919 459.476 51.114 459.65 51.2641L455.728 55.805Z" fill="white" mask="url(#path-3-outside-2_1632_9190)"/>
</g>
<g filter="url(#filter2_d_1632_9190)">
<path d="M26.8243 16.3571C27.7119 14.449 30.4247 14.449 31.3123 16.3571L32.9036 19.778C33.1497 20.307 33.5748 20.732 34.1038 20.9781L37.5246 22.5694C39.4327 23.457 39.4327 26.1698 37.5246 27.0574L34.1038 28.6487C33.5748 28.8948 33.1497 29.3199 32.9036 29.8489L31.3123 33.2698C30.4247 35.1778 27.7119 35.1778 26.8243 33.2697L25.233 29.8489C24.9869 29.3199 24.5619 28.8948 24.0329 28.6487L20.612 27.0574C18.7039 26.1698 18.7039 23.457 20.612 22.5694L24.0329 20.9781C24.5619 20.732 24.9869 20.307 25.233 19.778L26.8243 16.3571Z" fill="url(#paint2_linear_1632_9190)"/>
<path d="M24.5576 15.3027C26.3418 11.4673 31.7949 11.4673 33.5791 15.3027L35.165 18.7139L38.5791 20.3027C42.4145 22.0869 42.4145 27.54 38.5791 29.3242L35.166 30.9111L33.5791 34.3242C31.7949 38.1597 26.3418 38.1596 24.5576 34.3242L22.9688 30.9102L19.5576 29.3242C15.7222 27.54 15.7222 22.0869 19.5576 20.3027L22.9697 18.7148L24.5576 15.3027Z" stroke="white" stroke-width="5"/>
</g>
<defs>
<filter id="filter0_dd_1632_9190" x="36.47" y="2.52539" width="137.215" height="83.5352" filterUnits="userSpaceOnUse" color-interpolation-filters="sRGB">
<feFlood flood-opacity="0" result="BackgroundImageFix"/>
<feColorMatrix in="SourceAlpha" type="matrix" values="0 0 0 0 0 0 0 0 0 0 0 0 0 0 0 0 0 0 127 0" result="hardAlpha"/>
<feOffset dy="1"/>
<feGaussianBlur stdDeviation="5"/>
<feColorMatrix type="matrix" values="0 0 0 0 0.0313726 0 0 0 0 0.380392 0 0 0 0 0.627451 0 0 0 0.16 0"/>
<feBlend mode="normal" in2="BackgroundImageFix" result="effect1_dropShadow_1632_9190"/>
<feColorMatrix in="SourceAlpha" type="matrix" values="0 0 0 0 0 0 0 0 0 0 0 0 0 0 0 0 0 0 127 0" result="hardAlpha"/>
<feOffset/>
<feGaussianBlur stdDeviation="3"/>
<feComposite in2="hardAlpha" operator="out"/>
<feColorMatrix type="matrix" values="0 0 0 0 0.0304674 0 0 0 0 0.379075 0 0 0 0 0.62808 0 0 0 0.25 0"/>
<feBlend mode="normal" in2="effect1_dropShadow_1632_9190" result="effect2_dropShadow_1632_9190"/>
<feBlend mode="normal" in="SourceGraphic" in2="effect2_dropShadow_1632_9190" result="shape"/>
</filter>
<filter id="filter1_dd_1632_9190" x="159.06" y="7.31055" width="330.983" height="85.7344" filterUnits="userSpaceOnUse" color-interpolation-filters="sRGB">
<feFlood flood-opacity="0" result="BackgroundImageFix"/>
<feColorMatrix in="SourceAlpha" type="matrix" values="0 0 0 0 0 0 0 0 0 0 0 0 0 0 0 0 0 0 127 0" result="hardAlpha"/>
<feOffset dy="1"/>
<feGaussianBlur stdDeviation="5"/>
<feColorMatrix type="matrix" values="0 0 0 0 0.0313726 0 0 0 0 0.380392 0 0 0 0 0.627451 0 0 0 0.16 0"/>
<feBlend mode="normal" in2="BackgroundImageFix" result="effect1_dropShadow_1632_9190"/>
<feColorMatrix in="SourceAlpha" type="matrix" values="0 0 0 0 0 0 0 0 0 0 0 0 0 0 0 0 0 0 127 0" result="hardAlpha"/>
<feOffset/>
<feGaussianBlur stdDeviation="3"/>
<feComposite in2="hardAlpha" operator="out"/>
<feColorMatrix type="matrix" values="0 0 0 0 0.0304674 0 0 0 0 0.379075 0 0 0 0 0.62808 0 0 0 0.25 0"/>
<feBlend mode="normal" in2="effect1_dropShadow_1632_9190" result="effect2_dropShadow_1632_9190"/>
<feBlend mode="normal" in="SourceGraphic" in2="effect2_dropShadow_1632_9190" result="shape"/>
</filter>
<filter id="filter2_d_1632_9190" x="4.18091" y="0.925781" width="49.7747" height="49.7754" filterUnits="userSpaceOnUse" color-interpolation-filters="sRGB">
<feFlood flood-opacity="0" result="BackgroundImageFix"/>
<feColorMatrix in="SourceAlpha" type="matrix" values="0 0 0 0 0 0 0 0 0 0 0 0 0 0 0 0 0 0 127 0" result="hardAlpha"/>
<feOffset dy="1"/>
<feGaussianBlur stdDeviation="5"/>
<feColorMatrix type="matrix" values="0 0 0 0 0.0313726 0 0 0 0 0.380392 0 0 0 0 0.627451 0 0 0 0.16 0"/>
<feBlend mode="normal" in2="BackgroundImageFix" result="effect1_dropShadow_1632_9190"/>
<feBlend mode="normal" in="SourceGraphic" in2="effect1_dropShadow_1632_9190" result="shape"/>
</filter>
<linearGradient id="paint0_linear_1632_9190" x1="104.5" y1="10" x2="104.5" y2="70" gradientUnits="userSpaceOnUse">
<stop stop-color="#0083EE"/>
<stop offset="1" stop-color="#01CAC3"/>
</linearGradient>
<linearGradient id="paint1_linear_1632_9190" x1="326" y1="10" x2="326" y2="70" gradientUnits="userSpaceOnUse">
<stop stop-color="#0083EE"/>
<stop offset="1" stop-color="#01CAC3"/>
</linearGradient>
<linearGradient id="paint2_linear_1632_9190" x1="29.0683" y1="11.5332" x2="29.0683" y2="38.0936" gradientUnits="userSpaceOnUse">
<stop stop-color="#0083EE"/>
<stop offset="1" stop-color="#01CAC3"/>
</linearGradient>
</defs>
</svg>
