<svg width="33" height="33" viewBox="0 0 33 33" fill="none" xmlns="http://www.w3.org/2000/svg">
<path d="M23.5198 6.86621H26.1858C27.6525 6.86621 28.8528 8.06654 28.8528 9.5332V10.8662C28.8528 14.2662 26.2926 17.0398 22.9993 17.4531C22.1592 19.453 20.3591 20.9594 18.1858 21.3994V25.5332H23.5198V28.1992H10.1858V25.5332H15.5198V21.3994C13.3465 20.9594 11.5463 19.453 10.7063 17.4531C7.41297 17.0398 4.85278 14.2662 4.85278 10.8662V9.5332C4.85278 8.06654 6.05311 6.86621 7.51978 6.86621H10.1858V4.19922H23.5198V6.86621ZM7.51978 10.8662C7.51978 12.5995 8.63915 14.0669 10.1858 14.627V9.5332H7.51978V10.8662ZM23.5198 9.5332V14.627C25.0663 14.0669 26.1858 12.5995 26.1858 10.8662V9.5332H23.5198Z" fill="#007141"/>
<path d="M19.2358 16.0548C19.1672 16.0551 19.0996 16.0389 19.0386 16.0076L16.8529 14.8633L14.6672 16.0076C14.5224 16.0838 14.3469 16.0708 14.2148 15.9743C14.0827 15.8777 14.0171 15.7144 14.0458 15.5533L14.4743 13.1405L12.7086 11.4262C12.5964 11.3142 12.5551 11.1493 12.6015 10.9976C12.6521 10.8422 12.7868 10.7292 12.9486 10.7062L15.3915 10.3505L16.4672 8.15192C16.5388 8.00406 16.6886 7.91016 16.8529 7.91016C17.0172 7.91016 17.167 8.00406 17.2386 8.15192L18.3272 10.3462L20.77 10.7019C20.9319 10.7249 21.0665 10.838 21.1172 10.9933C21.1635 11.145 21.1223 11.3099 21.01 11.4219L19.2443 13.1362L19.6729 15.5491C19.7041 15.7131 19.6372 15.8804 19.5015 15.9776C19.4239 16.032 19.3304 16.0591 19.2358 16.0548Z" fill="#FFF460"/>
</svg>
