<svg width="214" height="161" viewBox="0 0 214 161" fill="none" xmlns="http://www.w3.org/2000/svg">
<g opacity="0.2">
<path fill-rule="evenodd" clip-rule="evenodd" d="M0.5 88.847C0.5 107.272 7.13201 124.062 18.0455 136.752C30.5656 151.314 48.7211 160.469 68.9585 160.5C77.8031 160.513 86.26 158.772 94.0282 155.595C98.0447 153.951 102.54 154.14 106.43 156.087C110.993 158.368 116.103 159.647 121.499 159.647C123.728 159.647 125.91 159.428 128.022 159.01C134.048 157.823 139.533 155.015 144.036 151.037C146.867 148.536 150.492 147.279 154.197 147.283H154.26C166.503 147.283 177.875 143.402 187.316 136.752C195.757 130.814 202.65 122.665 207.242 113.096C211.246 104.758 213.5 95.3391 213.5 85.3701C213.5 51.1788 186.975 23.4571 154.26 23.4571C150.925 23.4571 147.657 23.7515 144.47 24.3008C136.029 10.02 120.914 0.5 103.671 0.5C96.3913 0.5 89.4898 2.19675 83.312 5.23832C77.4369 8.12148 72.2134 12.2183 67.9404 17.2111C53.4311 17.4529 40.015 22.4066 29.0344 30.674C11.7497 43.6801 0.5 64.8922 0.5 88.847Z" fill="url(#paint0_linear_1493_90491)"/>
</g>
<path opacity="0.05" d="M130.521 92.1405C129.524 93.3284 128.446 93.3085 127.804 93.1411L127.828 92.5258C127.828 92.5258 130.481 91.3113 130.414 91.5665C130.389 91.6621 130.439 91.892 130.521 92.1405Z" fill="#FF4842"/>
<path opacity="0.05" d="M137.793 93.4846C136.099 94.4653 135.105 93.3159 134.874 92.9903C135.016 92.617 135.23 92.011 135.186 91.8383C135.122 91.5818 137.772 92.7963 137.772 92.7963L137.793 93.4846Z" fill="#FF4842"/>
<path opacity="0.05" d="M135.978 83.7019C135.978 83.7019 137.59 82.7717 137.942 83.1903C138.293 83.6089 135.978 83.7019 135.978 83.7019Z" fill="#FF4842"/>
<path opacity="0.05" d="M136.952 84.2129C136.952 84.2129 136.686 84.3458 137.271 84.5158C137.856 84.6859 136.952 84.2129 136.952 84.2129Z" fill="#FF4842"/>
<path opacity="0.05" d="M127.205 81.6552C127.15 81.6712 128.546 82.5986 129.806 81.8306C129.801 81.8306 127.519 81.5595 127.205 81.6552Z" fill="#FF4842"/>
<path opacity="0.05" d="M129.738 83.4297C129.738 83.4297 129.355 84.1818 128.573 84.2934C127.79 84.405 129.738 83.4297 129.738 83.4297Z" fill="#FF4842"/>
<path opacity="0.05" d="M134.861 85.0605C134.861 85.0605 136.697 87.9838 136.345 88.6735C135.994 89.3631 134.861 85.0605 134.861 85.0605Z" fill="#FF4842"/>
<path opacity="0.05" d="M131.238 96.6859C131.238 96.8494 131.238 97.0022 131.222 97.1284C131.174 97.7197 129.721 97.4965 129.721 97.4965C128.395 97.6812 127.917 97.0434 127.759 96.4335C127.709 96.2354 127.685 96.0318 127.686 95.8276C127.685 95.7058 127.693 95.5841 127.71 95.4635V95.3426C127.996 95.2562 128.306 95.3196 128.535 95.5113C129.126 95.991 129.908 95.6229 129.908 95.6229C129.908 95.6229 130.483 95.6708 130.704 95.8621C130.829 95.9697 131.035 95.7106 131.191 95.4635C131.2 95.6229 131.215 95.9113 131.224 96.2196C131.235 96.3777 131.238 96.5371 131.238 96.6859Z" fill="#FF4842"/>
<path opacity="0.05" d="M128.908 96.6505C128.908 96.6505 128.51 97.0412 127.759 96.4379C127.709 96.2398 127.685 96.0363 127.686 95.832C128.069 96.1244 128.781 96.6505 128.908 96.6505Z" fill="#FF4842"/>
<path opacity="0.05" d="M131.238 96.6845C131.172 96.7351 131.089 96.7563 131.007 96.7433C130.926 96.7302 130.853 96.6839 130.807 96.6154C130.961 96.4975 131.104 96.3639 131.231 96.2168C131.235 96.3762 131.238 96.5357 131.238 96.6845Z" fill="#FF4842"/>
<path opacity="0.05" d="M134.351 96.9585C134.351 97.1233 134.351 97.2761 134.366 97.401C134.414 97.9936 135.866 97.769 135.866 97.769C137.193 97.9551 137.671 97.3173 137.829 96.706C137.907 96.3888 137.923 96.0595 137.878 95.736V95.6151C137.591 95.5302 137.282 95.5935 137.051 95.7839C136.461 96.2636 135.679 95.8955 135.679 95.8955C135.679 95.8955 135.105 95.9446 134.883 96.136C134.759 96.2436 134.553 95.9845 134.398 95.7374C134.389 95.8968 134.373 96.1852 134.363 96.4934C134.353 96.6489 134.35 96.8083 134.351 96.9585Z" fill="#FF4842"/>
<path opacity="0.05" d="M136.681 96.9207C136.681 96.9207 137.079 97.3114 137.829 96.7081C137.879 96.5105 137.904 96.3074 137.903 96.1035C137.518 96.3945 136.807 96.9207 136.681 96.9207Z" fill="#FF4842"/>
<path opacity="0.05" d="M134.351 96.958C134.417 97.0085 134.5 97.0297 134.581 97.0166C134.663 97.0035 134.735 96.9573 134.781 96.8889C134.626 96.7711 134.484 96.6375 134.357 96.4902C134.353 96.6484 134.35 96.8078 134.351 96.958Z" fill="#FF4842"/>
<g opacity="0.05">
<path d="M142.329 47.7311C142.357 47.67 142.383 47.6088 142.408 47.5491C142.433 47.4893 142.443 47.456 142.457 47.4082C142.409 47.5134 142.366 47.6212 142.329 47.7311Z" fill="#FF4842"/>
</g>
<path fill-rule="evenodd" clip-rule="evenodd" d="M70.4318 124.705C70.1103 124.317 69.9629 123.814 70.0245 123.314L75.8805 75.3228L76.3661 71.3365C76.4786 70.4192 77.253 69.7278 78.1757 69.7207L95.3284 69.6064C95.8218 69.6034 96.2932 69.4015 96.6362 69.0462C96.9792 68.6909 97.1649 68.2123 97.1513 67.7183L97.1447 67.5362C97.1278 67.038 97.3135 66.5542 97.6594 66.1958C98.0053 65.8373 98.4817 65.6348 98.9795 65.6348H117.004C118.016 65.6348 118.837 66.4551 118.839 67.4685C118.839 67.5511 118.833 67.6336 118.823 67.7156C118.754 68.2328 118.907 68.7551 119.246 69.1521C119.584 69.5491 120.074 69.7833 120.595 69.7965L137.906 70.2389C138.438 70.2521 138.939 70.4966 139.277 70.9088C139.616 71.3211 139.758 71.8603 139.668 72.3862L131.014 123.012L130.851 123.969C130.81 124.213 130.72 124.447 130.585 124.655L70.4318 124.705Z" fill="#004C2C"/>
<rect width="10.141" height="34.4388" transform="matrix(0.822324 0.56902 -0.567817 0.823155 122.671 55.4668)" fill="white"/>
<rect width="7.15942" height="7.16332" transform="matrix(0.82069 0.571373 -0.570169 0.821527 123.272 56.8105)" fill="#FFB73D"/>
<rect opacity="0.5" width="7.16907" height="7.17304" transform="matrix(0.822324 0.56902 -0.567816 0.823155 118.669 63.9023)" fill="#FFB73D"/>
<rect opacity="0.3" width="7.16908" height="7.17304" transform="matrix(0.822324 0.56902 -0.567817 0.823155 113.75 71.0312)" fill="#FFB73D"/>
<rect width="10.1372" height="34.3218" transform="matrix(0.959736 0.280904 -0.280095 0.959972 110.889 53.6914)" fill="white"/>
<rect width="7.16634" height="7.17578" transform="matrix(0.959736 0.280903 -0.280095 0.959972 112.166 54.6426)" fill="#FF4842"/>
<rect opacity="0.5" width="7.16633" height="7.17578" transform="matrix(0.959736 0.280904 -0.280095 0.959972 109.739 62.959)" fill="#FF4842"/>
<rect opacity="0.3" width="7.16633" height="7.17579" transform="matrix(0.959736 0.280904 -0.280095 0.959972 107.313 71.2734)" fill="#FF4842"/>
<rect width="10.136" height="34.3257" transform="matrix(0.996769 0.0803236 -0.0800744 0.996789 103.997 54.2109)" fill="white"/>
<rect width="7.16552" height="7.17659" transform="matrix(0.996769 0.0803236 -0.0800744 0.996789 105.435 54.8848)" fill="#1890FF"/>
<rect opacity="0.5" width="7.16552" height="7.17659" transform="matrix(0.996769 0.0803237 -0.0800744 0.996789 104.741 63.5176)" fill="#1890FF"/>
<rect opacity="0.3" width="7.16552" height="7.17659" transform="matrix(0.996769 0.0803235 -0.0800745 0.996789 104.047 72.1562)" fill="#1890FF"/>
<rect width="10.1359" height="34.3259" transform="matrix(0.998959 -0.0456085 0.0454663 0.998966 99.4521 55.5859)" fill="white"/>
<rect width="7.16547" height="7.17664" transform="matrix(0.998959 -0.0456084 0.0454663 0.998966 100.961 56.0723)" fill="#00A2F3"/>
<rect opacity="0.5" width="7.17443" height="7.1856" transform="matrix(0.998748 -0.0500156 0.0498597 0.998756 101.636 64.4531)" fill="#00A2F3"/>
<rect opacity="0.3" width="7.16547" height="7.17664" transform="matrix(0.998959 -0.0456084 0.0454663 0.998966 101.749 73.3828)" fill="#00A2F3"/>
<path d="M103.751 100.822L94.7459 104.312L81.5838 109.408C81.0863 108.477 80.354 107.22 79.4478 105.72C76.3301 100.546 71.172 92.4977 66.579 85.4247C61.4049 77.4521 56.9512 70.7245 56.9512 70.7245L60.175 69.7944L86.5098 62.1367L103.751 100.822Z" fill="#F4F6F8"/>
<path opacity="0.1" d="M103.751 100.822L94.7458 104.312C89.7151 105.361 84.5813 105.834 79.4438 105.72C76.3261 100.546 71.1679 92.4977 66.5749 85.4247L60.1763 69.7891L86.5097 62.1367L103.751 100.822Z" fill="black"/>
<path d="M110.451 98.6524C110.451 98.6524 96.461 106.941 75.5736 105.066L58.9224 64.4061L66.9024 63.0321L94.4896 58.2871L110.145 97.8617L110.451 98.6524Z" fill="#00A2F3"/>
<path opacity="0.1" d="M110.14 97.8656C106.845 98.0278 103.034 98.0118 99.1998 97.5534C95.0499 97.0644 90.8761 96.0572 87.298 94.2102C84.3063 92.6675 81.7485 90.9893 79.5183 88.9762C73.7167 83.7502 70.1267 76.2745 66.9028 63.036L94.49 58.291L110.14 97.8656Z" fill="#FF4842"/>
<path d="M120.403 95.5929C120.403 95.5929 110.09 97.6153 99.5937 96.3702C95.4438 95.8813 91.27 94.8741 87.6919 93.0271C84.7003 91.4844 82.1437 89.8061 79.9122 87.7931C72.7322 81.3233 68.9405 71.4081 65.0308 51.3849C65.0308 51.3849 82.1742 55.5293 99.1267 46.4512C99.1214 46.4578 104.835 82.1724 120.403 95.5929Z" fill="white"/>
<path opacity="0.3" d="M73.8984 58.7364C73.8984 58.7364 87.8393 57.9472 91.7318 54.9375L92.3222 56.8376C92.3222 56.8376 83.111 60.9076 73.8984 60.9568V58.7364Z" fill="#00A2F3"/>
<path opacity="0.3" d="M73.8984 68.1172C73.8984 68.1172 87.3962 67.3771 97.5944 62.4434L97.9394 63.2326C97.9394 63.2326 89.8466 67.9644 73.8984 69.2028L73.8984 68.1172Z" fill="#00A2F3"/>
<path opacity="0.3" d="M74.9849 71.7715C74.9849 71.7715 88.4826 71.0314 98.6795 66.0977L99.0245 66.8869C99.0245 66.8869 90.9317 71.6173 74.9849 72.8571L74.9849 71.7715Z" fill="#00A2F3"/>
<path opacity="0.3" d="M76.0698 75.4336C76.0698 75.4336 89.5676 74.6935 99.7658 69.7598L100.109 70.5491C100.109 70.5491 92.0166 75.2808 76.0698 76.5192L76.0698 75.4336Z" fill="#00A2F3"/>
<path opacity="0.3" d="M77.1567 79.0938C77.1567 79.0938 90.6545 78.3536 100.851 73.4199L101.196 74.2092C101.196 74.2092 93.1035 78.9409 77.1567 80.1794L77.1567 79.0938Z" fill="#00A2F3"/>
<path opacity="0.3" d="M78.2417 82.7559C78.2417 82.7559 91.7394 82.0157 101.938 77.082L102.281 77.8713C102.281 77.8713 94.1885 82.6017 78.2417 83.8415V82.7559Z" fill="#00A2F3"/>
<path d="M173.149 128.208C173.149 128.208 167.54 127.87 168.201 131.807C168.201 131.807 168.068 132.502 168.699 132.818C168.699 132.818 168.709 132.526 169.274 132.625C169.475 132.659 169.68 132.669 169.884 132.655C170.159 132.636 170.421 132.528 170.628 132.346C170.628 132.346 172.206 131.694 172.819 129.113C172.819 129.113 173.273 128.55 173.254 128.405L172.308 128.804C172.308 128.804 172.632 129.488 172.377 130.055C172.377 130.055 172.346 128.829 172.165 128.86C172.128 128.86 171.673 129.096 171.673 129.096C171.673 129.096 172.228 130.292 171.805 131.153C171.805 131.153 171.964 129.685 171.495 129.182L170.831 129.572C170.831 129.572 171.481 130.802 171.041 131.807C171.041 131.807 171.154 130.267 170.691 129.666L170.087 130.138C170.087 130.138 170.699 131.351 170.326 132.184C170.326 132.184 170.277 130.39 169.956 130.255C169.956 130.255 169.425 130.721 169.348 130.919C169.348 130.919 169.766 131.799 169.506 132.264C169.506 132.264 169.347 131.068 169.217 131.068C169.217 131.068 168.686 131.865 168.636 132.397C168.636 132.397 168.658 131.589 169.089 130.987C168.786 131.045 168.505 131.19 168.283 131.405C168.283 131.405 168.365 130.845 169.219 130.797C169.219 130.797 169.655 130.196 169.77 130.159C169.77 130.159 168.921 130.089 168.406 130.317C168.406 130.317 168.86 129.786 169.927 130.029L170.522 129.543C170.522 129.543 169.404 129.388 168.93 129.559C168.93 129.559 169.476 129.091 170.683 129.426L171.332 129.038C171.332 129.038 170.379 128.832 169.811 128.905C169.811 128.905 170.41 128.581 171.523 128.931L171.986 128.723C171.986 128.723 171.288 128.59 171.083 128.563C170.879 128.537 170.867 128.486 170.867 128.486C171.31 128.411 171.764 128.462 172.179 128.632C172.179 128.632 173.165 128.271 173.149 128.208Z" fill="#00A2F3"/>
<ellipse opacity="0.1" cx="169.286" cy="133.161" rx="3.96945" ry="0.672356" fill="#00A2F3"/>
<path d="M175.761 115.211C175.761 115.211 172.6 115.02 172.975 117.24C172.936 117.471 173.049 117.701 173.255 117.81C173.255 117.81 173.262 117.645 173.58 117.701C173.694 117.72 173.809 117.725 173.924 117.717C174.079 117.707 174.226 117.646 174.343 117.544C174.343 117.544 175.232 117.176 175.578 115.721C175.578 115.721 175.834 115.404 175.824 115.323L175.293 115.55C175.293 115.55 175.475 115.937 175.332 116.257C175.332 116.257 175.314 115.565 175.212 115.581C175.191 115.581 174.935 115.713 174.935 115.713C174.935 115.713 175.248 116.378 175.012 116.873C175.012 116.873 175.102 116.046 174.837 115.761L174.461 115.982C174.461 115.982 174.827 116.675 174.579 117.242C174.579 117.242 174.643 116.373 174.382 116.035L174.042 116.301C174.042 116.301 174.386 116.985 174.175 117.454C174.175 117.454 174.147 116.443 173.966 116.367C173.837 116.477 173.722 116.601 173.623 116.738C173.623 116.738 173.859 117.235 173.713 117.497C173.713 117.497 173.623 116.823 173.55 116.82C173.55 116.82 173.253 117.265 173.222 117.571C173.236 117.287 173.325 117.013 173.478 116.774C173.307 116.806 173.148 116.888 173.023 117.01C173.023 117.01 173.07 116.694 173.554 116.667C173.554 116.667 173.799 116.329 173.864 116.307C173.864 116.307 173.385 116.268 173.095 116.396C173.095 116.396 173.351 116.099 173.952 116.234L174.289 115.959C174.289 115.959 173.657 115.873 173.391 115.969C173.391 115.969 173.698 115.703 174.379 115.897L174.745 115.678C174.463 115.616 174.175 115.591 173.887 115.604C173.887 115.604 174.225 115.421 174.851 115.619L175.117 115.502C175.117 115.502 174.719 115.424 174.607 115.412C174.496 115.4 174.485 115.368 174.485 115.368C174.735 115.326 174.991 115.355 175.225 115.45C175.225 115.45 175.772 115.246 175.761 115.211Z" fill="#00A2F3"/>
<ellipse opacity="0.1" cx="173.586" cy="118.004" rx="2.23812" ry="0.3787" fill="#00A2F3"/>
<path d="M157.098 117.138C157.098 117.138 153.279 116.907 153.73 119.587C153.682 119.865 153.819 120.143 154.069 120.275C154.069 120.275 154.069 120.076 154.467 120.142C154.604 120.165 154.743 120.172 154.882 120.162C155.069 120.15 155.247 120.076 155.389 119.952C155.389 119.952 156.462 119.508 156.88 117.752C156.88 117.752 157.189 117.369 157.176 117.269L156.524 117.546C156.524 117.546 156.745 118.011 156.571 118.397C156.571 118.397 156.55 117.563 156.426 117.582C156.401 117.582 156.092 117.744 156.092 117.744C156.092 117.744 156.47 118.554 156.185 119.144C156.185 119.144 156.294 118.145 155.974 117.802L155.52 118.068C155.52 118.068 155.962 118.906 155.662 119.589C155.662 119.589 155.739 118.541 155.425 118.128L155.013 118.449C155.013 118.449 155.43 119.274 155.175 119.842C155.175 119.842 155.143 118.621 154.924 118.529C154.924 118.529 154.565 118.847 154.51 118.977C154.51 118.977 154.794 119.576 154.618 119.892C154.618 119.892 154.509 119.079 154.42 119.075C154.42 119.075 154.063 119.615 154.022 119.983C154.04 119.641 154.147 119.311 154.331 119.023C154.125 119.063 153.934 119.162 153.783 119.309C153.783 119.309 153.839 118.928 154.42 118.894C154.42 118.894 154.716 118.485 154.796 118.461C154.796 118.461 154.217 118.412 153.867 118.568C153.867 118.568 154.175 118.209 154.901 118.372L155.307 118.04C155.307 118.04 154.546 117.936 154.223 118.051C154.223 118.051 154.594 117.733 155.417 117.966L155.858 117.7C155.858 117.7 155.21 117.56 154.822 117.611C154.822 117.611 155.231 117.39 155.987 117.629L156.303 117.487C156.303 117.487 155.828 117.394 155.689 117.38C155.549 117.365 155.543 117.327 155.543 117.327C155.844 117.275 156.153 117.309 156.436 117.425C156.436 117.425 157.109 117.179 157.098 117.138Z" fill="#00A2F3"/>
<ellipse opacity="0.1" cx="154.468" cy="120.51" rx="2.70247" ry="0.457092" fill="#00A2F3"/>
<rect width="22.6747" height="40.5258" rx="4.73723" transform="matrix(0.308746 -0.951145 0.95086 0.30962 123.921 56.0625)" fill="white"/>
<g opacity="0.2">
<ellipse cx="135.228" cy="46.5029" rx="4.16049" ry="4.16701" fill="#00A2F3"/>
</g>
<g opacity="0.2">
<rect width="1.14124" height="18.1293" transform="matrix(0.308746 -0.951145 0.95086 0.30962 145.183 45.7539)" fill="#00A2F3"/>
</g>
<g opacity="0.2">
<rect width="1.14124" height="9.23514" transform="matrix(0.308746 -0.951145 0.95086 0.309621 144.284 48.5215)" fill="#00A2F3"/>
</g>
<g opacity="0.2">
<rect width="1.14124" height="14.9368" transform="matrix(0.308746 -0.951145 0.95086 0.30962 143.384 51.291)" fill="#00A2F3"/>
</g>
<g opacity="0.2">
<rect width="1.14124" height="18.1293" transform="matrix(0.308746 -0.951145 0.95086 0.309621 142.486 54.0586)" fill="#00A2F3"/>
</g>
<g opacity="0.5">
<rect width="2.20675" height="5.01696" transform="matrix(0.308746 -0.951145 0.95086 0.309621 153.328 63.1289)" fill="#00A2F3"/>
</g>
<rect width="22.3455" height="34.7636" rx="4" transform="matrix(0.540159 -0.841563 0.840794 0.541356 120.386 95.4434)" fill="white"/>
<rect width="6.32209" height="1.48656" transform="matrix(0.535672 -0.844426 0.843668 0.536866 124.717 94.1309)" fill="#DFE3E8"/>
<rect width="13.8847" height="1.36312" transform="matrix(0.535671 -0.844427 0.843667 0.536866 128.726 95.2129)" fill="#DFE3E8"/>
<rect width="13.8847" height="1.36312" transform="matrix(0.535671 -0.844427 0.843667 0.536866 131.183 96.7754)" fill="#DFE3E8"/>
<rect width="13.8847" height="1.36313" transform="matrix(0.535672 -0.844426 0.843668 0.536866 133.639 98.3398)" fill="#DFE3E8"/>
<rect width="13.8651" height="1.36122" transform="matrix(0.540159 -0.841563 0.840793 0.541356 136.18 100.605)" fill="#DFE3E8"/>
<rect width="13.8847" height="1.36312" transform="matrix(0.535671 -0.844427 0.843667 0.536866 138.551 101.465)" fill="#F4F6F8"/>
<rect width="13.8847" height="1.36312" transform="matrix(0.535671 -0.844427 0.843667 0.536866 141.008 103.027)" fill="#F4F6F8"/>
<rect width="3.59535" height="3.59296" transform="matrix(0.53567 -0.844427 0.843666 0.536868 151.321 96.3672)" fill="#DFE3E8"/>
<path d="M119.991 75.504L99.6823 75.7232C98.9221 75.7312 98.3099 76.3504 98.3092 77.1118V78.7927C98.3087 79.5465 97.7084 80.1625 96.956 80.1812L82.3014 80.5334C81.6623 80.5494 81.0951 80.1257 80.9282 79.5075L80.2397 76.9736C80.0746 76.3623 79.5174 75.9403 78.8851 75.9478L59.3098 76.1591C58.9039 76.163 58.5202 76.345 58.2598 76.6569C57.9994 76.9688 57.8886 77.3793 57.9566 77.7802L65.8318 124.202C65.9447 124.868 66.5197 125.357 67.1944 125.359L129.037 125.625C129.451 125.626 129.844 125.442 130.109 125.123C130.374 124.804 130.482 124.382 130.404 123.975L121.367 76.6321C121.241 75.9723 120.662 75.4972 119.991 75.504Z" fill="url(#paint1_linear_1493_90491)"/>
<ellipse opacity="0.1" cx="53.5695" cy="115.462" rx="2.15056" ry="0.296318" fill="#00A2F3"/>
<ellipse opacity="0.1" cx="45.3322" cy="116.298" rx="2.15056" ry="0.296314" fill="#00A2F3"/>
<ellipse opacity="0.1" cx="48.6289" cy="118.681" rx="1.52835" ry="0.209946" fill="#00A2F3"/>
<ellipse opacity="0.1" cx="40.0796" cy="118.47" rx="1.52835" ry="0.209946" fill="#00A2F3"/>
<path d="M45.2855 116.233C45.2855 116.233 48.3011 106.331 44.8132 102.365C42.2036 99.3976 39.2411 99.7524 37.9145 100.119C37.2202 100.305 36.6422 100.786 36.333 101.436C35.8687 102.438 35.9523 104.064 39.2265 105.963C44.7071 109.141 45.0481 113.501 45.0481 113.501L45.2855 116.233Z" fill="#00A2F3"/>
<path d="M38.3882 101.523C38.3882 101.523 47.277 104.314 45.287 116.233" stroke="#004C2C" stroke-width="0.5" stroke-linecap="round"/>
<path d="M43.5806 102.521C43.5806 102.521 42.3561 103.348 42.7461 104.59" stroke="#004C2C" stroke-width="0.5" stroke-linecap="round"/>
<path d="M39.2798 103.257C39.2798 103.257 40.028 102.495 40.9395 102.916" stroke="#004C2C" stroke-width="0.5" stroke-linecap="round"/>
<path d="M42.7939 107.093C42.7939 107.093 44.1087 106.428 44.4483 107.262" stroke="#004C2C" stroke-width="0.5" stroke-linecap="round"/>
<path d="M46.0458 108.483C46.0458 108.483 45.0588 108.405 45.0415 108.882" stroke="#004C2C" stroke-width="0.5" stroke-linecap="round"/>
<path d="M45.4078 116.311C45.4078 116.311 41.8748 109.114 40.905 109.268C40.4446 109.344 40.2324 109.8 40.1355 110.254C40.0164 110.844 40.0837 111.456 40.3279 112.005C40.8294 113.161 42.176 115.347 45.4078 116.311Z" fill="#00A2F3"/>
<path d="M40.9312 110.637C40.9312 110.637 44.6379 116.021 45.3543 116.257" stroke="#004C2C" stroke-width="0.5" stroke-linecap="round"/>
<path d="M40.5903 111.479H41.4553" stroke="#004C2C" stroke-width="0.5" stroke-linecap="round"/>
<path d="M41.6265 113.447L42.9837 113.506" stroke="#004C2C" stroke-width="0.5" stroke-linecap="round"/>
<path d="M42.4529 111.871L42.3057 112.579" stroke="#004C2C" stroke-width="0.5" stroke-linecap="round"/>
<path d="M43.895 114.025L43.8685 114.669" stroke="#004C2C" stroke-width="0.5" stroke-linecap="round"/>
<path d="M45.3027 116.311C45.3027 116.311 48.8344 109.114 49.8042 109.268C50.2659 109.344 50.4781 109.8 50.5737 110.254C50.6927 110.844 50.6255 111.456 50.3813 112.005C49.8798 113.161 48.5319 115.347 45.3027 116.311Z" fill="#00A2F3"/>
<path d="M49.779 110.637C49.779 110.637 46.0643 116.021 45.3545 116.257" stroke="#004C2C" stroke-width="0.5" stroke-linecap="round"/>
<path d="M50.1199 111.479H49.2549" stroke="#004C2C" stroke-width="0.5" stroke-linecap="round"/>
<path d="M49.0838 113.447L47.7266 113.506" stroke="#004C2C" stroke-width="0.5" stroke-linecap="round"/>
<path d="M48.2573 111.871L48.4046 112.579" stroke="#004C2C" stroke-width="0.5" stroke-linecap="round"/>
<path d="M46.8153 114.025L46.8418 114.669" stroke="#004C2C" stroke-width="0.5" stroke-linecap="round"/>
<path d="M39.2371 117.991C39.141 117.913 39.0711 117.807 39.0368 117.687C39.003 117.563 39.0621 117.433 39.1774 117.377C39.3101 117.328 39.4428 117.417 39.5489 117.51C39.6551 117.603 39.7758 117.702 39.9084 117.679C39.7652 117.549 39.7007 117.353 39.7386 117.164C39.7441 117.125 39.7602 117.089 39.7851 117.059C39.8567 116.981 39.9867 117.015 40.073 117.076C40.3383 117.267 40.4219 117.638 40.4232 117.973C40.4365 117.85 40.4365 117.726 40.4232 117.603C40.4161 117.478 40.4718 117.357 40.5718 117.28C40.6364 117.245 40.7092 117.228 40.7827 117.23C40.906 117.212 41.031 117.248 41.1263 117.328C41.2193 117.455 41.2138 117.629 41.1131 117.749C41.0114 117.864 40.8912 117.96 40.7575 118.034C40.6561 118.095 40.5695 118.178 40.5041 118.277C40.4961 118.29 40.4899 118.305 40.4856 118.32H39.7134C39.5406 118.232 39.3804 118.122 39.2371 117.991Z" fill="#00A2F3"/>
<path d="M52.6963 115.093C52.5999 115.015 52.53 114.909 52.496 114.79C52.4619 114.667 52.5205 114.536 52.6353 114.48C52.7679 114.431 52.9006 114.52 53.0067 114.613C53.1129 114.706 53.2323 114.807 53.3689 114.787C53.2257 114.658 53.1607 114.463 53.1978 114.273C53.2037 114.234 53.2202 114.198 53.2455 114.168C53.3172 114.091 53.4472 114.124 53.5334 114.184C53.8054 114.377 53.8823 114.747 53.8837 115.082C53.897 114.959 53.897 114.835 53.8837 114.711C53.8716 114.587 53.9212 114.465 54.0163 114.385C54.0812 114.35 54.1539 114.333 54.2273 114.335C54.3503 114.318 54.475 114.353 54.5709 114.432C54.6641 114.56 54.6581 114.734 54.5563 114.855C54.4554 114.969 54.3356 115.066 54.2021 115.139C54.1006 115.2 54.014 115.283 53.9487 115.381C53.9409 115.395 53.9347 115.41 53.9301 115.425H53.1752C53.0011 115.337 52.8399 115.225 52.6963 115.093Z" fill="#00A2F3"/>
<path d="M48.2106 117.992C48.1146 117.914 48.0444 117.808 48.009 117.688C47.9751 117.565 48.0343 117.434 48.1496 117.379C48.2823 117.329 48.4149 117.418 48.5211 117.511C48.6272 117.604 48.7453 117.705 48.8833 117.687C48.7402 117.557 48.6754 117.361 48.7121 117.171C48.718 117.133 48.7346 117.096 48.7599 117.066C48.8315 116.989 48.9615 117.022 49.0478 117.084C49.3197 117.275 49.3954 117.646 49.398 117.981C49.4113 117.858 49.4113 117.734 49.398 117.611C49.3876 117.486 49.4397 117.363 49.5373 117.284C49.6018 117.249 49.6747 117.231 49.7483 117.234C49.8715 117.216 49.9964 117.252 50.0919 117.332C50.1849 117.459 50.1789 117.633 50.0773 117.753C49.9761 117.867 49.8564 117.964 49.7231 118.038C49.6216 118.099 49.535 118.182 49.4697 118.281C49.4616 118.294 49.4554 118.308 49.4511 118.323H48.6816C48.5106 118.235 48.3522 118.123 48.2106 117.992Z" fill="#00A2F3"/>
<ellipse opacity="0.1" cx="37.9819" cy="39.1671" rx="2.86963" ry="2.87412" fill="#00A2F3"/>
<ellipse opacity="0.1" cx="175.97" cy="62.1358" rx="2.86963" ry="2.87412" fill="#00A2F3"/>
<ellipse opacity="0.1" cx="124.385" cy="30.0401" rx="2.86963" ry="2.87412" fill="#00A2F3"/>
<ellipse opacity="0.1" cx="43.7214" cy="55.0238" rx="4.80925" ry="4.81678" fill="#00A2F3"/>
<path fill-rule="evenodd" clip-rule="evenodd" d="M91.9255 93.793C88.3865 93.793 85.5176 96.6664 85.5176 100.211C85.5176 103.755 88.3865 106.629 91.9255 106.629C95.4645 106.629 98.3334 103.755 98.3334 100.211C98.3334 96.6664 95.4645 93.793 91.9255 93.793V93.793Z" fill="#00A2F3"/>
<defs>
<linearGradient id="paint0_linear_1493_90491" x1="146.409" y1="188.959" x2="224.973" y2="12.1679" gradientUnits="userSpaceOnUse">
<stop stop-color="#1DB7CF"/>
<stop offset="1" stop-color="#1DB7CF" stop-opacity="0.01"/>
</linearGradient>
<linearGradient id="paint1_linear_1493_90491" x1="79.7662" y1="61.4947" x2="58.2118" y2="125.041" gradientUnits="userSpaceOnUse">
<stop stop-color="#6AE0EC"/>
<stop offset="1" stop-color="#1DB7CF"/>
</linearGradient>
</defs>
</svg>
