<svg width="116" height="116" viewBox="0 0 116 116" fill="none" xmlns="http://www.w3.org/2000/svg">
<g clip-path="url(#clip0_1720_19504)">
<g filter="url(#filter0_dd_1720_19504)">
<mask id="path-1-outside-1_1720_19504" maskUnits="userSpaceOnUse" x="3.60179" y="-4.53521" width="125.087" height="126.149" fill="black">
<rect fill="white" x="3.60179" y="-4.53521" width="125.087" height="126.149"/>
<path d="M15.3285 45.3704L49.4621 20.4578C50.433 19.7494 51.7935 19.96 52.5004 20.9279L58.2828 28.8466L79.2643 18.9066C80.3485 18.3928 81.647 18.8546 82.1643 19.9387L109.051 76.2965C109.568 77.3806 109.109 78.6756 108.025 79.1892L69.9776 97.217C68.8934 97.7305 67.5949 97.2675 67.0777 96.1835L64.9238 91.6701L54.6284 99.1854C53.6575 99.8938 52.297 99.6833 51.5901 98.7154L14.851 48.4062C14.1441 47.4382 14.3576 46.0791 15.3285 45.3704Z"/>
</mask>
<path d="M15.3285 45.3704L49.4621 20.4578C50.433 19.7494 51.7935 19.96 52.5004 20.9279L58.2828 28.8466L79.2643 18.9066C80.3485 18.3928 81.647 18.8546 82.1643 19.9387L109.051 76.2965C109.568 77.3806 109.109 78.6756 108.025 79.1892L69.9776 97.217C68.8934 97.7305 67.5949 97.2675 67.0777 96.1835L64.9238 91.6701L54.6284 99.1854C53.6575 99.8938 52.297 99.6833 51.5901 98.7154L14.851 48.4062C14.1441 47.4382 14.3576 46.0791 15.3285 45.3704Z" fill="white"/>
<path d="M15.3285 45.3704L13.4062 42.7366L13.4061 42.7367L15.3285 45.3704ZM49.4621 20.4578L47.5403 17.8237L47.5398 17.824L49.4621 20.4578ZM52.5004 20.9279L55.1338 19.005L55.1336 19.0047L52.5004 20.9279ZM58.2828 28.8466L55.6495 30.7695L57.2406 32.9484L59.6788 31.7933L58.2828 28.8466ZM79.2643 18.9066L80.6603 21.8533L80.6604 21.8532L79.2643 18.9066ZM82.1643 19.9387L85.1072 18.5347L85.1072 18.5347L82.1643 19.9387ZM109.051 76.2965L111.995 74.893L111.994 74.8925L109.051 76.2965ZM108.025 79.1892L106.628 76.2426L106.628 76.2426L108.025 79.1892ZM69.9776 97.217L71.3734 100.164L71.3738 100.164L69.9776 97.217ZM67.0777 96.1835L70.0206 94.7794L70.0204 94.7791L67.0777 96.1835ZM64.9238 91.6701L67.8666 90.2658L66.1746 86.7201L63.0014 89.0365L64.9238 91.6701ZM54.6284 99.1854L56.5503 101.82L56.5509 101.819L54.6284 99.1854ZM51.5901 98.7154L48.9568 100.638L48.9568 100.638L51.5901 98.7154ZM14.851 48.4062L17.4843 46.4832L17.4843 46.4832L14.851 48.4062ZM15.3285 45.3704L17.2508 48.0042L51.3844 23.0916L49.4621 20.4578L47.5398 17.824L13.4062 42.7366L15.3285 45.3704ZM49.4621 20.4578L51.3839 23.092C50.9072 23.4397 50.227 23.3435 49.8673 22.851L52.5004 20.9279L55.1336 19.0047C53.3601 16.5764 49.9588 16.0592 47.5403 17.8237L49.4621 20.4578ZM52.5004 20.9279L49.8671 22.8508L55.6495 30.7695L58.2828 28.8466L60.9161 26.9237L55.1338 19.005L52.5004 20.9279ZM58.2828 28.8466L59.6788 31.7933L80.6603 21.8533L79.2643 18.9066L77.8682 15.9598L56.8868 25.8999L58.2828 28.8466ZM79.2643 18.9066L80.6604 21.8532C80.1189 22.1098 79.4774 21.8794 79.2214 21.3428L82.1643 19.9387L85.1072 18.5347C83.8167 15.8297 80.5781 14.6759 77.8681 15.9599L79.2643 18.9066ZM82.1643 19.9387L79.2214 21.3427L106.108 77.7005L109.051 76.2965L111.994 74.8925L85.1072 18.5347L82.1643 19.9387ZM109.051 76.2965L106.108 77.7C105.85 77.1588 106.079 76.5028 106.628 76.2426L108.025 79.1892L109.421 82.1359C112.138 80.8483 113.287 77.6023 111.995 74.893L109.051 76.2965ZM108.025 79.1892L106.628 76.2426L68.5814 94.2704L69.9776 97.217L71.3738 100.164L109.421 82.1358L108.025 79.1892ZM69.9776 97.217L68.5818 94.2702C69.1261 94.0124 69.7659 94.2456 70.0206 94.7794L67.0777 96.1835L64.1348 97.5875C65.4238 100.289 68.6608 101.449 71.3734 100.164L69.9776 97.217ZM67.0777 96.1835L70.0204 94.7791L67.8666 90.2658L64.9238 91.6701L61.9811 93.0745L64.1349 97.5878L67.0777 96.1835ZM64.9238 91.6701L63.0014 89.0365L52.706 96.5517L54.6284 99.1854L56.5509 101.819L66.8463 94.3038L64.9238 91.6701ZM54.6284 99.1854L52.7066 96.5513C53.1831 96.2036 53.8635 96.2997 54.2233 96.7923L51.5901 98.7154L48.9568 100.638C50.7304 103.067 54.1318 103.584 56.5503 101.82L54.6284 99.1854ZM51.5901 98.7154L54.2233 96.7924L17.4843 46.4832L14.851 48.4062L12.2177 50.3292L48.9568 100.638L51.5901 98.7154ZM14.851 48.4062L17.4843 46.4832C17.8439 46.9757 17.7288 47.6553 17.2509 48.0041L15.3285 45.3704L13.4061 42.7367C10.9864 44.5029 10.4442 47.9007 12.2178 50.3292L14.851 48.4062Z" fill="white" mask="url(#path-1-outside-1_1720_19504)"/>
</g>
<path d="M79.5208 18.8375L41.4739 36.8648C40.3897 37.3785 39.93 38.6738 40.4473 39.758L67.3346 96.1152C67.8519 97.1993 69.1501 97.6618 70.2343 97.1481L108.281 79.1208C109.365 78.6071 109.825 77.3118 109.308 76.2276L82.4205 19.8704C81.9033 18.7862 80.605 18.3238 79.5208 18.8375Z" fill="#BEE2F6"/>
<path d="M78.8974 27.1366C79.2939 27.9703 78.774 29.0481 77.7383 29.5395L48.2436 43.5471C47.2079 44.0385 46.042 43.7633 45.6455 42.9296C45.249 42.0959 45.769 41.0181 46.8046 40.5268L76.2994 26.5191C77.335 26.0278 78.4969 26.3045 78.8934 27.1383L78.8974 27.1366Z" fill="white"/>
<path d="M81.252 31.393C81.4645 31.8394 81.1873 32.413 80.6397 32.6713L50.611 46.9407C50.0566 47.2069 49.4434 47.0563 49.2309 46.6099C49.0184 46.1634 49.2869 45.5933 49.8432 45.3316L79.8719 31.0621C80.4195 30.8039 81.0413 30.9509 81.252 31.393Z" fill="#FFFDFD"/>
<path opacity="0.6" d="M87.6283 42.9601C88.1233 43.9966 87.6509 45.2464 86.5718 45.7543L77.2971 50.1485C76.2198 50.6607 74.9495 50.2331 74.4544 49.1966L71.5757 43.1646C71.0824 42.1324 71.5531 40.8782 72.6322 40.3703L81.9068 35.9762C82.9816 35.4701 84.2544 35.8915 84.7495 36.928L87.6283 42.9601Z" fill="#61AAEA"/>
<path opacity="0.6" d="M92.7658 53.7687C93.2609 54.8052 92.7884 56.055 91.7093 56.5629L82.4347 60.957C81.3574 61.4693 80.087 61.0417 79.592 60.0052L76.715 53.9775C76.22 52.941 76.6924 51.6912 77.7697 51.1789L87.0461 46.7892C88.1191 46.2786 89.3938 46.7045 89.8889 47.741L92.7676 53.7731L92.7658 53.7687Z" fill="#3375F9"/>
<path d="M86.3383 82.7063C86.8328 83.7414 86.3609 84.9896 85.2875 85.4951L72.5863 91.5084C71.5086 92.0156 70.2416 91.5929 69.7472 90.5578L62.0269 74.3759C61.5325 73.3408 62.0044 72.0926 63.0803 71.581L75.7814 65.5677C76.8592 65.0605 78.1262 65.4831 78.6206 66.5183L86.3409 82.7002L86.3383 82.7063Z" fill="white"/>
<path d="M68.8499 43.7448C68.9838 44.0233 68.8566 44.3567 68.5685 44.4942L51.5437 52.5854C51.2556 52.7229 50.9159 52.6099 50.7864 52.3295C50.6525 52.051 50.7797 51.7176 51.0677 51.5802L68.0926 43.4889C68.3807 43.3514 68.7203 43.4645 68.8542 43.743L68.8499 43.7448Z" fill="#FFFDFD"/>
<path d="M69.9119 45.9811C70.0458 46.2597 69.9186 46.593 69.6305 46.7305L52.6057 54.8218C52.3176 54.9592 51.9762 54.8418 51.8484 54.5659C51.7145 54.2873 51.8417 53.954 52.1298 53.8165L69.1546 45.7252C69.4427 45.5877 69.7823 45.7008 69.9162 45.9793L69.9119 45.9811Z" fill="#FFFDFD"/>
<path d="M70.9788 48.2135C71.1127 48.4921 70.9855 48.8254 70.6974 48.9629L53.6726 57.0542C53.3845 57.1917 53.0448 57.0786 52.9153 56.7983C52.7814 56.5197 52.9086 56.1864 53.1966 56.0489L70.2215 47.9576C70.5096 47.8202 70.8492 47.9332 70.9831 48.2118L70.9788 48.2135Z" fill="#FFFDFD"/>
<path d="M72.0412 50.4539C72.1751 50.7325 72.048 51.0658 71.7599 51.2033L54.735 59.2946C54.447 59.4321 54.1055 59.3146 53.9734 59.0405C53.8395 58.7619 53.9667 58.4285 54.2547 58.2911L71.2796 50.1998C71.5677 50.0623 71.9091 50.1798 72.0412 50.4539Z" fill="#FFFDFD"/>
<path d="M73.1033 52.6901C73.2372 52.9686 73.11 53.302 72.8219 53.4395L55.7971 61.5307C55.509 61.6682 55.1693 61.5552 55.0398 61.2748C54.9059 60.9963 55.0331 60.6629 55.3212 60.5255L72.346 52.4342C72.6341 52.2967 72.9755 52.4141 73.1076 52.6883L73.1033 52.6901Z" fill="#FFFDFD"/>
<path d="M74.1658 54.9245C74.2997 55.203 74.1725 55.5364 73.8844 55.6738L56.8596 63.7651C56.5715 63.9026 56.2319 63.7895 56.1023 63.5092C55.9684 63.2307 56.0956 62.8973 56.3837 62.7598L73.4085 54.6686C73.6966 54.5311 74.0363 54.6441 74.1701 54.9227L74.1658 54.9245Z" fill="#FFFDFD"/>
<path d="M75.2283 57.1588C75.3622 57.4374 75.235 57.7707 74.9469 57.9082L57.9221 65.9995C57.634 66.1369 57.2943 66.0239 57.1648 65.7436C57.0309 65.465 57.1581 65.1317 57.4461 64.9942L74.471 56.9029C74.7591 56.7655 75.1005 56.8829 75.2326 57.1571L75.2283 57.1588Z" fill="#FFFDFD"/>
<path d="M76.2903 59.3971C76.4242 59.6757 76.297 60.009 76.009 60.1465L58.9841 68.2378C58.696 68.3752 58.3564 68.2622 58.2268 67.9819C58.0929 67.7033 58.2201 67.37 58.5082 67.2325L75.533 59.1412C75.8211 59.0038 76.1608 59.1168 76.2947 59.3954L76.2903 59.3971Z" fill="#FFFDFD"/>
<path d="M77.3528 61.6335C77.4867 61.912 77.3595 62.2454 77.0715 62.3828L60.0466 70.4741C59.7585 70.6116 59.4189 70.4985 59.2893 70.2182C59.1554 69.9397 59.2826 69.6063 59.5707 69.4688L76.5955 61.3776C76.8836 61.2401 77.2233 61.3531 77.3572 61.6317L77.3528 61.6335Z" fill="#FFFDFD"/>
<path d="M96.213 57.5607C96.3469 57.8392 96.2545 58.1584 96.0124 58.272L81.6549 65.0946C81.4128 65.2083 81.1078 65.0812 80.9783 64.8009C80.8444 64.5224 80.9368 64.2032 81.1789 64.0896L95.5365 57.267C95.7786 57.1533 96.0809 57.2866 96.213 57.5607Z" fill="#FFFDFD"/>
<path d="M97.2751 59.8008C97.409 60.0793 97.3209 60.3967 97.0788 60.5103L82.7213 67.3329C82.4792 67.4466 82.1743 67.3195 82.0447 67.0392C81.9108 66.7607 82.0032 66.4415 82.2453 66.3279L96.6029 59.5053C96.845 59.3916 97.1473 59.5249 97.2794 59.799L97.2751 59.8008Z" fill="#FFFDFD"/>
<path d="M98.3376 62.0351C98.4715 62.3136 98.3791 62.6328 98.1413 62.7447L83.7838 69.5673C83.5417 69.681 83.2368 69.5538 83.1072 69.2736C82.9733 68.9951 83.0658 68.6759 83.3078 68.5622L97.6654 61.7396C97.9075 61.626 98.2098 61.7593 98.3419 62.0334L98.3376 62.0351Z" fill="#FFFDFD"/>
<path d="M99.3996 64.2734C99.5317 64.5475 99.4454 64.8693 99.2033 64.983L84.8458 71.8056C84.6037 71.9192 84.2988 71.7921 84.1692 71.5119C84.0353 71.2334 84.1278 70.9142 84.3699 70.8005L98.7274 63.9779C98.9695 63.8643 99.2701 63.9932 99.404 64.2717L99.3996 64.2734Z" fill="#FFFDFD"/>
<path d="M100.467 66.5117C100.6 66.7902 100.508 67.1094 100.27 67.2213L85.9127 74.0439C85.6706 74.1575 85.3657 74.0304 85.2361 73.7501C85.1022 73.4716 85.1947 73.1525 85.4368 73.0388L99.7943 66.2162C100.036 66.1026 100.337 66.2315 100.471 66.5099L100.467 66.5117Z" fill="#FFFDFD"/>
<path d="M101.529 68.7461C101.663 69.0246 101.57 69.3438 101.333 69.4556L86.9752 76.2782C86.7331 76.3919 86.4282 76.2648 86.2986 75.9845C86.1665 75.7104 86.2572 75.3868 86.4993 75.2732L100.857 68.4506C101.099 68.3369 101.399 68.4658 101.533 68.7443L101.529 68.7461Z" fill="#FFFDFD"/>
<path d="M102.591 70.9806C102.725 71.2591 102.632 71.5783 102.39 71.692L88.0328 78.5146C87.7907 78.6282 87.4858 78.5011 87.3562 78.2208C87.2223 77.9423 87.3148 77.6232 87.5569 77.5095L101.914 70.6869C102.156 70.5733 102.459 70.7065 102.591 70.9806Z" fill="#FFFDFD"/>
<path d="M103.654 73.2148C103.787 73.4933 103.699 73.8107 103.457 73.9244L89.0997 80.747C88.8576 80.8606 88.5527 80.7335 88.4231 80.4533C88.2892 80.1748 88.3817 79.8556 88.6238 79.7419L102.981 72.9193C103.223 72.8057 103.526 72.939 103.658 73.2131L103.654 73.2148Z" fill="#FFFDFD"/>
<path d="M104.716 75.4551C104.85 75.7336 104.757 76.0527 104.52 76.1646L90.1622 82.9872C89.9201 83.1009 89.6152 82.9738 89.4856 82.6935C89.3517 82.415 89.4442 82.0958 89.6863 81.9822L104.044 75.1596C104.286 75.0459 104.586 75.1748 104.72 75.4533L104.716 75.4551Z" fill="#FFFDFD"/>
<path d="M15.1061 48.3425L51.8459 98.6515C52.5529 99.6195 53.9131 99.8298 54.8841 99.1211L89.0176 74.2093C89.9886 73.5006 90.2026 72.1414 89.4956 71.1733L52.7558 20.8643C52.0488 19.8962 50.6886 19.6859 49.7176 20.3946L15.5842 45.3065C14.6132 46.0151 14.3991 47.3744 15.1061 48.3425Z" fill="#FEE6C6"/>
<path d="M58.8825 37.9065C59.2013 38.3458 59.1067 38.9618 58.668 39.2797L30.8495 59.5789C30.4108 59.8969 29.7948 59.8011 29.4761 59.3617C29.1574 58.9224 29.2519 58.3064 29.6906 57.9885L57.5091 37.6893C57.9478 37.3713 58.5607 37.4636 58.8825 37.9065Z" fill="white"/>
<path d="M61.322 41.2444C61.6407 41.6837 61.5462 42.2996 61.1075 42.6176L33.2889 62.9168C32.8503 63.2347 32.2343 63.139 31.9156 62.6996C31.5968 62.2602 31.6914 61.6443 32.13 61.3264L59.9486 41.0272C60.3872 40.7092 61.0032 40.805 61.322 41.2444Z" fill="white"/>
<path d="M63.7644 44.5881C64.0831 45.0275 63.9885 45.6434 63.5499 45.9613L35.7313 66.2605C35.2927 66.5785 34.6767 66.4827 34.3579 66.0434C34.0392 65.604 34.1338 64.9881 34.5724 64.6701L62.391 44.3709C62.8296 44.053 63.4456 44.1487 63.7644 44.5881Z" fill="white"/>
<path d="M66.2067 47.9319C66.5255 48.3712 66.4309 48.9871 65.9923 49.3051L38.1737 69.6043C37.735 69.9222 37.1222 69.83 36.8003 69.3871C36.4816 68.9477 36.5761 68.3318 37.0148 68.0139L64.8334 47.7147C65.272 47.3967 65.888 47.4925 66.2067 47.9319Z" fill="white"/>
<path d="M68.6457 51.2795C68.9645 51.7189 68.8699 52.3348 68.4312 52.6528L40.6127 72.9519C40.174 73.2699 39.5611 73.1777 39.2393 72.7348C38.9205 72.2954 39.0151 71.6795 39.4538 71.3615L67.2723 51.0623C67.711 50.7444 68.327 50.8401 68.6457 51.2795Z" fill="white"/>
<path d="M71.0847 54.6174C71.4034 55.0568 71.3089 55.6727 70.8702 55.9906L43.0516 76.2898C42.613 76.6078 42.0001 76.5155 41.6783 76.0727C41.3595 75.6333 41.4541 75.0174 41.8927 74.6994L69.7113 54.4002C70.1499 54.0823 70.7628 54.1745 71.0847 54.6174Z" fill="white"/>
<path d="M73.5271 57.9612C73.8458 58.4005 73.7512 59.0164 73.3126 59.3344L45.494 79.6336C45.0554 79.9515 44.4394 79.8558 44.1206 79.4164C43.8019 78.977 43.8965 78.3611 44.3351 78.0432L72.1537 57.744C72.5923 57.426 73.2083 57.5218 73.5271 57.9612Z" fill="white"/>
<path d="M75.966 61.3088C76.2848 61.7482 76.1902 62.3641 75.7515 62.6821L47.933 82.9812C47.4943 83.2992 46.8815 83.207 46.5596 82.7641C46.2409 82.3247 46.3354 81.7088 46.7741 81.3908L74.5926 61.0916C75.0313 60.7737 75.6442 60.8659 75.966 61.3088Z" fill="white"/>
<path d="M78.4084 64.6545C78.7271 65.0939 78.6326 65.7098 78.1939 66.0278L50.3754 86.3269C49.9367 86.6449 49.3207 86.5491 49.002 86.1098C48.6832 85.6704 48.7778 85.0545 49.2165 84.7365L77.035 64.4373C77.4737 64.1194 78.0866 64.2116 78.4084 64.6545Z" fill="white"/>
<path d="M80.8477 67.9928C81.1664 68.4321 81.0719 69.0481 80.6332 69.366L52.8146 89.6652C52.376 89.9832 51.7631 89.8909 51.4444 89.4516C51.1256 89.0122 51.2202 88.3963 51.6588 88.0783L79.4774 67.7791C79.9161 67.4612 80.532 67.5569 80.8508 67.9963L80.8477 67.9928Z" fill="white"/>
<path d="M83.2902 71.3362C83.609 71.7755 83.5144 72.3914 83.0758 72.7094L55.2572 93.0086C54.8186 93.3265 54.2057 93.2343 53.8838 92.7914C53.5651 92.352 53.6596 91.7361 54.0983 91.4182L81.9169 71.119C82.3555 70.801 82.9715 70.8968 83.2902 71.3362Z" fill="white"/>
<path opacity="0.6" d="M54.5149 31.78C55.2436 32.762 55.1111 34.0712 54.2195 34.711L48.8912 38.5105C47.9996 39.1503 46.6825 38.8685 45.9572 37.8904L42.683 33.4914C41.9508 32.5125 42.0868 31.2003 42.9749 30.5635L48.3032 26.7641C49.1948 26.1242 50.5119 26.406 51.2407 27.381L54.5184 31.7769L54.5149 31.78Z" fill="#FFA600"/>
<path d="M40.4156 35.6016C40.9952 36.3934 40.7959 37.5213 39.9741 38.1208L24.4959 49.416C23.6741 50.0155 22.54 49.8568 21.9635 49.0685C21.3839 48.2767 21.5833 47.1488 22.405 46.5494L37.8832 35.2541C38.705 34.6547 39.836 34.8098 40.4156 35.6016Z" fill="#FFD12C"/>
<path d="M43.7608 40.1836C44.3404 40.9754 44.1411 42.1034 43.3193 42.7028L27.8411 53.998C27.0193 54.5975 25.8883 54.4423 25.3088 53.6506C24.7292 52.8588 24.9285 51.7308 25.7503 51.1314L41.2284 39.8362C42.0502 39.2367 43.1843 39.3954 43.7608 40.1836Z" fill="#C3C609"/>
</g>
<defs>
<filter id="filter0_dd_1720_19504" x="2.43769" y="7.5739" width="118.822" height="104.9" filterUnits="userSpaceOnUse" color-interpolation-filters="sRGB">
<feFlood flood-opacity="0" result="BackgroundImageFix"/>
<feColorMatrix in="SourceAlpha" type="matrix" values="0 0 0 0 0 0 0 0 0 0 0 0 0 0 0 0 0 0 127 0" result="hardAlpha"/>
<feOffset dy="0.873517"/>
<feGaussianBlur stdDeviation="4.36758"/>
<feColorMatrix type="matrix" values="0 0 0 0 0.0313726 0 0 0 0 0.380392 0 0 0 0 0.627451 0 0 0 0.12 0"/>
<feBlend mode="normal" in2="BackgroundImageFix" result="effect1_dropShadow_1720_19504"/>
<feColorMatrix in="SourceAlpha" type="matrix" values="0 0 0 0 0 0 0 0 0 0 0 0 0 0 0 0 0 0 127 0" result="hardAlpha"/>
<feOffset/>
<feGaussianBlur stdDeviation="2.62055"/>
<feComposite in2="hardAlpha" operator="out"/>
<feColorMatrix type="matrix" values="0 0 0 0 0.0304674 0 0 0 0 0.379075 0 0 0 0 0.62808 0 0 0 0.1 0"/>
<feBlend mode="normal" in2="effect1_dropShadow_1720_19504" result="effect2_dropShadow_1720_19504"/>
<feBlend mode="normal" in="SourceGraphic" in2="effect2_dropShadow_1720_19504" result="shape"/>
</filter>
<clipPath id="clip0_1720_19504">
<rect width="116" height="116" fill="white"/>
</clipPath>
</defs>
</svg>
