<svg width="117" height="116" viewBox="0 0 117 116" fill="none" xmlns="http://www.w3.org/2000/svg">
<g clip-path="url(#clip0_1632_9205)">
<g filter="url(#filter0_dd_1632_9205)">
<path d="M4.24157 83.0924C4.18971 82.608 4.2689 82.1023 4.50234 81.6317L29.5235 31.1877C29.4743 30.6044 29.5798 30.0004 29.8589 29.4377L30.2241 28.6991L30.2586 28.6307L30.2634 28.6199L33.0853 22.9332L33.1588 22.7945C33.5109 22.1671 34.0579 21.7124 34.6845 21.4625L36.4189 17.9673L36.4201 17.9626C37.2309 16.3348 39.153 15.6694 40.7736 16.3617L40.9299 16.4325L40.948 16.4406L41.3573 16.6455L41.4099 16.6683L49.9608 20.9117L49.9643 20.9136C50.0148 20.9388 50.0651 20.9652 50.1144 20.9929L50.2605 21.0801L50.2614 21.0803C51.2295 21.6904 51.7945 22.7269 51.835 23.8129C51.8386 23.9091 51.8398 24.0214 51.8323 24.1445L51.833 24.1458C51.8057 24.5884 51.6888 25.0282 51.485 25.4383L51.4872 25.4379L49.6901 29.0606C49.843 29.6975 49.772 30.3907 49.4327 31.0106L47.5992 34.3567L47.3739 34.8149L47.2221 35.1264C47.2176 35.1354 47.211 35.1434 47.2064 35.1524L46.48 36.6215C46.4762 36.6292 46.4712 36.6366 46.4672 36.6443L45.8016 37.9894C45.5461 38.5047 45.1489 38.9032 44.6818 39.1636L29.5811 69.6048L62.7686 35.8342C62.4238 34.1106 62.9074 32.2523 64.2364 30.8999L70.6113 24.4143C72.3696 22.626 75.0386 22.3003 77.135 23.4268L78.1109 22.4345C80.1914 20.3181 83.5597 20.223 85.7548 22.1718L85.9632 22.3665L85.963 22.3675L87.8142 24.1872C89.9993 26.3349 90.0305 29.8541 87.8829 32.0393L86.9099 33.0285C88.0818 35.1069 87.8068 37.7898 86.0444 39.5832L79.6706 46.0682C78.3417 47.4203 76.492 47.936 74.763 47.6214L38.0319 84.9974C37.7672 85.2668 37.4489 85.47 37.1037 85.6047L28.0317 89.4214C27.594 89.6055 27.1264 89.6633 26.6749 89.6067C25.3015 90.9741 23.0781 90.9882 21.6904 89.6246L21.6906 89.6237C21.1068 89.0497 20.7647 88.3231 20.6636 87.5699L19.8611 89.1881C19.6538 89.6297 19.328 90.0158 18.9035 90.2909L12.5576 94.4012L12.5585 94.4015L10.0394 96.035C7.91389 97.4138 5.08917 95.9979 4.92318 93.4698L4.80333 91.648C4.78658 91.3928 4.76258 91.0095 4.74166 90.6905C4.73121 90.5312 4.72099 90.3872 4.7142 90.2836C4.71082 90.2321 4.70804 90.1896 4.70615 90.1608C4.70522 90.1466 4.70494 90.1354 4.70445 90.1279C4.70421 90.1242 4.70368 90.1214 4.70355 90.1195L4.70333 90.1164L4.24157 83.0924ZM49.5187 30.463C49.4876 30.5433 49.4537 30.624 49.4144 30.7026L49.4134 30.7063C49.4533 30.6265 49.4877 30.5447 49.5187 30.463ZM46.7542 29.0096L49.109 24.26C49.1313 24.2154 49.1496 24.1692 49.162 24.1228L49.1837 23.9819C49.1851 23.9588 49.1861 23.9354 49.1853 23.9124L49.1844 23.9121C49.1852 23.9353 49.1851 23.9586 49.1837 23.9819C49.178 24.0755 49.1538 24.17 49.1092 24.2591L46.7542 29.0096ZM46.7396 29.1859C46.7536 29.2328 46.7818 29.2748 46.8218 29.306C46.8094 29.296 46.798 29.2851 46.7878 29.2733C46.7777 29.2614 46.7688 29.2489 46.7612 29.2355C46.7522 29.2197 46.7448 29.2031 46.7396 29.1859ZM46.7304 29.1306C46.7313 29.1456 46.7327 29.1604 46.7363 29.1748C46.7327 29.1604 46.7314 29.1456 46.7304 29.1306ZM46.7336 29.0707C46.7304 29.0873 46.7298 29.1039 46.73 29.1204C46.7297 29.1039 46.7304 29.0873 46.7336 29.0707ZM25.7654 71.3136L25.7663 71.3138L25.7656 71.3126L17.4612 88.0559L25.7654 71.3136ZM38.7959 19.1458C38.8183 19.1009 38.8452 19.0598 38.8748 19.0218C38.8454 19.0596 38.8185 19.1003 38.7962 19.1449L36.5076 23.7608L38.7959 19.1458ZM4.80511 84.469C4.81019 84.4754 4.81561 84.4814 4.82056 84.4875C4.79854 84.4604 4.77626 84.4289 4.75133 84.3953C4.77064 84.4214 4.78755 84.447 4.80511 84.469Z" fill="white"/>
</g>
<path d="M6.91564 82.8524L17.7034 88.043L42.9813 36.6944L32.1936 31.5039L6.91564 82.8524Z" fill="#FFD731"/>
<path d="M9.94007 84.3509L14.4648 86.5176L39.8525 35.1484L35.3277 32.9817L9.94007 84.3509Z" fill="#FFB521"/>
<path d="M17.524 88.0731L6.81726 82.8628L7.42159 90.3568L11.203 92.1946L17.524 88.0731Z" fill="#FFE98A"/>
<path d="M10.7594 92.4554C10.9323 92.3428 10.9152 92.0835 10.729 91.9933L7.77978 90.5648C7.59546 90.4755 7.38477 90.6198 7.40114 90.8242L7.65614 94.0074C7.67224 94.2084 7.89695 94.3198 8.06526 94.2101L10.7594 92.4554Z" fill="#19656D"/>
<path d="M31.9753 31.2435L43.5134 36.8945L47.1119 29.4648L35.5738 23.8137L31.9753 31.2435Z" fill="#2D9196"/>
<path d="M46.7745 29.2355L49.1764 24.2732C49.3506 23.917 49.1977 23.4843 48.833 23.3061L39.7115 18.8658C39.3498 18.6925 38.9169 18.8352 38.7418 19.1953L36.3399 24.1576L46.7706 29.2345L46.7745 29.2355Z" fill="#FF9F9F"/>
<path d="M32.6006 29.9046L44.1773 35.4621L44.3261 35.1497L32.7533 29.5932L32.6006 29.9046Z" fill="#FFD731"/>
<path d="M33.3382 28.4202L44.9149 33.9777L45.0636 33.6653L33.4909 28.1088L33.3382 28.4202Z" fill="#FFD731"/>
<path d="M34.0779 26.9319L45.6546 32.4895L45.8033 32.177L34.2267 26.6195L34.0779 26.9319Z" fill="#FFD731"/>
<path d="M34.8152 25.4456L46.387 31.006L46.5407 30.6907L34.964 25.1332L34.8152 25.4456Z" fill="#FFD731"/>
<path d="M84.632 34.0074L76.415 25.9395L28.1498 75.0958L36.3668 83.1638L84.632 34.0074Z" fill="#FF9E9E"/>
<path d="M84.3021 24.2562L86.1552 26.0757C87.2971 27.197 87.314 29.0384 86.1927 30.1804L83.5119 32.9107L77.5166 27.0241L80.1974 24.2938C81.3187 23.1518 83.1601 23.135 84.3021 24.2562Z" fill="#6F87F8"/>
<path d="M84.3202 33.6933L76.7313 26.242C75.6075 25.1386 73.802 25.1551 72.6986 26.2789L66.3278 32.7673C65.2244 33.8911 65.241 35.6966 66.3647 36.8L73.9536 44.2513C75.0774 45.3547 76.8828 45.3382 77.9862 44.2144L84.3571 37.726C85.4605 36.6022 85.4439 34.7967 84.3202 33.6933Z" fill="#82B6FF"/>
<path d="M23.7753 87.7634C23.423 87.4174 23.4178 86.85 23.7637 86.4977L26.6685 83.5393C27.0144 83.1869 27.5818 83.1818 27.9342 83.5277C28.2865 83.8737 28.2917 84.4411 27.9458 84.7935L25.041 87.7518C24.6951 88.1042 24.1277 88.1093 23.7753 87.7634Z" fill="#6F87F8"/>
<path d="M27.2312 87.0066L24.471 84.2965L28.148 75.0965L36.3624 83.1619L27.2312 87.0066Z" fill="#FFE3CC"/>
<path d="M77.7609 32.7818C76.7478 31.7871 75.1111 31.8021 74.1165 32.8151L56.6377 50.6166C55.643 51.6296 55.658 53.2663 56.671 54.261C57.684 55.2557 59.3208 55.2407 60.3154 54.2277L77.7942 36.4262C78.7889 35.4132 78.7739 33.7765 77.7609 32.7818ZM59.6879 52.4292C59.3491 52.7743 58.8036 52.7793 58.4585 52.4405C58.1135 52.1017 58.1085 51.5562 58.4473 51.2111L62.981 46.5938C63.3197 46.2487 63.8653 46.2438 64.2103 46.5825C64.5553 46.9213 64.5603 47.4669 64.2216 47.8119L59.6879 52.4292Z" fill="#6F91F8"/>
<mask id="mask0_1632_9205" style="mask-type:alpha" maskUnits="userSpaceOnUse" x="77" y="23" width="11" height="10">
<path d="M84.3021 24.2562L86.1552 26.0757C87.2971 27.197 87.314 29.0384 86.1927 30.1804L83.5119 32.9107L77.5166 27.0241L80.1974 24.2938C81.3187 23.1518 83.1601 23.135 84.3021 24.2562Z" fill="#6F87F8"/>
</mask>
<g mask="url(#mask0_1632_9205)">
<rect x="76.0437" y="24.7344" width="0.727458" height="13.0943" transform="rotate(-46.3957 76.0437 24.7344)" fill="#FFDADA"/>
<rect x="78.2261" y="24.7148" width="0.727458" height="13.0943" transform="rotate(-46.3957 78.2261 24.7148)" fill="#FFDADA"/>
<rect x="78.9404" y="23.252" width="0.727458" height="13.0943" transform="rotate(-46.3957 78.9404 23.252)" fill="#FFDADA"/>
</g>
<path d="M84.632 34.0074L76.415 25.9395L28.1498 75.0958L36.3668 83.1638L84.632 34.0074Z" fill="#FF9E9E"/>
<path d="M84.3023 24.2582L86.1554 26.0777C87.2974 27.1989 87.3142 29.0404 86.1929 30.1823L83.5121 32.9127L77.5168 27.026L80.1976 24.2957C81.3189 23.1538 83.1603 23.1369 84.3023 24.2582Z" fill="#6F87F8"/>
<path d="M84.3204 33.6933L76.7315 26.242C75.6078 25.1386 73.8023 25.1551 72.6989 26.2789L66.3281 32.7673C65.2247 33.8911 65.2412 35.6966 66.365 36.8L73.9538 44.2513C75.0776 45.3547 76.8831 45.3382 77.9865 44.2144L84.3573 37.726C85.4607 36.6022 85.4442 34.7967 84.3204 33.6933Z" fill="#82B6FF"/>
<path d="M23.7753 87.7634C23.423 87.4174 23.4178 86.85 23.7637 86.4977L26.6685 83.5393C27.0144 83.1869 27.5818 83.1818 27.9342 83.5277C28.2865 83.8737 28.2917 84.4411 27.9458 84.7935L25.041 87.7518C24.6951 88.1042 24.1277 88.1093 23.7753 87.7634Z" fill="#6F87F8"/>
<path d="M27.2309 87.0066L24.4708 84.2965L28.1478 75.0965L36.3621 83.1619L27.2309 87.0066Z" fill="#FFE3CC"/>
<path d="M77.7609 32.7818C76.7478 31.7871 75.1111 31.8021 74.1165 32.8151L56.6377 50.6166C55.643 51.6296 55.658 53.2663 56.671 54.261C57.684 55.2557 59.3208 55.2407 60.3154 54.2277L77.7942 36.4262C78.7889 35.4132 78.7739 33.7765 77.7609 32.7818ZM59.6879 52.4292C59.3491 52.7743 58.8036 52.7793 58.4585 52.4405C58.1135 52.1017 58.1085 51.5562 58.4473 51.2111L62.981 46.5938C63.3197 46.2487 63.8653 46.2438 64.2103 46.5825C64.5553 46.9213 64.5603 47.4669 64.2216 47.8119L59.6879 52.4292Z" fill="#6F91F8"/>
<mask id="mask1_1632_9205" style="mask-type:alpha" maskUnits="userSpaceOnUse" x="77" y="23" width="11" height="10">
<path d="M84.3023 24.2562L86.1554 26.0757C87.2974 27.197 87.3142 29.0384 86.1929 30.1804L83.5121 32.9107L77.5168 27.0241L80.1976 24.2938C81.3189 23.1518 83.1603 23.135 84.3023 24.2562Z" fill="#6F87F8"/>
</mask>
<g mask="url(#mask1_1632_9205)">
<rect x="76.0437" y="24.7363" width="0.727458" height="13.0943" transform="rotate(-46.3957 76.0437 24.7363)" fill="#FFDADA"/>
<rect x="78.2261" y="24.7148" width="0.727458" height="13.0943" transform="rotate(-46.3957 78.2261 24.7148)" fill="#FFDADA"/>
<rect x="78.9404" y="23.2539" width="0.727458" height="13.0943" transform="rotate(-46.3957 78.9404 23.2539)" fill="#FFDADA"/>
</g>
</g>
<defs>
<filter id="filter0_dd_1632_9205" x="-3.12705" y="9.47181" width="99.9538" height="95.1911" filterUnits="userSpaceOnUse" color-interpolation-filters="sRGB">
<feFlood flood-opacity="0" result="BackgroundImageFix"/>
<feColorMatrix in="SourceAlpha" type="matrix" values="0 0 0 0 0 0 0 0 0 0 0 0 0 0 0 0 0 0 127 0" result="hardAlpha"/>
<feOffset dy="0.735337"/>
<feGaussianBlur stdDeviation="3.67668"/>
<feColorMatrix type="matrix" values="0 0 0 0 0.0313726 0 0 0 0 0.380392 0 0 0 0 0.627451 0 0 0 0.12 0"/>
<feBlend mode="normal" in2="BackgroundImageFix" result="effect1_dropShadow_1632_9205"/>
<feColorMatrix in="SourceAlpha" type="matrix" values="0 0 0 0 0 0 0 0 0 0 0 0 0 0 0 0 0 0 127 0" result="hardAlpha"/>
<feOffset/>
<feGaussianBlur stdDeviation="2.20601"/>
<feComposite in2="hardAlpha" operator="out"/>
<feColorMatrix type="matrix" values="0 0 0 0 0.0304674 0 0 0 0 0.379075 0 0 0 0 0.62808 0 0 0 0.1 0"/>
<feBlend mode="normal" in2="effect1_dropShadow_1632_9205" result="effect2_dropShadow_1632_9205"/>
<feBlend mode="normal" in="SourceGraphic" in2="effect2_dropShadow_1632_9205" result="shape"/>
</filter>
<clipPath id="clip0_1632_9205">
<rect width="116" height="116" fill="white" transform="translate(0.5)"/>
</clipPath>
</defs>
</svg>
