<svg width="117" height="116" viewBox="0 0 117 116" fill="none" xmlns="http://www.w3.org/2000/svg">
<g clip-path="url(#clip0_1632_9100)">
<g filter="url(#filter0_dd_1632_9100)">
<mask id="path-1-outside-1_1632_9100" maskUnits="userSpaceOnUse" x="-3.89821" y="-4.53521" width="125.087" height="126.149" fill="black">
<rect fill="white" x="-3.89821" y="-4.53521" width="125.087" height="126.149"/>
<path d="M7.82851 45.3704L41.9621 20.4578C42.933 19.7494 44.2935 19.96 45.0004 20.9279L50.7828 28.8466L71.7643 18.9066C72.8485 18.3928 74.147 18.8546 74.6643 19.9387L101.551 76.2965C102.068 77.3806 101.609 78.6756 100.525 79.1892L62.4776 97.217C61.3934 97.7305 60.0949 97.2675 59.5777 96.1835L57.4238 91.6701L47.1284 99.1854C46.1575 99.8938 44.797 99.6833 44.0901 98.7154L7.35101 48.4062C6.64407 47.4382 6.85761 46.0791 7.82851 45.3704Z"/>
</mask>
<path d="M7.82851 45.3704L41.9621 20.4578C42.933 19.7494 44.2935 19.96 45.0004 20.9279L50.7828 28.8466L71.7643 18.9066C72.8485 18.3928 74.147 18.8546 74.6643 19.9387L101.551 76.2965C102.068 77.3806 101.609 78.6756 100.525 79.1892L62.4776 97.217C61.3934 97.7305 60.0949 97.2675 59.5777 96.1835L57.4238 91.6701L47.1284 99.1854C46.1575 99.8938 44.797 99.6833 44.0901 98.7154L7.35101 48.4062C6.64407 47.4382 6.85761 46.0791 7.82851 45.3704Z" fill="white"/>
<path d="M7.82851 45.3704L5.90622 42.7366L5.90609 42.7367L7.82851 45.3704ZM41.9621 20.4578L40.0403 17.8237L40.0398 17.824L41.9621 20.4578ZM45.0004 20.9279L47.6338 19.005L47.6336 19.0047L45.0004 20.9279ZM50.7828 28.8466L48.1495 30.7695L49.7406 32.9484L52.1788 31.7933L50.7828 28.8466ZM71.7643 18.9066L73.1603 21.8533L73.1604 21.8532L71.7643 18.9066ZM74.6643 19.9387L77.6072 18.5347L77.6072 18.5347L74.6643 19.9387ZM101.551 76.2965L104.495 74.893L104.494 74.8925L101.551 76.2965ZM100.525 79.1892L99.1284 76.2426L99.1283 76.2426L100.525 79.1892ZM62.4776 97.217L63.8734 100.164L63.8738 100.164L62.4776 97.217ZM59.5777 96.1835L62.5206 94.7794L62.5204 94.7791L59.5777 96.1835ZM57.4238 91.6701L60.3666 90.2658L58.6746 86.7201L55.5014 89.0365L57.4238 91.6701ZM47.1284 99.1854L49.0503 101.82L49.0509 101.819L47.1284 99.1854ZM44.0901 98.7154L41.4568 100.638L41.4568 100.638L44.0901 98.7154ZM7.35101 48.4062L9.98428 46.4832L9.98426 46.4832L7.35101 48.4062ZM7.82851 45.3704L9.75079 48.0042L43.8844 23.0916L41.9621 20.4578L40.0398 17.824L5.90622 42.7366L7.82851 45.3704ZM41.9621 20.4578L43.8839 23.092C43.4072 23.4397 42.727 23.3435 42.3673 22.851L45.0004 20.9279L47.6336 19.0047C45.8601 16.5764 42.4588 16.0592 40.0403 17.8237L41.9621 20.4578ZM45.0004 20.9279L42.3671 22.8508L48.1495 30.7695L50.7828 28.8466L53.4161 26.9237L47.6338 19.005L45.0004 20.9279ZM50.7828 28.8466L52.1788 31.7933L73.1603 21.8533L71.7643 18.9066L70.3682 15.9598L49.3868 25.8999L50.7828 28.8466ZM71.7643 18.9066L73.1604 21.8532C72.6189 22.1098 71.9774 21.8794 71.7214 21.3428L74.6643 19.9387L77.6072 18.5347C76.3167 15.8297 73.0781 14.6759 70.3681 15.9599L71.7643 18.9066ZM74.6643 19.9387L71.7214 21.3427L98.6085 77.7005L101.551 76.2965L104.494 74.8925L77.6072 18.5347L74.6643 19.9387ZM101.551 76.2965L98.6082 77.7C98.3502 77.1588 98.5791 76.5028 99.1284 76.2426L100.525 79.1892L101.921 82.1359C104.638 80.8483 105.787 77.6023 104.495 74.893L101.551 76.2965ZM100.525 79.1892L99.1283 76.2426L61.0814 94.2704L62.4776 97.217L63.8738 100.164L101.921 82.1358L100.525 79.1892ZM62.4776 97.217L61.0818 94.2702C61.6261 94.0124 62.2659 94.2456 62.5206 94.7794L59.5777 96.1835L56.6348 97.5875C57.9238 100.289 61.1608 101.449 63.8734 100.164L62.4776 97.217ZM59.5777 96.1835L62.5204 94.7791L60.3666 90.2658L57.4238 91.6701L54.4811 93.0745L56.6349 97.5878L59.5777 96.1835ZM57.4238 91.6701L55.5014 89.0365L45.206 96.5517L47.1284 99.1854L49.0509 101.819L59.3463 94.3038L57.4238 91.6701ZM47.1284 99.1854L45.2066 96.5513C45.6831 96.2036 46.3635 96.2997 46.7233 96.7923L44.0901 98.7154L41.4568 100.638C43.2304 103.067 46.6318 103.584 49.0503 101.82L47.1284 99.1854ZM44.0901 98.7154L46.7233 96.7924L9.98428 46.4832L7.35101 48.4062L4.71774 50.3292L41.4568 100.638L44.0901 98.7154ZM7.35101 48.4062L9.98426 46.4832C10.3439 46.9757 10.2288 47.6553 9.75093 48.0041L7.82851 45.3704L5.90609 42.7367C3.48641 44.5029 2.94422 47.9007 4.71776 50.3292L7.35101 48.4062Z" fill="white" mask="url(#path-1-outside-1_1632_9100)"/>
</g>
<path d="M72.0213 18.8375L33.9744 36.8648C32.8902 37.3785 32.4305 38.6738 32.9478 39.758L59.8351 96.1152C60.3524 97.1993 61.6506 97.6618 62.7348 97.1481L100.782 79.1208C101.866 78.6071 102.326 77.3118 101.808 76.2276L74.921 19.8704C74.4038 18.7862 73.1055 18.3238 72.0213 18.8375Z" fill="#BEE2F6"/>
<path d="M71.3979 27.1366C71.7944 27.9703 71.2745 29.0481 70.2388 29.5395L40.744 43.5471C39.7084 44.0385 38.5425 43.7633 38.146 42.9296C37.7495 42.0959 38.2695 41.0181 39.3051 40.5268L68.7999 26.5191C69.8355 26.0278 70.9974 26.3045 71.3939 27.1383L71.3979 27.1366Z" fill="white"/>
<path d="M73.7525 31.393C73.965 31.8394 73.6878 32.413 73.1402 32.6713L43.1115 46.9407C42.5571 47.2069 41.9439 47.0563 41.7314 46.6099C41.5189 46.1634 41.7874 45.5933 42.3437 45.3316L72.3724 31.0621C72.92 30.8039 73.5418 30.9509 73.7525 31.393Z" fill="#FFFDFD"/>
<path opacity="0.6" d="M80.129 42.9601C80.6241 43.9966 80.1516 45.2464 79.0725 45.7543L69.7979 50.1485C68.7206 50.6607 67.4502 50.2331 66.9551 49.1966L64.0764 43.1646C63.5831 42.1324 64.0538 40.8782 65.1329 40.3703L74.4075 35.9762C75.4823 35.4701 76.7552 35.8915 77.2502 36.928L80.129 42.9601Z" fill="#61AAEA"/>
<path opacity="0.6" d="M85.2661 53.7687C85.7611 54.8052 85.2887 56.055 84.2096 56.5629L74.935 60.957C73.8576 61.4693 72.5873 61.0417 72.0922 60.0052L69.2153 53.9775C68.7202 52.941 69.1927 51.6912 70.27 51.1789L79.5464 46.7892C80.6194 46.2786 81.894 46.7045 82.3891 47.741L85.2679 53.7731L85.2661 53.7687Z" fill="#3375F9"/>
<path d="M78.839 82.7063C79.3335 83.7414 78.8616 84.9896 77.7882 85.4951L65.0871 91.5084C64.0093 92.0156 62.7423 91.5929 62.2479 90.5578L54.5277 74.3759C54.0332 73.3408 54.5051 72.0926 55.5811 71.581L68.2822 65.5677C69.3599 65.0605 70.6269 65.4831 71.1214 66.5183L78.8416 82.7002L78.839 82.7063Z" fill="white"/>
<path d="M61.3504 43.7448C61.4843 44.0233 61.3571 44.3567 61.069 44.4942L44.0442 52.5854C43.7561 52.7229 43.4164 52.6099 43.2869 52.3295C43.153 52.051 43.2801 51.7176 43.5682 51.5802L60.5931 43.4889C60.8811 43.3514 61.2208 43.4645 61.3547 43.743L61.3504 43.7448Z" fill="#FFFDFD"/>
<path d="M62.4126 45.9811C62.5465 46.2597 62.4194 46.593 62.1313 46.7305L45.1064 54.8218C44.8184 54.9592 44.4769 54.8418 44.3491 54.5659C44.2152 54.2873 44.3424 53.954 44.6305 53.8165L61.6553 45.7252C61.9434 45.5877 62.2831 45.7008 62.417 45.9793L62.4126 45.9811Z" fill="#FFFDFD"/>
<path d="M63.4793 48.2135C63.6132 48.4921 63.486 48.8254 63.1979 48.9629L46.1731 57.0542C45.885 57.1917 45.5453 57.0786 45.4158 56.7983C45.2819 56.5197 45.4091 56.1864 45.6971 56.0489L62.722 47.9576C63.0101 47.8202 63.3497 47.9332 63.4836 48.2118L63.4793 48.2135Z" fill="#FFFDFD"/>
<path d="M64.5417 50.4539C64.6756 50.7325 64.5484 51.0658 64.2604 51.2033L47.2355 59.2946C46.9474 59.4321 46.606 59.3146 46.4739 59.0405C46.34 58.7619 46.4672 58.4285 46.7552 58.2911L63.7801 50.1998C64.0682 50.0623 64.4096 50.1798 64.5417 50.4539Z" fill="#FFFDFD"/>
<path d="M65.604 52.6901C65.7379 52.9686 65.6108 53.302 65.3227 53.4395L48.2978 61.5307C48.0098 61.6682 47.6701 61.5552 47.5405 61.2748C47.4066 60.9963 47.5338 60.6629 47.8219 60.5255L64.8467 52.4342C65.1348 52.2967 65.4763 52.4141 65.6084 52.6883L65.604 52.6901Z" fill="#FFFDFD"/>
<path d="M66.6663 54.9245C66.8002 55.203 66.673 55.5364 66.3849 55.6738L49.3601 63.7651C49.072 63.9026 48.7323 63.7895 48.6028 63.5092C48.4689 63.2307 48.5961 62.8973 48.8841 62.7598L65.909 54.6686C66.1971 54.5311 66.5367 54.6441 66.6706 54.9227L66.6663 54.9245Z" fill="#FFFDFD"/>
<path d="M67.7285 57.1588C67.8624 57.4374 67.7353 57.7707 67.4472 57.9082L50.4223 65.9995C50.1343 66.1369 49.7946 66.0239 49.665 65.7436C49.5311 65.465 49.6583 65.1317 49.9464 64.9942L66.9712 56.9029C67.2593 56.7655 67.6008 56.8829 67.7329 57.1571L67.7285 57.1588Z" fill="#FFFDFD"/>
<path d="M68.7911 59.3971C68.925 59.6757 68.7978 60.009 68.5097 60.1465L51.4849 68.2378C51.1968 68.3752 50.8571 68.2622 50.7275 67.9819C50.5936 67.7033 50.7208 67.37 51.0089 67.2325L68.0337 59.1412C68.3218 59.0038 68.6615 59.1168 68.7954 59.3954L68.7911 59.3971Z" fill="#FFFDFD"/>
<path d="M69.8533 61.6335C69.9872 61.912 69.86 62.2454 69.5719 62.3828L52.5471 70.4741C52.259 70.6116 51.9194 70.4985 51.7898 70.2182C51.6559 69.9397 51.7831 69.6063 52.0712 69.4688L69.096 61.3776C69.3841 61.2401 69.7238 61.3531 69.8577 61.6317L69.8533 61.6335Z" fill="#FFFDFD"/>
<path d="M88.7133 57.5607C88.8472 57.8392 88.7547 58.1584 88.5126 58.272L74.1551 65.0946C73.913 65.2083 73.6081 65.0812 73.4785 64.8009C73.3447 64.5224 73.4371 64.2032 73.6792 64.0896L88.0367 57.267C88.2788 57.1533 88.5812 57.2866 88.7133 57.5607Z" fill="#FFFDFD"/>
<path d="M89.7756 59.8008C89.9095 60.0793 89.8214 60.3967 89.5793 60.5103L75.2218 67.3329C74.9797 67.4466 74.6747 67.3195 74.5452 67.0392C74.4113 66.7607 74.5037 66.4415 74.7458 66.3279L89.1034 59.5053C89.3455 59.3916 89.6478 59.5249 89.7799 59.799L89.7756 59.8008Z" fill="#FFFDFD"/>
<path d="M90.8381 62.0351C90.972 62.3136 90.8795 62.6328 90.6418 62.7447L76.2843 69.5673C76.0422 69.681 75.7372 69.5538 75.6077 69.2736C75.4738 68.9951 75.5662 68.6759 75.8083 68.5622L90.1659 61.7396C90.408 61.626 90.7103 61.7593 90.8424 62.0334L90.8381 62.0351Z" fill="#FFFDFD"/>
<path d="M91.9004 64.2734C92.0324 64.5475 91.9461 64.8693 91.704 64.983L77.3465 71.8056C77.1044 71.9192 76.7995 71.7921 76.67 71.5119C76.5361 71.2334 76.6285 70.9142 76.8706 70.8005L91.2281 63.9779C91.4702 63.8643 91.7708 63.9932 91.9047 64.2717L91.9004 64.2734Z" fill="#FFFDFD"/>
<path d="M92.967 66.5117C93.1009 66.7902 93.0085 67.1094 92.7707 67.2213L78.4132 74.0439C78.1711 74.1575 77.8662 74.0304 77.7366 73.7501C77.6027 73.4716 77.6951 73.1525 77.9372 73.0388L92.2948 66.2162C92.5369 66.1026 92.8375 66.2315 92.9713 66.5099L92.967 66.5117Z" fill="#FFFDFD"/>
<path d="M94.0293 68.7461C94.1631 69.0246 94.0707 69.3438 93.833 69.4556L79.4754 76.2782C79.2333 76.3919 78.9284 76.2648 78.7989 75.9845C78.6668 75.7104 78.7574 75.3868 78.9995 75.2732L93.357 68.4506C93.5991 68.3369 93.8997 68.4658 94.0336 68.7443L94.0293 68.7461Z" fill="#FFFDFD"/>
<path d="M95.0917 70.9806C95.2256 71.2591 95.1332 71.5783 94.8911 71.692L80.5335 78.5146C80.2914 78.6282 79.9865 78.5011 79.857 78.2208C79.7231 77.9423 79.8155 77.6232 80.0576 77.5095L94.4151 70.6869C94.6572 70.5733 94.9596 70.7065 95.0917 70.9806Z" fill="#FFFDFD"/>
<path d="M96.154 73.2148C96.2879 73.4933 96.1998 73.8107 95.9577 73.9244L81.6002 80.747C81.3581 80.8606 81.0532 80.7335 80.9236 80.4533C80.7897 80.1748 80.8822 79.8556 81.1243 79.7419L95.4818 72.9193C95.7239 72.8057 96.0263 72.939 96.1584 73.2131L96.154 73.2148Z" fill="#FFFDFD"/>
<path d="M97.2163 75.4551C97.3502 75.7336 97.2577 76.0527 97.02 76.1646L82.6624 82.9872C82.4203 83.1009 82.1154 82.9738 81.9859 82.6935C81.852 82.415 81.9444 82.0958 82.1865 81.9822L96.544 75.1596C96.7861 75.0459 97.0867 75.1748 97.2206 75.4533L97.2163 75.4551Z" fill="#FFFDFD"/>
<path d="M7.60609 48.3425L44.3459 98.6515C45.0529 99.6195 46.4131 99.8298 47.3841 99.1211L81.5176 74.2093C82.4886 73.5006 82.7026 72.1414 81.9956 71.1733L45.2558 20.8643C44.5488 19.8962 43.1886 19.6859 42.2176 20.3946L8.08416 45.3065C7.11316 46.0151 6.89912 47.3744 7.60609 48.3425Z" fill="#FEE6C6"/>
<path d="M51.3828 37.9065C51.7015 38.3458 51.607 38.9618 51.1683 39.2797L23.3497 59.5789C22.9111 59.8969 22.2951 59.8011 21.9763 59.3617C21.6576 58.9224 21.7522 58.3064 22.1908 57.9885L50.0094 37.6893C50.448 37.3713 51.0609 37.4636 51.3828 37.9065Z" fill="white"/>
<path d="M53.822 41.2444C54.1407 41.6837 54.0462 42.2996 53.6075 42.6176L25.7889 62.9168C25.3503 63.2347 24.7343 63.139 24.4156 62.6996C24.0968 62.2602 24.1914 61.6443 24.63 61.3264L52.4486 41.0272C52.8872 40.7092 53.5032 40.805 53.822 41.2444Z" fill="white"/>
<path d="M56.2644 44.5881C56.5831 45.0275 56.4885 45.6434 56.0499 45.9613L28.2313 66.2605C27.7927 66.5785 27.1767 66.4827 26.8579 66.0434C26.5392 65.604 26.6338 64.9881 27.0724 64.6701L54.891 44.3709C55.3296 44.053 55.9456 44.1487 56.2644 44.5881Z" fill="white"/>
<path d="M58.7067 47.9319C59.0255 48.3712 58.9309 48.9871 58.4923 49.3051L30.6737 69.6043C30.235 69.9222 29.6222 69.83 29.3003 69.3871C28.9816 68.9477 29.0761 68.3318 29.5148 68.0139L57.3334 47.7147C57.772 47.3967 58.388 47.4925 58.7067 47.9319Z" fill="white"/>
<path d="M61.1457 51.2795C61.4645 51.7189 61.3699 52.3348 60.9312 52.6528L33.1127 72.9519C32.674 73.2699 32.0611 73.1777 31.7393 72.7348C31.4205 72.2954 31.5151 71.6795 31.9538 71.3615L59.7723 51.0623C60.211 50.7444 60.827 50.8401 61.1457 51.2795Z" fill="white"/>
<path d="M63.5849 54.6174C63.9037 55.0568 63.8091 55.6727 63.3704 55.9906L35.5519 76.2898C35.1132 76.6078 34.5003 76.5155 34.1785 76.0727C33.8598 75.6333 33.9543 75.0174 34.393 74.6994L62.2115 54.4002C62.6502 54.0823 63.2631 54.1745 63.5849 54.6174Z" fill="white"/>
<path d="M66.0273 57.9612C66.346 58.4005 66.2515 59.0164 65.8128 59.3344L37.9943 79.6336C37.5556 79.9515 36.9396 79.8558 36.6209 79.4164C36.3021 78.977 36.3967 78.3611 36.8354 78.0432L64.6539 57.744C65.0926 57.426 65.7086 57.5218 66.0273 57.9612Z" fill="white"/>
<path d="M68.466 61.3088C68.7848 61.7482 68.6902 62.3641 68.2515 62.6821L40.433 82.9812C39.9943 83.2992 39.3815 83.207 39.0596 82.7641C38.7409 82.3247 38.8354 81.7088 39.2741 81.3908L67.0926 61.0916C67.5313 60.7737 68.1442 60.8659 68.466 61.3088Z" fill="white"/>
<path d="M70.9084 64.6545C71.2271 65.0939 71.1326 65.7098 70.6939 66.0278L42.8754 86.3269C42.4367 86.6449 41.8207 86.5491 41.502 86.1098C41.1832 85.6704 41.2778 85.0545 41.7165 84.7365L69.535 64.4373C69.9737 64.1194 70.5866 64.2116 70.9084 64.6545Z" fill="white"/>
<path d="M73.3477 67.9928C73.6664 68.4321 73.5719 69.0481 73.1332 69.366L45.3146 89.6652C44.876 89.9832 44.2631 89.8909 43.9444 89.4516C43.6256 89.0122 43.7202 88.3963 44.1588 88.0783L71.9774 67.7791C72.4161 67.4612 73.032 67.5569 73.3508 67.9963L73.3477 67.9928Z" fill="white"/>
<path d="M75.7902 71.3362C76.109 71.7755 76.0144 72.3914 75.5758 72.7094L47.7572 93.0086C47.3186 93.3265 46.7057 93.2343 46.3838 92.7914C46.0651 92.352 46.1596 91.7361 46.5983 91.4182L74.4169 71.119C74.8555 70.801 75.4715 70.8968 75.7902 71.3362Z" fill="white"/>
<path opacity="0.6" d="M47.0149 31.78C47.7436 32.762 47.6111 34.0712 46.7195 34.711L41.3912 38.5105C40.4996 39.1503 39.1825 38.8685 38.4572 37.8904L35.183 33.4914C34.4508 32.5125 34.5868 31.2003 35.4749 30.5635L40.8032 26.7641C41.6948 26.1242 43.0119 26.406 43.7407 27.381L47.0184 31.7769L47.0149 31.78Z" fill="#FFA600"/>
<path d="M32.9153 35.6016C33.4949 36.3934 33.2956 37.5213 32.4738 38.1208L16.9956 49.416C16.1739 50.0155 15.0398 49.8568 14.4633 49.0685C13.8837 48.2767 14.083 47.1488 14.9048 46.5494L30.383 35.2541C31.2048 34.6547 32.3358 34.8098 32.9153 35.6016Z" fill="#FFD12C"/>
<path d="M36.2608 40.1836C36.8404 40.9754 36.6411 42.1034 35.8193 42.7028L20.3411 53.998C19.5193 54.5975 18.3883 54.4423 17.8088 53.6506C17.2292 52.8588 17.4285 51.7308 18.2503 51.1314L33.7284 39.8362C34.5502 39.2367 35.6843 39.3954 36.2608 40.1836Z" fill="#C3C609"/>
</g>
<defs>
<filter id="filter0_dd_1632_9100" x="-5.06207" y="7.5739" width="118.822" height="104.9" filterUnits="userSpaceOnUse" color-interpolation-filters="sRGB">
<feFlood flood-opacity="0" result="BackgroundImageFix"/>
<feColorMatrix in="SourceAlpha" type="matrix" values="0 0 0 0 0 0 0 0 0 0 0 0 0 0 0 0 0 0 127 0" result="hardAlpha"/>
<feOffset dy="0.873517"/>
<feGaussianBlur stdDeviation="4.36758"/>
<feColorMatrix type="matrix" values="0 0 0 0 0.0313726 0 0 0 0 0.380392 0 0 0 0 0.627451 0 0 0 0.12 0"/>
<feBlend mode="normal" in2="BackgroundImageFix" result="effect1_dropShadow_1632_9100"/>
<feColorMatrix in="SourceAlpha" type="matrix" values="0 0 0 0 0 0 0 0 0 0 0 0 0 0 0 0 0 0 127 0" result="hardAlpha"/>
<feOffset/>
<feGaussianBlur stdDeviation="2.62055"/>
<feComposite in2="hardAlpha" operator="out"/>
<feColorMatrix type="matrix" values="0 0 0 0 0.0304674 0 0 0 0 0.379075 0 0 0 0 0.62808 0 0 0 0.1 0"/>
<feBlend mode="normal" in2="effect1_dropShadow_1632_9100" result="effect2_dropShadow_1632_9100"/>
<feBlend mode="normal" in="SourceGraphic" in2="effect2_dropShadow_1632_9100" result="shape"/>
</filter>
<clipPath id="clip0_1632_9100">
<rect width="116" height="116" fill="white" transform="translate(0.5)"/>
</clipPath>
</defs>
</svg>
