<svg width="41" height="40" viewBox="0 0 41 40" fill="none" xmlns="http://www.w3.org/2000/svg">
<path fill-rule="evenodd" clip-rule="evenodd" d="M20.9717 10C15.4488 10 10.9717 14.4772 10.9717 20C10.9717 25.5228 15.4488 30 20.9717 30C26.4945 30 30.9717 25.5228 30.9717 20C30.9717 17.3478 29.9181 14.8043 28.0427 12.9289C26.1674 11.0536 23.6238 10 20.9717 10ZM20.9717 28C16.5534 28 12.9717 24.4183 12.9717 20C12.9717 15.5817 16.5534 12 20.9717 12C25.39 12 28.9717 15.5817 28.9717 20C28.9717 22.1217 28.1288 24.1566 26.6285 25.6569C25.1282 27.1571 23.0934 28 20.9717 28ZM15.9717 20C15.9717 17.2386 18.2103 15 20.9717 15C23.7331 15 25.9717 17.2386 25.9717 20C25.9717 22.7614 23.7331 25 20.9717 25C18.2103 25 15.9717 22.7614 15.9717 20Z" fill="#00A15D"/>
</svg>
