<svg width="36" height="36" viewBox="0 0 36 36" fill="none" xmlns="http://www.w3.org/2000/svg">
<path d="M7.5 10.0703C7.075 10.0703 6.71875 9.92656 6.43125 9.63906C6.14375 9.35156 6 8.99531 6 8.57031C6 8.14531 6.14375 7.78906 6.43125 7.50156C6.71875 7.21406 7.075 7.07031 7.5 7.07031H28.5C28.925 7.07031 29.2812 7.21406 29.5687 7.50156C29.8562 7.78906 30 8.14531 30 8.57031C30 8.99531 29.8562 9.35156 29.5687 9.63906C29.2812 9.92656 28.925 10.0703 28.5 10.0703H7.5ZM18 31.4989C17.575 31.4989 17.2187 31.3551 16.9312 31.0676C16.6437 30.7801 16.5 30.4239 16.5 29.9989V16.1989L13.65 19.0489C13.375 19.3239 13.025 19.4614 12.6 19.4614C12.175 19.4614 11.825 19.3239 11.55 19.0489C11.275 18.7739 11.1375 18.4239 11.1375 17.9989C11.1375 17.5739 11.275 17.2239 11.55 16.9489L16.95 11.5489C17.1 11.3989 17.2625 11.2926 17.4375 11.2301C17.6125 11.1676 17.8 11.1364 18 11.1364C18.2 11.1364 18.3875 11.1676 18.5625 11.2301C18.7375 11.2926 18.9 11.3989 19.05 11.5489L24.45 16.9489C24.725 17.2239 24.8625 17.5739 24.8625 17.9989C24.8625 18.4239 24.725 18.7739 24.45 19.0489C24.175 19.3239 23.825 19.4614 23.4 19.4614C22.975 19.4614 22.625 19.3239 22.35 19.0489L19.5 16.1989V29.9989C19.5 30.4239 19.3563 30.7801 19.0688 31.0676C18.7813 31.3551 18.425 31.4989 18 31.4989Z" fill="#212B36"/>
</svg>
