<svg width="20" height="21" viewBox="0 0 20 21" fill="none" xmlns="http://www.w3.org/2000/svg">
<path d="M17.4998 5.5005H13.3332V4.10883C13.3136 3.57535 13.0833 3.07138 12.6928 2.70741C12.3023 2.34344 11.7834 2.14916 11.2498 2.16716H8.74984C8.2163 2.14916 7.69739 2.34344 7.30686 2.70741C6.91633 3.07138 6.68605 3.57535 6.6665 4.10883V5.5005H2.49984C2.27882 5.5005 2.06686 5.5883 1.91058 5.74458C1.7543 5.90086 1.6665 6.11282 1.6665 6.33383C1.6665 6.55485 1.7543 6.76681 1.91058 6.92309C2.06686 7.07937 2.27882 7.16716 2.49984 7.16716H3.33317V16.3338C3.33317 16.9969 3.59656 17.6328 4.0654 18.1016C4.53424 18.5704 5.17013 18.8338 5.83317 18.8338H14.1665C14.8295 18.8338 15.4654 18.5704 15.9343 18.1016C16.4031 17.6328 16.6665 16.9969 16.6665 16.3338V7.16716H17.4998C17.7209 7.16716 17.9328 7.07937 18.0891 6.92309C18.2454 6.76681 18.3332 6.55485 18.3332 6.33383C18.3332 6.11282 18.2454 5.90086 18.0891 5.74458C17.9328 5.5883 17.7209 5.5005 17.4998 5.5005ZM8.33317 4.10883C8.33317 3.9755 8.50817 3.83383 8.74984 3.83383H11.2498C11.4915 3.83383 11.6665 3.9755 11.6665 4.10883V5.5005H8.33317V4.10883ZM14.9998 16.3338C14.9998 16.5548 14.912 16.7668 14.7558 16.9231C14.5995 17.0794 14.3875 17.1672 14.1665 17.1672H5.83317C5.61216 17.1672 5.4002 17.0794 5.24392 16.9231C5.08763 16.7668 4.99984 16.5548 4.99984 16.3338V7.16716H14.9998V16.3338Z" fill="#B72136"/>
<path d="M7.49984 14.666C7.72085 14.666 7.93281 14.5782 8.08909 14.4219C8.24537 14.2657 8.33317 14.0537 8.33317 13.8327V10.4993C8.33317 10.2783 8.24537 10.0664 8.08909 9.91009C7.93281 9.75381 7.72085 9.66602 7.49984 9.66602C7.27882 9.66602 7.06686 9.75381 6.91058 9.91009C6.7543 10.0664 6.6665 10.2783 6.6665 10.4993V13.8327C6.6665 14.0537 6.7543 14.2657 6.91058 14.4219C7.06686 14.5782 7.27882 14.666 7.49984 14.666Z" fill="#B72136"/>
<path d="M12.4998 14.666C12.7209 14.666 12.9328 14.5782 13.0891 14.4219C13.2454 14.2657 13.3332 14.0537 13.3332 13.8327V10.4993C13.3332 10.2783 13.2454 10.0664 13.0891 9.91009C12.9328 9.75381 12.7209 9.66602 12.4998 9.66602C12.2788 9.66602 12.0669 9.75381 11.9106 9.91009C11.7543 10.0664 11.6665 10.2783 11.6665 10.4993V13.8327C11.6665 14.0537 11.7543 14.2657 11.9106 14.4219C12.0669 14.5782 12.2788 14.666 12.4998 14.666Z" fill="#B72136"/>
</svg>
